<svg width="31" height="30" viewBox="0 0 31 30" fill="none" xmlns="http://www.w3.org/2000/svg">
<path d="M24.5026 1.13437C24.0122 1.76015 23.6116 2.27577 23.6116 2.28514C23.6116 2.29452 23.7359 2.48202 23.8879 2.70233C25.6122 5.20779 26.8002 8.11871 27.3573 11.2148C27.682 13.0124 27.7717 14.9882 27.6106 16.8398C27.286 20.6038 25.9161 24.3889 23.782 27.4147L23.5978 27.6772L24.4957 28.8327C24.9883 29.4678 25.3958 29.9905 25.3981 29.9952C25.4096 30.0045 25.9875 29.21 26.2569 28.8163C27.9306 26.3553 29.1807 23.4796 29.8645 20.5194C30.6127 17.278 30.6979 13.9991 30.1177 10.7343C29.6688 8.19605 28.7732 5.61325 27.5645 3.35858C26.9867 2.28514 26.273 1.16484 25.5823 0.25078L25.3935 1.90735e-06L24.5026 1.13437Z" fill="#000055"/>
<path d="M3.83595 10.6874H2.16913H0.5V14.9764V19.2655H2.16452H3.82905C3.82905 19.2655 13.6451 29.2451 13.6543 29.2475C13.6635 29.2498 13.6704 22.828 13.6704 14.9764C13.6704 7.12492 13.6658 0.703083 13.6612 0.703083L3.83595 10.6874Z" fill="#000055"/>
<path d="M20.865 5.75851C20.3838 6.37257 19.9763 6.89757 19.9579 6.9257C19.9303 6.97023 19.9418 7.00069 20.0845 7.25616C20.2917 7.62647 20.7246 8.5335 20.8857 8.93428C21.4912 10.4319 21.8527 11.9225 22.0207 13.6171C22.0783 14.203 22.0783 15.8202 22.0207 16.4061C21.8504 18.1288 21.4751 19.6522 20.842 21.1873C20.6164 21.7334 20.3493 22.2795 19.9418 23.0178C19.9326 23.0342 21.7445 25.3428 21.7744 25.3545C21.802 25.3662 22.2187 24.6936 22.5387 24.117C22.7344 23.7678 23.112 23.0014 23.3008 22.5701C24.0007 20.9741 24.5095 19.1389 24.7305 17.3928C24.8456 16.5069 24.8686 16.0874 24.8709 15.0233C24.8709 14.046 24.8571 13.7741 24.7765 13.0194C24.468 10.139 23.4758 7.30538 21.9309 4.89133C21.8412 4.75305 21.7629 4.64055 21.7537 4.64055C21.7468 4.64055 21.3462 5.14445 20.865 5.75851Z" fill="#000055"/>
<path d="M16.9925 10.6875L16.0002 11.9507L16.044 12.0984C16.1246 12.3585 16.2443 12.8695 16.3041 13.1953C16.4262 13.8796 16.4446 14.107 16.4446 15.0117C16.4446 15.7546 16.4377 15.9023 16.3916 16.2421C16.3249 16.7413 16.2259 17.2452 16.1084 17.6695L16.0164 18.007L16.1269 18.1499C16.364 18.4593 17.9595 20.4983 17.9894 20.5288C18.0055 20.5476 18.0262 20.5569 18.0354 20.5499C18.0423 20.5405 18.1344 20.3319 18.2403 20.0812C18.7422 18.8952 19.0645 17.639 19.2096 16.3124C19.2602 15.8507 19.2786 14.6203 19.2441 14.1281C19.1313 12.5765 18.7652 11.0953 18.1436 9.69372C18.0815 9.55075 18.0216 9.43356 18.0078 9.43122C17.9963 9.42653 17.5404 9.99372 16.9925 10.6875Z" fill="#000055"/>
</svg>
