<svg width="238" height="243" viewBox="0 0 238 243" fill="none" xmlns="http://www.w3.org/2000/svg">
<g opacity="0.8">
<g clip-path="url(#clip0_231_12412)">
<g style="mix-blend-mode:screen">
<path opacity="0.5" d="M129.436 118.926C130.9 118.488 132.461 118.488 133.926 118.926C132.814 119.849 131.595 120.635 130.296 121.268C127.955 122.701 126.236 122.271 125.949 121.65C125.663 121.029 126.379 119.404 129.436 118.926Z" fill="#7D7A7C"/>
<path d="M127.525 120.026C128.29 119.691 129.054 120.026 129.245 120.312C129.436 120.599 128.958 121.411 128.194 121.746C127.43 122.08 126.666 121.746 126.475 121.459C126.284 121.172 126.713 120.312 127.525 120.026Z" fill="#F9E6CF"/>
<path opacity="0.5" d="M132.54 130.585C133.011 129.219 133.126 127.755 132.875 126.332C132.875 125.186 132.063 124.612 132.206 124.517C132.349 124.421 133.161 124.517 133.926 125.807C134.82 127.337 135.221 129.106 135.072 130.872C134.785 135.65 132.54 137.418 131.967 137.179C131.394 136.94 131.203 134.742 132.54 130.585Z" fill="#7D7A7C"/>
<path d="M132.158 133.786C132.493 132.592 133.209 131.684 133.639 131.779C134.069 131.875 134.308 133.022 133.926 134.312C133.544 135.602 132.732 136.462 132.302 136.319C131.872 136.175 131.872 135.028 132.158 133.786Z" fill="#F9E6CF"/>
<path opacity="0.5" d="M122.749 106.838C123.903 107.878 124.676 109.274 124.946 110.804C125.185 111.855 125.185 112.572 124.946 112.572C124.707 112.572 123.322 110.039 121.173 108.988C119.024 107.937 117.113 109.323 116.683 108.558C116.254 107.794 116.683 107.602 117.304 106.838C117.893 106.383 118.58 106.072 119.31 105.93C119.914 105.799 120.541 105.813 121.139 105.971C121.736 106.129 122.288 106.426 122.749 106.838Z" fill="#7D7A7C"/>
<path d="M119.31 106.456C120.695 106.456 121.698 107.077 121.46 107.507C121.221 107.937 120.457 108.128 119.645 108.271C118.833 108.415 117.877 108.271 117.639 108.271C117.4 108.271 117.83 106.838 119.31 106.456Z" fill="#F9E6CF"/>
<path opacity="0.5" d="M110.952 113.527C112.101 113.271 113.291 113.262 114.444 113.501C115.597 113.74 116.686 114.221 117.639 114.913C115.63 115.027 113.642 115.38 111.716 115.964C108.707 117.636 106.94 119.07 106.414 118.64C105.889 118.21 105.985 117.732 106.414 116.681C106.885 115.847 107.537 115.131 108.323 114.585C109.108 114.039 110.007 113.677 110.952 113.527Z" fill="#7D7A7C"/>
<path d="M107.895 115.534C109.041 114.722 110.188 114.578 110.426 115.104C110.665 115.63 109.949 116.346 109.041 117.015C108.134 117.684 107.274 118.162 106.94 117.875C106.606 117.589 106.892 116.49 107.895 115.534Z" fill="#F9E6CF"/>
<path opacity="0.5" d="M103.931 129.343C106.649 127.7 109.643 126.567 112.767 125.998C112.767 125.998 109.185 128.435 105.364 131.493C100.587 135.172 98.868 137.179 98.2471 136.988C97.6262 136.797 97.7217 135.936 98.4859 134.455C99.7571 132.251 101.652 130.472 103.931 129.343Z" fill="#7D7A7C"/>
<path d="M100.205 132.687C101.59 131.397 103.023 130.824 103.358 131.254C103.692 131.684 102.737 132.831 101.495 134.025C100.253 135.22 99.2024 136.128 98.7248 135.841C98.2471 135.554 98.9158 134.025 100.205 132.687Z" fill="#F9E6CF"/>
<path opacity="0.5" d="M138.415 108.988C137.118 110.485 135.48 111.648 133.639 112.38C134.373 110.714 135.252 109.115 136.266 107.602C137.078 106.073 137.365 105.166 137.603 105.166C137.842 105.166 137.603 104.831 137.603 104.544C137.521 104.346 137.521 104.122 137.603 103.923C137.603 103.923 138.224 102.92 139.609 103.923C139.904 104.305 140.095 104.757 140.162 105.234C140.229 105.712 140.17 106.199 139.991 106.647C139.637 107.53 139.1 108.328 138.415 108.988Z" fill="#7D7A7C"/>
<path d="M139.705 106.026C139.275 107.316 138.367 107.793 137.985 107.507C137.603 107.22 137.651 106.312 137.985 105.548C137.938 105.392 137.938 105.226 137.985 105.07C137.948 104.978 137.948 104.875 137.985 104.783C137.985 104.544 137.985 104.305 137.985 104.067C138.044 103.996 138.117 103.94 138.199 103.901C138.282 103.862 138.372 103.842 138.463 103.842C138.554 103.842 138.644 103.862 138.727 103.901C138.809 103.94 138.882 103.996 138.941 104.067C139.164 104.321 139.342 104.612 139.466 104.927C139.596 105.28 139.676 105.65 139.705 106.026Z" fill="#F9E6CF"/>
<path opacity="0.5" d="M127.669 98.3806C127.427 101.039 126.577 103.605 125.185 105.882C124.899 105.882 125.185 102.251 125.185 98.3329C125.156 96.6957 124.833 95.0771 124.23 93.5548C123.971 93.2377 123.762 92.8833 123.609 92.5036C123.37 92.2647 123.275 92.0736 123.322 91.8824C123.37 91.6913 124.134 91.0702 125.663 91.8824C126.564 92.6745 127.229 93.701 127.583 94.8481C127.937 95.9951 127.967 97.2178 127.669 98.3806Z" fill="#7D7A7C"/>
<path d="M126.713 94.176C127.382 95.8483 126.713 97.1384 126.379 97.1862C126.045 97.2339 125.472 95.9916 124.994 94.8927C124.516 93.7937 124.469 93.8893 124.421 93.4115C124.293 93.3006 124.196 93.1592 124.137 93.0005C124.079 92.8418 124.061 92.6709 124.087 92.5036C124.087 92.2647 124.612 92.2647 125.233 92.5036C125.888 92.8941 126.405 93.4785 126.713 94.176Z" fill="#F9E6CF"/>
<path opacity="0.5" d="M129.77 96.5172C130.487 92.5514 131.155 88.92 131.633 86.1965C131.803 84.7382 132.107 83.2987 132.54 81.8962C132.801 83.3461 132.881 84.8226 132.779 86.2921C132.779 89.0156 132.779 92.7903 132.349 96.8516C131.537 106.647 129.484 111.473 128.815 111.186C128.146 110.899 127.812 106.695 129.77 96.5172Z" fill="#7D7A7C"/>
<path d="M128.863 104.019C129.293 101.152 130.057 98.9063 130.534 98.9541C131.012 99.0019 131.155 101.391 130.534 104.306C129.914 107.22 129.245 109.418 128.767 109.084C128.29 108.749 128.863 106.838 128.863 104.019Z" fill="#F9E6CF"/>
<path opacity="0.5" d="M140.66 87.3433C139.466 90.7835 138.224 93.8415 137.221 96.0872C136.774 97.3402 136.163 98.5289 135.406 99.623C135.167 99.623 136.648 93.6503 138.176 86.6266C138.88 82.3848 139.951 78.2122 141.376 74.1558C141.663 74.1558 142.475 75.0636 142.618 77.3571C142.551 80.7744 141.888 84.1538 140.66 87.3433Z" fill="#7D7A7C"/>
<path d="M141.902 80.6061C141.424 83.1863 140.469 85.3842 139.944 85.002C139.418 84.6197 139.609 82.7563 139.944 80.2239C140.278 77.6915 140.899 75.7803 141.424 75.7803C141.95 75.7803 142.427 78.026 141.902 80.6061Z" fill="#F9E6CF"/>
<path opacity="0.5" d="M103.119 122.845C105.989 121.725 109.078 121.284 112.146 121.554C112.146 121.841 108.229 122.94 104.122 125.186C99.3456 127.909 97.0053 129.486 96.3844 129.056C95.7635 128.626 96.1456 127.909 97.1486 126.715C98.7014 124.85 100.783 123.501 103.119 122.845Z" fill="#7D7A7C"/>
<path d="M99.1546 125.425C100.635 124.326 102.164 124.182 102.355 124.612C102.546 125.042 101.495 125.998 100.158 126.954C98.8203 127.909 97.5785 128.531 97.1964 128.1C96.8143 127.67 97.6262 126.428 99.1546 125.425Z" fill="#F9E6CF"/>
<path opacity="0.5" d="M82.1034 109.466C85.8674 109.73 89.5956 110.37 93.2321 111.377C94.7912 111.656 96.3029 112.154 97.7217 112.858C97.7217 113.193 90.5096 111.807 82.0557 111.998C78.2307 112.081 74.4163 112.432 70.6405 113.049C68.1091 113.432 66.7717 113.718 66.6284 113.384C66.4852 113.049 67.2494 111.998 69.7808 110.995C73.7016 109.485 77.9327 108.96 82.1034 109.466Z" fill="#7D7A7C"/>
<path d="M73.8883 110.278C77.0406 109.753 79.6198 110.278 79.6198 110.66C79.6198 111.043 77.1362 111.616 74.1749 112.094C71.2136 112.572 68.8255 113.097 68.5867 112.524C68.3479 111.95 70.6882 110.66 73.8883 110.278Z" fill="#F9E6CF"/>
<path opacity="0.5" d="M157.52 99.5752L148.302 104.736C147.066 105.558 145.754 106.262 144.385 106.838C145.36 105.707 146.467 104.696 147.681 103.828C149.783 102.06 152.744 99.7186 156.087 97.3773C159.161 95.1207 162.581 93.3779 166.213 92.217C168.792 91.4525 170.368 92.217 170.273 92.217C170.177 92.217 166.595 94.4149 157.52 99.5752Z" fill="#7D7A7C"/>
<path d="M163.825 95.5617C161.246 96.8518 159.049 97.7118 158.762 97.2818C158.475 96.8518 160.338 95.2272 162.965 93.8894C165.592 92.5515 168.123 92.1693 168.267 92.6948C168.41 93.2204 166.356 94.2238 163.825 95.5617Z" fill="#F9E6CF"/>
<path opacity="0.5" d="M157.95 113.432C153.174 113.432 149.066 114.101 149.018 113.814C151.733 112.286 154.717 111.296 157.807 110.899C159.061 110.558 160.38 110.531 161.647 110.823C162.913 111.115 164.088 111.716 165.067 112.572C166.404 114.196 165.783 115.343 165.496 115.343C165.21 115.343 164.684 114.77 163.729 114.34C161.88 113.663 159.917 113.354 157.95 113.432Z" fill="#7D7A7C"/>
<path d="M162.296 113.384C160.816 113.002 159.383 112.619 159.383 112.142C159.383 111.664 160.864 111.09 162.774 111.568C164.685 112.046 165.688 114.005 165.162 114.196C164.637 114.387 163.682 113.718 162.296 113.384Z" fill="#F9E6CF"/>
<path opacity="0.5" d="M151.598 83.3297C149.305 86.7699 146.821 89.8279 145.436 92.0258C144.609 93.2738 143.649 94.4274 142.571 95.466C143.038 94.0468 143.662 92.6845 144.433 91.4047C145.723 88.9201 147.49 85.6232 149.21 81.8485C154.081 73.2957 156.947 69.3777 157.52 69.3777C158.093 69.3777 157.52 74.538 151.598 83.3297Z" fill="#7D7A7C"/>
<path d="M155.132 76.497C153.699 79.0772 152.123 80.9407 151.693 80.654C151.263 80.3673 152.075 78.1694 153.508 75.5892C154.941 73.009 156.278 71.1456 156.756 71.3367C157.234 71.5278 156.565 74.1558 155.132 76.497Z" fill="#F9E6CF"/>
<path opacity="0.5" d="M124.946 70.8588C125.567 75.6369 125.854 80.4149 125.997 83.5685C126.134 85.3497 126.134 87.1388 125.997 88.9199C125.468 87.2197 125.084 85.4773 124.851 83.7118C124.23 80.4627 123.466 76.0669 122.415 71.3366C121.173 65.6029 120.122 61.3504 119.31 58.5313C118.498 55.7122 117.925 54.4222 118.212 54.1833C118.498 53.9444 119.883 54.7089 121.269 57.4324C123.284 61.653 124.529 66.1999 124.946 70.8588Z" fill="#7D7A7C"/>
<path d="M122.606 61.9239C123.561 65.3641 123.657 68.2787 123.179 68.3743C122.701 68.4698 121.746 65.7463 120.839 62.4495C119.931 59.1526 119.31 56.5246 119.31 56.2379C119.31 55.9513 121.698 58.4836 122.606 61.9239Z" fill="#F9E6CF"/>
<path opacity="0.5" d="M113.292 135.602C114.606 133.834 116.224 132.314 118.068 131.111C117.333 133.168 116.405 135.152 115.298 137.035C114.605 138.433 113.756 139.747 112.767 140.953C112.194 141.718 111.573 142.1 111.238 142.052C110.904 142.005 110.57 141.336 110.713 140.141C111.135 138.418 112.028 136.846 113.292 135.602Z" fill="#7D7A7C"/>
<path d="M111.812 138.66C112.433 137.513 113.34 136.844 113.77 137.131C114.2 137.418 114.009 138.469 113.436 139.568C112.862 140.667 112.098 141.336 111.668 141.192C111.238 141.049 111.143 139.807 111.812 138.66Z" fill="#F9E6CF"/>
<path opacity="0.5" d="M95.4291 188.209L104.982 168.666L107.943 162.741C108.291 161.998 108.69 161.28 109.137 160.591C108.972 161.398 108.716 162.184 108.373 162.933C107.847 164.414 107.035 166.564 106.032 169.144C103.979 174.352 101.256 181.519 98.0083 189.26C90.4141 208.038 85.208 217.164 84.5871 216.877C83.9662 216.59 86.4021 207.942 95.4291 188.209Z" fill="#7D7A7C"/>
<path d="M89.6499 202.686C90.8247 199.226 92.5857 195.993 94.856 193.13C94.2504 196.741 93.0564 200.227 91.3215 203.451C90.1519 206.904 88.4079 210.135 86.1632 213.007C86.7392 209.396 87.9178 205.907 89.6499 202.686Z" fill="#F9E6CF"/>
<path opacity="0.5" d="M85.8767 193.608L97.6262 173.301C99.2024 170.721 100.444 168.523 101.352 167.137C101.792 166.355 102.287 165.604 102.832 164.892C102.55 165.732 102.199 166.547 101.782 167.328C101.065 168.905 99.9666 171.103 98.677 173.827L88.1215 194.802C78.1869 214.345 71.7868 223.853 71.1659 223.471C70.545 223.089 74.2704 213.867 85.8767 193.608Z" fill="#7D7A7C"/>
<path d="M78.1869 208.611C79.7626 204.985 81.9249 201.643 84.5871 198.72C83.5587 202.544 81.9477 206.186 79.8109 209.519C78.1791 213.115 76.0222 216.448 73.4107 219.41C74.4136 215.577 76.0263 211.931 78.1869 208.611Z" fill="#F9E6CF"/>
<path opacity="0.5" d="M75.8944 197.191C80.193 190.789 84.1572 184.912 87.1663 180.707L90.7484 175.929C91.6082 174.782 92.0858 174.113 92.1813 174.161C91.8976 174.878 91.5457 175.566 91.1305 176.216L88.1215 181.519C85.4946 186.011 81.9602 192.127 78.0437 198.768C68.4912 214.775 62.903 222.659 62.1388 222.229C61.3746 221.799 64.6702 213.628 75.8944 197.191Z" fill="#7D7A7C"/>
<path d="M68.4912 209.567C70.0433 206.568 72.113 203.866 74.6048 201.587C73.5909 204.855 71.9705 207.903 69.8285 210.57C68.3619 213.6 66.3548 216.336 63.906 218.645C64.851 215.358 66.4065 212.278 68.4912 209.567Z" fill="#F9E6CF"/>
<path opacity="0.5" d="M81.1004 181.233L90.032 169.431C91.2499 167.742 92.5909 166.145 94.044 164.653C93.1737 166.548 92.1514 168.37 90.9872 170.1C89.029 173.397 86.211 177.84 83.202 182.714C75.7988 194.42 70.8793 199.676 70.2584 199.294C69.6375 198.912 72.1689 193.082 81.1004 181.233Z" fill="#7D7A7C"/>
<path d="M75.2257 190.263C77.566 186.871 79.7631 184.386 80.0019 184.673C80.2407 184.96 78.9033 187.922 76.563 191.314C74.2226 194.707 72.0256 197.191 71.7868 196.905C71.548 196.618 72.9331 193.608 75.2257 190.263Z" fill="#F9E6CF"/>
<path opacity="0.5" d="M83.0587 155.383C87.8349 151.513 92.0858 148.12 95.3336 145.827C97.0325 144.431 98.837 143.169 100.731 142.052C100.731 142.052 100.349 142.578 99.5367 143.39L96.0978 146.687L84.7782 157.438C74.1272 167.424 68.6822 172.345 68.1091 171.772C67.5359 171.199 70.9271 165.322 83.0587 155.383Z" fill="#7D7A7C"/>
<path d="M74.9391 163.363C78.0914 160.4 80.9572 158.346 81.3393 158.585C81.7214 158.823 79.3332 161.738 76.3242 164.939C73.3152 168.141 70.5927 170.195 70.2106 169.717C69.8285 169.24 71.7868 166.373 74.9391 163.363Z" fill="#F9E6CF"/>
<path opacity="0.5" d="M60.6582 181.854C67.2016 175.881 73.3152 170.53 77.8048 166.707L83.1542 162.168C83.8015 161.575 84.5054 161.047 85.2558 160.591C84.7427 161.309 84.1498 161.966 83.4885 162.55L78.7123 167.567C74.5092 171.724 68.73 177.458 62.5209 183.717C54.9426 191.267 49.1315 196.873 45.0876 200.536C41.1234 204.215 39.0218 206.031 38.783 205.792C38.5442 205.553 43.7025 197.144 60.6582 181.854Z" fill="#7D7A7C"/>
<path d="M49.0041 193.608C51.5378 190.68 54.5399 188.194 57.8879 186.25C55.8271 189.514 53.2642 192.433 50.2937 194.898C47.7798 197.807 44.8697 200.349 41.6487 202.447C43.5671 199.095 46.0564 196.103 49.0041 193.608Z" fill="#F9E6CF"/>
<path opacity="0.5" d="M68.1091 184.052L81.1004 170.482L85.1125 166.468C85.5928 165.943 86.1204 165.463 86.6886 165.035C86.3578 165.667 85.9573 166.26 85.4946 166.803L81.9602 171.246L70.2106 185.581C59.0342 198.959 52.2998 204.932 51.7266 204.693C51.1535 204.454 55.4043 197.43 68.1091 184.052Z" fill="#7D7A7C"/>
<path d="M59.4641 194.229C62.903 190.359 65.9598 187.492 66.3418 187.874C65.0393 190.724 63.1892 193.289 60.8969 195.424C57.4581 199.294 54.4013 202.113 54.0192 201.779C55.3217 198.929 57.1718 196.364 59.4641 194.229Z" fill="#F9E6CF"/>
<path opacity="0.5" d="M63.3806 164.939C70.0674 159.684 76.3242 155.383 81.1005 151.991L86.5931 148.264C87.235 147.745 87.9414 147.311 88.6947 146.974C88.1365 147.58 87.5294 148.139 86.8797 148.646L81.8169 152.899L65.1478 166.755C49.5296 179.656 41.6488 186.298 41.2667 185.867C40.8846 185.437 45.9951 177.697 63.3806 164.939Z" fill="#7D7A7C"/>
<path d="M51.44 174.926C54.0429 172.341 57.083 170.238 60.4193 168.714C60.7537 169.144 57.2193 172.489 52.6341 176.359C50.0557 178.922 47.1294 181.11 43.9413 182.857C45.9201 179.765 48.4642 177.074 51.44 174.926Z" fill="#F9E6CF"/>
<path opacity="0.5" d="M41.0279 149.554C49.243 146.209 56.9327 143.581 62.5209 141.718L69.2076 139.616C70.0286 139.324 70.8766 139.116 71.7391 138.994C70.9838 139.412 70.202 139.779 69.3987 140.093L62.9508 142.817C57.5059 145.11 50.0549 148.216 42.0309 151.895C32.4784 156.339 25.1708 159.875 20.4901 162.455C18.2089 163.934 15.8314 165.259 13.3735 166.421C13.0869 166.421 14.472 163.984 18.8184 160.83C25.7633 156.229 33.2158 152.446 41.0279 149.554Z" fill="#7D7A7C"/>
<path d="M26.1738 156.865C29.4573 154.814 33.1066 153.419 36.9203 152.755C33.8753 155.083 30.5545 157.024 27.0335 158.537C23.7916 160.557 20.3505 162.238 16.7646 163.554C19.3779 160.667 22.5888 158.384 26.1738 156.865Z" fill="#F9E6CF"/>
<path opacity="0.5" d="M44.2757 157.629C50.8669 154.476 57.076 151.848 61.5656 149.984L66.7717 147.834C67.4318 147.542 68.1199 147.317 68.8255 147.165C68.8255 147.165 68.2046 147.643 67.0105 148.312L61.9955 151.035L45.422 160.161C37.7322 164.414 31.9052 167.615 28.0842 169.718C26.2265 171.028 24.223 172.118 22.114 172.967C21.4453 172.25 27.0812 165.608 44.2757 157.629Z" fill="#7D7A7C"/>
<path d="M32.3828 164.509C34.999 162.641 37.9759 161.339 41.1233 160.687C41.4099 161.165 37.8277 163.458 33.3381 166.086C30.7539 167.923 27.9241 169.387 24.9319 170.434C24.5976 170.004 27.8454 167.137 32.3828 164.509Z" fill="#F9E6CF"/>
<path opacity="0.5" d="M52.4431 159.014C57.7924 156.243 62.7597 153.854 66.3897 152.182L70.736 150.271C71.2698 150.005 71.8302 149.797 72.4077 149.649C71.9829 150.067 71.5004 150.421 70.9748 150.701L66.915 153.233L53.6849 161.26C47.6476 165.417 41.2543 169.03 34.5799 172.059C34.1023 171.485 38.6875 166.086 52.4431 159.014Z" fill="#7D7A7C"/>
<path d="M42.8905 164.939C46.5682 162.646 49.7683 161.308 50.0549 161.738C50.3415 162.168 47.4757 164.271 43.8458 166.516C41.7796 168.119 39.4302 169.319 36.9203 170.052C36.7292 169.718 39.3561 167.329 42.8905 164.939Z" fill="#F9E6CF"/>
<path opacity="0.5" d="M44.7055 115.534C52.0609 115.534 58.7954 116.012 63.8104 116.49L69.5897 117.159C70.3001 117.224 71.0034 117.352 71.6912 117.541C70.9765 117.612 70.2566 117.612 69.5419 117.541H63.6194C58.8432 117.541 52.0132 117.541 44.7533 118.019C38.1866 118.317 31.6457 119.035 25.1707 120.169C20.8721 121.029 18.8183 121.985 18.5795 121.602C18.3407 121.22 19.8691 119.691 24.12 118.162C30.7914 116.163 37.7461 115.275 44.7055 115.534Z" fill="#7D7A7C"/>
<path d="M30.9978 117.159C34.1381 116.411 37.4099 116.411 40.5502 117.159C37.5564 118.235 34.4155 118.848 31.2366 118.974C28.1742 119.676 25.059 120.124 21.9229 120.312C21.6841 119.595 25.6961 117.78 30.9978 117.159Z" fill="#F9E6CF"/>
<path opacity="0.5" d="M57.2193 123.8C62.4731 123.274 67.2971 123.083 70.7838 123.083C72.6976 123.009 74.6143 123.089 76.5152 123.322C74.6677 123.794 72.7814 124.098 70.8793 124.23C67.4404 124.708 62.6642 125.377 57.6014 126.332C51.44 127.527 46.8548 128.626 43.8936 129.534C40.9323 130.442 39.4994 131.206 39.1173 130.919C38.7352 130.633 39.7382 129.199 42.604 127.622C47.185 125.421 52.1472 124.123 57.2193 123.8Z" fill="#7D7A7C"/>
<path d="M47.6668 126.141C51.3445 125.138 54.449 125.09 54.5446 125.568C54.6401 126.046 51.6788 126.954 48.1444 127.957C46.0491 128.782 43.8448 129.297 41.601 129.486C41.2666 128.96 43.9413 127.145 47.6668 126.141Z" fill="#F9E6CF"/>
<path opacity="0.5" d="M96.5277 105.835C99.2496 106.423 101.93 107.189 104.552 108.128C105.673 108.473 106.748 108.954 107.752 109.561C107.752 109.848 102.402 108.893 96.1456 108.367C92.3424 108.406 88.5419 108.15 84.7781 107.602C84.7781 107.22 85.3035 106.503 87.3095 105.787C90.3429 105.074 93.5019 105.091 96.5277 105.835Z" fill="#7D7A7C"/>
<path d="M90.6529 105.739C92.9932 105.739 94.8082 106.408 94.7605 106.886C94.7127 107.364 92.85 107.555 90.6529 107.602C88.4558 107.65 86.6886 107.602 86.5453 107.077C86.402 106.551 88.026 105.739 90.6529 105.739Z" fill="#F9E6CF"/>
<path opacity="0.5" d="M79.6198 90.927C83.2383 92.1368 86.7524 93.6389 90.1275 95.4184C91.5664 96.0977 92.9276 96.9308 94.1873 97.903C92.6386 97.5695 91.1208 97.106 89.6499 96.5173C86.1595 95.2467 82.6042 94.1622 78.9989 93.2682C73.927 92.3097 68.7808 91.7981 63.6194 91.7392C63.6194 91.7392 63.6194 91.2614 64.2881 90.7836C65.1898 90.3272 66.1335 89.9592 67.1061 89.6847C71.314 88.9914 75.6302 89.4199 79.6198 90.927Z" fill="#7D7A7C"/>
<path d="M71.548 89.8757C74.748 90.1624 77.1839 91.0702 77.0884 91.6436C76.9929 92.217 74.4615 91.9781 71.4524 91.6436C69.9718 91.6436 68.5867 91.6436 67.5837 91.6436C66.5807 91.6436 65.9598 91.6436 65.912 91.2614C65.8642 90.8791 66.4374 90.688 67.4404 90.3057C68.7861 89.9901 70.1661 89.8456 71.548 89.8757Z" fill="#F9E6CF"/>
<path opacity="0.5" d="M66.1508 96.565C70.5392 97.6939 74.8474 99.1145 79.0466 100.817C80.8144 101.468 82.524 102.268 84.1572 103.207C82.2911 102.944 80.4526 102.512 78.6645 101.916C75.3212 101.104 70.6882 99.8619 65.6254 99.0974C61.0823 98.2919 56.483 97.8445 51.8699 97.7595C50.2879 98.0131 48.6756 98.0131 47.0936 97.7595C47.0936 97.3295 48.0966 96.4216 51.2967 95.5138C56.2654 94.7747 61.3356 95.1335 66.1508 96.565Z" fill="#7D7A7C"/>
<path d="M56.3118 95.6094C60.1328 95.6094 63.0463 96.804 62.9508 97.2818C62.8552 97.7596 59.894 97.6162 56.264 97.2818C54.4491 97.2818 52.8252 97.2818 51.4878 97.2818C50.1505 97.2818 49.5773 97.2818 49.4818 96.9951C49.3863 96.7084 50.1505 96.3262 51.3445 95.9439C52.9837 95.6561 54.6489 95.5439 56.3118 95.6094Z" fill="#F9E6CF"/>
<path opacity="0.5" d="M38.5442 102.299C46.7593 103.637 54.258 105.261 59.6074 106.599C62.3298 107.22 64.3836 107.794 66.0075 108.224C66.8161 108.381 67.6021 108.638 68.3479 108.988C67.5292 108.962 66.7143 108.866 65.912 108.701L59.4163 107.602C53.9236 106.79 46.425 105.643 38.2098 104.783C30.7588 103.883 23.2658 103.373 15.7615 103.254C13.2161 103.392 10.665 103.392 8.11957 103.254C8.11957 102.968 10.0778 101.582 15.0929 100.913C22.9363 100.275 30.8304 100.742 38.5442 102.299Z" fill="#7D7A7C"/>
<path d="M22.9737 101.248C26.6107 101.024 30.2545 101.561 33.6725 102.824C30.1069 103.313 26.4915 103.313 22.9259 102.824C19.3649 103.096 15.7883 103.096 12.2272 102.824C15.5976 101.325 19.3148 100.78 22.9737 101.248Z" fill="#F9E6CF"/>
<path opacity="0.5" d="M112.098 99.3363C113.646 100.303 114.953 101.61 115.919 103.159C116.683 104.306 116.97 105.118 116.874 105.166C115.024 103.817 113.058 102.634 111 101.63C109.638 101.147 108.187 100.968 106.749 101.104C105.65 101.104 104.982 101.104 104.791 100.865C104.6 100.626 104.791 99.7186 105.889 99.0496C106.842 98.495 107.935 98.227 109.036 98.2778C110.137 98.3287 111.2 98.6962 112.098 99.3363Z" fill="#7D7A7C"/>
<path d="M107.991 98.8108C109.662 98.8108 110.713 99.6231 110.522 100.005C110.331 100.388 109.28 100.483 108.086 100.626C106.892 100.77 105.841 100.626 105.603 100.34C105.364 100.053 106.367 98.9064 107.991 98.8108Z" fill="#F9E6CF"/>
<path opacity="0.5" d="M112.815 83.3297C114.617 86.6889 116.103 90.2078 117.257 93.8414C117.868 95.37 118.255 96.9796 118.403 98.6195C118.116 98.6195 115.394 91.9302 110.618 84.8586C108.613 81.6787 106.095 78.8532 103.167 76.497C101.208 75.0158 99.871 74.6813 99.9188 74.2991C99.9665 73.9168 101.304 73.3912 103.979 74.2991C107.862 76.2199 110.978 79.4043 112.815 83.3297Z" fill="#7D7A7C"/>
<path d="M107.37 76.9749C109.71 79.2206 110.761 81.753 110.379 81.753C109.997 81.753 108.229 80.1762 106.08 78.1216C103.931 76.067 101.877 74.9203 102.02 74.4425C102.164 73.9647 104.982 74.6336 107.37 76.9749Z" fill="#F9E6CF"/>
<path opacity="0.5" d="M159.049 130.872C152.601 127.049 146.296 125.234 146.392 124.899C147.811 124.916 149.223 125.109 150.595 125.473C153.885 126.167 157.089 127.225 160.147 128.626C163.663 130.06 166.579 132.657 168.41 135.984C168.788 136.87 169.045 137.802 169.174 138.756C169.174 139.472 169.174 139.807 168.792 139.855C168.41 139.902 167.932 138.995 166.595 137.322C164.474 134.749 161.92 132.566 159.049 130.872Z" fill="#7D7A7C"/>
<path d="M164.828 134.599C163.873 133.691 162.965 132.878 162.392 132.21C161.819 131.541 161.389 131.111 161.532 130.872C161.676 130.633 162.296 130.872 163.156 131.111C164.214 131.725 165.206 132.445 166.117 133.261C168.219 135.411 168.744 138.039 168.267 138.039C167.789 138.039 166.643 136.271 164.828 134.599Z" fill="#F9E6CF"/>
<path opacity="0.5" d="M144.29 136.796C144.013 134.638 143.384 132.539 142.427 130.585C143.519 131.17 144.474 131.978 145.232 132.958C145.989 133.938 146.531 135.067 146.821 136.271C148.254 141.049 146.2 143.486 145.627 143.295C145.054 143.104 144.481 141.049 144.29 136.796Z" fill="#7D7A7C"/>
<path d="M144.959 139.95C144.959 138.708 144.959 137.657 145.723 137.561C146.487 137.465 146.869 138.564 146.821 139.95C146.774 141.336 146.248 142.387 145.723 142.339C145.197 142.291 144.959 141.049 144.959 139.95Z" fill="#F9E6CF"/>
<path opacity="0.5" d="M135.263 154.81C135.086 150.55 134.543 146.314 133.639 142.148C134.431 143.178 135.03 144.344 135.406 145.588C136.606 148.507 137.393 151.578 137.747 154.714C138.143 158.079 137.717 161.489 136.505 164.653C135.645 166.803 134.69 167.615 134.403 167.52C134.117 167.424 134.833 163.554 135.263 154.81Z" fill="#7D7A7C"/>
<path d="M135.263 161.212C135.597 158.776 136.075 156.817 136.553 156.817C137.03 156.817 137.46 158.919 137.078 161.595C136.696 164.27 135.645 166.134 135.12 165.943C134.594 165.752 134.738 163.602 135.263 161.212Z" fill="#F9E6CF"/>
<path opacity="0.5" d="M104.408 180.564L111.334 165.226C112.289 163.315 113.053 161.69 113.579 160.448C114.104 159.206 114.439 158.728 114.534 158.776C114.422 159.408 114.262 160.031 114.056 160.639L112.433 165.417C110.952 169.574 108.946 174.973 106.797 181.28C101.399 196.093 97.2441 203.212 96.671 202.925C96.0978 202.639 97.5784 195.901 104.408 180.564Z" fill="#7D7A7C"/>
<path d="M100.205 191.935C101.006 189.197 102.373 186.658 104.217 184.482C104.065 187.341 103.282 190.131 101.925 192.652C101.147 195.4 99.7772 197.944 97.9128 200.106C98.0975 197.252 98.8785 194.469 100.205 191.935Z" fill="#F9E6CF"/>
<path opacity="0.5" d="M118.164 183.287C119.119 177.888 119.931 172.871 120.552 169.192C120.819 167.205 121.234 165.24 121.794 163.315C121.927 165.32 121.927 167.331 121.794 169.335C121.555 173.014 121.316 178.079 120.791 183.67C119.692 197.048 116.97 203.738 116.254 203.499C115.537 203.26 115.871 197.287 118.164 183.287Z" fill="#7D7A7C"/>
<path d="M117.113 193.608C117.782 189.738 118.498 186.584 119.024 186.632C119.672 189.009 119.672 191.517 119.024 193.895C118.403 197.765 117.495 200.871 116.922 200.775C116.451 198.402 116.517 195.953 117.113 193.608Z" fill="#F9E6CF"/>
<path opacity="0.5" d="M123.609 204.55C124.182 195.519 124.755 187.253 125.137 181.185C125.376 178.175 125.567 175.69 125.663 173.97C125.67 173.084 125.782 172.202 125.997 171.342C126.045 172.233 126.045 173.127 125.997 174.018C125.997 175.738 125.997 178.175 125.997 181.185C125.997 187.253 125.997 195.519 125.997 204.645C125.663 226.624 122.797 238.092 122.033 237.757C121.269 237.423 122.081 227.867 123.609 204.55Z" fill="#7D7A7C"/>
<path d="M122.988 221.464C122.96 217.52 123.507 213.592 124.612 209.806C125.343 213.683 125.424 217.656 124.851 221.56C124.871 225.53 124.209 229.473 122.892 233.218C122.386 229.314 122.419 225.359 122.988 221.464Z" fill="#F9E6CF"/>
<path opacity="0.5" d="M128.528 179.274C129.245 173.97 129.77 169.048 129.961 165.417C130.022 163.45 130.197 161.487 130.487 159.54C130.636 160.054 130.732 160.583 130.773 161.117C130.773 162.12 131.012 163.601 131.108 165.417C131.426 170.19 131.426 174.979 131.108 179.751C130.865 184.841 129.7 189.843 127.669 194.516C127.018 195.656 126.3 196.757 125.519 197.812C124.946 198.481 124.469 198.673 124.325 198.577C124.182 198.481 126.379 193.082 128.528 179.274Z" fill="#7D7A7C"/>
<path d="M127.143 189.308C127.441 186.973 128.187 184.717 129.34 182.666C129.914 182.666 129.818 185.915 128.911 189.785C128.438 191.425 127.831 193.024 127.096 194.563C126.379 195.71 125.806 196.331 125.615 196.188C125.424 196.045 125.615 195.28 125.854 194.086C126.093 192.891 126.522 191.123 127.143 189.308Z" fill="#F9E6CF"/>
<path opacity="0.5" d="M144.577 154.858C143.717 150.605 142.762 146.735 142.045 143.916L141.09 140.619C141.032 140.191 141.032 139.757 141.09 139.329C142.017 140.635 142.786 142.047 143.383 143.534C144.893 147.023 146.201 150.596 147.299 154.236C150.308 164.462 149.926 170.148 149.305 170.243C148.684 170.339 146.63 165.847 144.577 154.858Z" fill="#7D7A7C"/>
<path d="M146.678 162.694C146.009 159.636 145.914 157.103 146.392 156.96C146.869 156.817 147.824 159.254 148.493 162.312C149.162 165.37 149.114 167.997 148.493 168.045C147.872 168.093 147.347 165.752 146.678 162.694Z" fill="#F9E6CF"/>
<path opacity="0.5" d="M136.314 207.942C135.979 201.062 135.645 194.659 135.406 189.977C135.406 187.683 135.406 185.772 135.167 184.482C135.105 183.798 135.105 183.111 135.167 182.427C135.431 183.05 135.592 183.712 135.645 184.386C135.645 185.724 136.17 187.588 136.553 189.881C137.269 194.659 138.176 200.823 138.893 207.751C140.803 224.618 138.893 233.553 137.985 233.409C137.078 233.266 137.173 225.764 136.314 207.942Z" fill="#7D7A7C"/>
<path d="M137.364 220.795C136.963 217.779 137.141 214.714 137.89 211.765C138.997 214.622 139.454 217.691 139.227 220.747C139.716 223.778 139.437 226.883 138.415 229.778C137.585 226.86 137.23 223.827 137.364 220.795Z" fill="#F9E6CF"/>
<path opacity="0.5" d="M105.316 35.9311C107.8 44.3405 109.758 52.1288 111.095 57.8147C111.764 60.6338 112.289 62.9751 112.624 64.5996C112.871 65.4226 113.016 66.2733 113.053 67.132C112.685 66.3131 112.381 65.4663 112.146 64.5996L109.997 58.0536C108.182 52.4633 105.746 44.8661 102.88 36.6C99.3934 26.6616 96.671 19.16 94.6649 14.2864C93.4858 11.8706 92.4648 9.38073 91.6082 6.83257C91.847 6.54588 93.9007 8.17043 96.3844 12.853C100.191 20.1982 103.186 27.9366 105.316 35.9311Z" fill="#7D7A7C"/>
<path d="M99.5367 20.4022C101.213 23.8469 102.233 27.5735 102.546 31.3918C100.493 28.1844 98.8859 24.7123 97.7695 21.0711C96.1683 17.6457 94.8891 14.0786 93.9485 10.416C96.5598 13.2665 98.4728 16.6852 99.5367 20.4022Z" fill="#F9E6CF"/>
<path opacity="0.5" d="M95.8112 84.5243C98.2275 86.7193 100.434 89.1347 102.402 91.7392C103.292 92.7872 104.046 93.9431 104.647 95.1794C104.408 95.1794 100.11 90.7836 94.2351 86.5311C91.7088 84.6055 88.8856 83.1046 85.8767 82.0875C83.9184 81.5619 82.7721 81.753 82.6288 81.3708C82.4855 80.9885 83.2975 79.9374 85.8767 79.8418C89.6561 80.1084 93.1994 81.7785 95.8112 84.5243Z" fill="#7D7A7C"/>
<path d="M89.5066 80.9884C92.1335 82.0873 93.6142 83.8552 93.3276 84.2375C93.041 84.6197 91.0828 83.6641 88.7902 82.7085C86.4976 81.7529 84.5871 81.4662 84.4916 80.9406C84.396 80.415 86.8797 79.7938 89.5066 80.9884Z" fill="#F9E6CF"/>
<path opacity="0.5" d="M44.6578 87.5344C54.2102 90.9268 63.0463 94.4149 69.3987 97.0906L76.8496 100.292C77.7828 100.683 78.6919 101.13 79.572 101.63C78.5791 101.423 77.6047 101.135 76.6585 100.77L68.9688 98.0462C62.5209 95.8483 53.5893 92.8381 43.8458 89.8757C32.0008 86.308 23.0374 83.8075 16.9556 82.3741C13.8453 81.8704 10.7673 81.1844 7.73749 80.3195C7.73749 79.985 10.6032 79.3161 16.7646 80.3195C26.2835 81.7686 35.6297 84.1861 44.6578 87.5344Z" fill="#7D7A7C"/>
<path d="M26.126 82.3742C30.5317 83.2671 34.7598 84.8815 38.6397 87.1523C34.2231 86.6544 29.8794 85.6442 25.6961 84.1421C21.3507 83.2903 17.0728 82.1246 12.8958 80.6541C17.3776 80.2955 21.8847 80.8815 26.126 82.3742Z" fill="#F9E6CF"/>
<path opacity="0.5" d="M44.4668 97.2816C53.255 99.5273 61.1836 102.06 66.915 103.875L73.7451 106.169C74.5807 106.423 75.3951 106.743 76.1809 107.124C75.3081 107.047 74.4446 106.887 73.6018 106.647L66.7718 104.974C60.897 103.589 52.8252 101.63 44.0369 99.7662C33.3859 97.5205 25.3141 95.9438 19.8691 94.9882C17.0869 94.7881 14.3244 94.3728 11.6063 93.7459C11.6063 93.4114 14.0421 92.5513 19.5348 92.6947C27.9852 93.3296 36.3435 94.8674 44.4668 97.2816Z" fill="#7D7A7C"/>
<path d="M27.7977 94.1759C31.7402 94.5128 35.5821 95.5993 39.1174 97.3773C35.2082 97.414 31.3095 96.9646 27.5111 96.0394C23.6272 95.6588 19.7887 94.9068 16.0482 93.7937C19.9461 93.0682 23.9551 93.1986 27.7977 94.1759Z" fill="#F9E6CF"/>
<path opacity="0.5" d="M62.8552 80.2717C69.2076 83.3774 74.8913 86.5787 78.9034 89.0156C80.9094 90.2101 82.5333 91.2135 83.6796 91.978C84.2709 92.3261 84.8303 92.7259 85.3513 93.1725C84.6908 92.9814 84.0508 92.7253 83.4408 92.408L78.378 90.019C74.1271 88.0122 68.2524 85.2409 61.8045 82.6129C55.9524 80.1475 49.9737 77.9944 43.8936 76.1625C41.7511 75.8209 39.6528 75.2441 37.6367 74.4424C37.6367 74.1557 39.595 73.3912 43.8936 73.9168C50.5105 75.018 56.9107 77.1629 62.8552 80.2717Z" fill="#7D7A7C"/>
<path d="M50.3415 75.7804C53.3856 76.4401 56.2222 77.8344 58.6044 79.8418C55.5581 79.5395 52.5773 78.7658 49.7684 77.5483C46.8053 76.8701 43.9232 75.877 41.1711 74.5859C44.2793 74.1082 47.4592 74.5224 50.3415 75.7804Z" fill="#F9E6CF"/>
<path opacity="0.5" d="M169.652 123.466C162.487 121.65 156.135 120.933 156.183 120.647C157.531 120.354 158.915 120.257 160.29 120.36C163.58 120.3 166.869 120.492 170.129 120.933C173.749 121.277 177.211 122.58 180.16 124.708C182.118 126.38 182.357 127.861 182.022 128.005C178.048 126.113 173.906 124.594 169.652 123.466Z" fill="#7D7A7C"/>
<path d="M176.291 124.995C173.903 124.039 171.849 123.179 171.992 122.653C172.135 122.128 174.38 122.223 176.768 123.274C179.157 124.326 181.019 126.189 180.589 126.571C180.16 126.954 178.679 125.902 176.291 124.995Z" fill="#F9E6CF"/>
<path opacity="0.5" d="M143.191 69.76C141.52 76.1626 139.753 81.9441 138.415 86.101L136.696 90.8791C136.503 91.4934 136.247 92.0858 135.932 92.647C135.959 92.0015 136.055 91.3608 136.218 90.7358C136.457 89.4935 136.839 87.7734 137.269 85.6232C138.224 81.3229 139.514 75.4459 140.756 68.9955C142.236 61.2072 143.287 55.3779 143.908 51.4599C144.058 49.4352 144.426 47.4327 145.006 45.4873C145.389 45.4873 146.2 47.2074 146.248 51.2688C146.014 57.5369 144.987 63.7502 143.191 69.76Z" fill="#7D7A7C"/>
<path d="M145.341 57.5759C145.187 60.469 144.352 63.2849 142.905 65.7942C142.568 62.9455 142.779 60.0587 143.526 57.2892C143.691 54.4489 144.27 51.648 145.245 48.9753C146.086 51.776 146.119 54.7572 145.341 57.5759Z" fill="#F9E6CF"/>
<path opacity="0.5" d="M184.076 66.6065C178.44 71.7668 173.282 76.5449 169.509 80.0807C167.646 81.753 166.07 83.1386 165.019 84.142C164.472 84.6556 163.881 85.1193 163.252 85.5277C163.636 84.8671 164.101 84.2572 164.637 83.712L168.697 79.2206C172.231 75.4459 177.007 70.2856 182.261 64.8864C195.014 51.4122 202.56 45.4396 203.038 45.774C203.515 46.1085 198.452 53.0367 184.076 66.6065Z" fill="#7D7A7C"/>
<path d="M193.963 56.238C191.773 58.8095 189.135 60.9626 186.178 62.5928C185.796 62.2106 188.661 58.8181 192.53 54.9479C194.764 52.3451 197.471 50.1889 200.506 48.593C198.816 51.5239 196.598 54.116 193.963 56.238Z" fill="#F9E6CF"/>
<path opacity="0.5" d="M193.103 82.8042L174.285 92.3604L168.506 95.3706C167.813 95.7862 167.076 96.1228 166.308 96.374C166.92 95.8416 167.575 95.3621 168.267 94.9406L173.712 91.4048C178.488 88.4424 184.745 84.4766 191.909 80.3674C198.378 76.4917 205.17 73.1825 212.208 70.4768C216.984 68.7089 219.755 68.5655 219.802 68.9C219.85 69.2345 217.844 70.1423 213.545 72.2924L193.103 82.8042Z" fill="#7D7A7C"/>
<path d="M206.524 75.4937C203.451 77.3243 200.117 78.6776 196.638 79.5072C199.266 77.0415 202.348 75.1104 205.712 73.8213C208.8 71.9582 212.254 70.7847 215.838 70.3811C212.971 72.4865 209.84 74.2054 206.524 75.4937Z" fill="#F9E6CF"/>
<path opacity="0.5" d="M92.6112 75.4458C95.8775 79.0457 98.9391 82.8264 101.782 86.7698C102.992 88.3628 104.063 90.0573 104.982 91.8346C103.439 90.4982 102.002 89.0446 100.683 87.4866C98.1516 84.8108 94.6172 81.0839 90.6052 77.2615C87.0304 73.7589 83.2505 70.4721 79.2855 67.4186C76.6586 65.4118 75.0824 64.7429 75.1779 64.3606C75.2735 63.9784 76.9929 63.7873 79.9542 65.3162C84.7771 67.8593 89.0725 71.2969 92.6112 75.4458Z" fill="#7D7A7C"/>
<path d="M84.6348 68.5654C87.7871 71.0978 89.7932 73.7258 89.4111 74.0602C89.029 74.3947 86.4976 72.4835 83.4408 69.9989C80.384 67.5143 77.7571 65.7464 77.9481 65.2208C78.1392 64.6952 81.4825 65.9375 84.6348 68.5654Z" fill="#F9E6CF"/>
<path opacity="0.5" d="M48.3833 62.1628C56.4073 66.9409 63.4284 71.719 68.4435 75.3025C70.9749 77.0704 73.2197 78.5516 74.366 79.6506C75.1194 80.1561 75.823 80.7321 76.4675 81.3707C75.6314 81.0004 74.8319 80.5525 74.0794 80.0328L67.8225 76.2581C62.5209 73.0568 55.261 68.7088 47.1415 64.5996C39.8255 60.4932 32.2648 56.8391 24.5021 53.6578C21.7502 52.854 19.067 51.8315 16.478 50.5998C16.478 50.2654 19.1527 49.9787 24.6454 51.3643C33.0194 53.8476 41.0082 57.4818 48.3833 62.1628Z" fill="#7D7A7C"/>
<path d="M32.7172 54.6134C36.5525 55.9552 40.0893 58.0327 43.1294 60.7293C39.2636 59.696 35.5294 58.221 32.0007 56.3335C28.2453 55.0048 24.59 53.408 21.0632 51.5554C25.1334 51.649 29.125 52.6964 32.7172 54.6134Z" fill="#F9E6CF"/>
<path opacity="0.5" d="M104.982 66.1763C107.422 70.2831 109.592 74.5446 111.477 78.9338C112.39 80.7602 113.141 82.6627 113.722 84.6198C112.516 82.9808 111.43 81.2562 110.474 79.4594C108.516 76.2581 105.698 71.8623 102.641 67.3709C99.8893 63.2661 96.685 59.4836 93.0888 56.0946C90.6051 53.9922 88.9812 53.4666 89.029 53.0844C89.0767 52.7022 90.8917 52.3677 94.0918 54.0878C98.6717 57.1468 102.415 61.3022 104.982 66.1763Z" fill="#7D7A7C"/>
<path d="M98.0083 57.9581C100.826 60.9683 102.355 63.9307 101.925 64.2174C101.495 64.504 99.3457 62.115 96.671 59.4393C93.9963 56.7635 91.5126 54.6612 91.6559 54.3745C91.7992 54.0878 95.4292 55.0434 98.0083 57.9581Z" fill="#F9E6CF"/>
<path opacity="0.5" d="M61.9955 59.2005C69.5419 65.0775 76.3242 70.9068 80.7183 75.2071C83.0587 77.3572 84.9214 79.1729 86.1632 80.4152C86.8764 81.0248 87.5174 81.7141 88.0737 82.4698C87.302 81.9661 86.5677 81.4072 85.8766 80.7974L79.9541 76.0194C75.1779 72.1013 68.2046 66.7021 60.5148 61.1595C53.5841 56.1053 46.3417 51.4932 38.8307 47.3508C33.7202 44.6751 30.8544 44.1017 30.9022 43.6717C30.95 43.2417 33.7679 43.0506 39.2128 45.1051C47.4454 48.6826 55.1187 53.43 61.9955 59.2005Z" fill="#7D7A7C"/>
<path d="M47.0937 49.4532C50.7201 51.3525 53.9598 53.9129 56.6461 57.0025C52.9374 55.3989 49.4141 53.3962 46.1384 51.0299C40.3592 47.4942 35.3919 45.4874 35.5352 44.8662C39.714 45.392 43.691 46.9703 47.0937 49.4532Z" fill="#F9E6CF"/>
<path opacity="0.5" d="M79.6198 53.8012C84.8737 59.8216 89.1723 65.5553 92.5634 69.76L96.3366 74.8248C96.8314 75.4229 97.2486 76.0811 97.5785 76.7838C96.9818 76.2845 96.423 75.7414 95.9068 75.1593L91.7037 70.3812C88.1215 66.5109 83.2498 61.1117 77.7093 55.4258C71.0704 48.6887 65.912 43.6717 62.3299 40.7093C60.3825 39.2372 58.5319 37.6412 56.7894 35.9312C56.7894 35.549 59.2253 35.9312 63.2851 38.6069C69.357 42.9522 74.8467 48.0587 79.6198 53.8012Z" fill="#7D7A7C"/>
<path d="M68.921 43.4327C71.6698 45.5771 73.9326 48.2805 75.56 51.3643C72.6112 49.5822 69.9399 47.3767 67.6315 44.8183C64.9567 42.6872 62.4935 40.303 60.2761 37.699C63.6064 38.827 66.5858 40.8031 68.921 43.4327Z" fill="#F9E6CF"/>
<path opacity="0.5" d="M121.746 33.9242C123.131 42.8115 124.039 50.982 124.564 56.9546C124.851 59.917 125.042 62.3538 125.185 64.074C125.258 64.9484 125.258 65.8274 125.185 66.7019C124.942 65.8544 124.75 64.9927 124.612 64.1217C124.325 62.4494 123.896 60.0604 123.37 57.1457C122.415 51.2209 120.982 43.1459 119.31 34.4021C117.161 23.7947 115.298 15.8631 113.818 10.5116C112.337 5.16017 111.047 2.86669 111.334 2.62778C111.621 2.38888 113.627 4.20455 115.728 9.26932C118.684 17.2262 120.703 25.5002 121.746 33.9242Z" fill="#7D7A7C"/>
<path d="M117.877 17.5354C119.142 21.2537 119.709 25.1739 119.549 29.0983C117.912 25.5738 116.756 21.8455 116.11 18.0132C114.916 14.3459 114.005 10.592 113.388 6.78467C115.748 9.94265 117.291 13.636 117.877 17.5354Z" fill="#F9E6CF"/>
<path opacity="0.5" d="M95.9546 48.5452C98.9158 54.5656 101.256 60.2037 102.88 64.5995C103.692 66.7019 104.313 68.3742 104.743 69.3776C105.011 69.9889 105.204 70.6307 105.316 71.2888C104.877 70.7122 104.538 70.0662 104.313 69.3776L101.829 64.5995C99.7755 60.6815 97.0531 55.0434 93.662 49.5008C90.7607 44.2481 87.5716 39.1596 84.1095 34.2587C81.8169 31.0096 80.2407 29.7673 80.384 29.4806C80.5273 29.1939 82.6289 29.4806 85.5424 32.5386C89.8656 37.2679 93.3832 42.6754 95.9546 48.5452Z" fill="#7D7A7C"/>
<path d="M89.2678 37.8901C91.1363 40.1732 92.4156 42.8804 92.9933 45.774C92.5156 46.0606 90.3663 42.8593 87.6916 38.9413C85.8437 36.716 84.2423 34.2969 82.9154 31.7264C83.393 31.153 86.5931 33.8287 89.2678 37.8901Z" fill="#F9E6CF"/>
<path opacity="0.5" d="M96.3844 39.3235C100.54 49.3575 103.835 58.7226 105.937 65.5552L108.564 73.7258C108.896 74.7278 109.167 75.749 109.376 76.7837C108.868 75.8652 108.437 74.9063 108.086 73.9169L104.982 65.9853C102.259 59.2959 98.4859 50.1698 93.9963 40.3747C90.0132 31.442 85.4005 22.8037 80.1929 14.5253C76.6108 9.07826 73.9838 7.02369 74.1749 6.737C74.3659 6.45032 77.4227 7.54928 81.6258 12.6618C87.7525 20.8246 92.7193 29.7971 96.3844 39.3235Z" fill="#7D7A7C"/>
<path d="M87.0707 21.5969C89.669 25.5395 91.5601 29.9052 92.6589 34.4978C89.9027 30.7229 87.4891 26.7093 85.4468 22.5048C81.7213 15.8155 77.9959 10.894 78.2824 10.5596C82.0512 13.4836 85.0647 17.2683 87.0707 21.5969Z" fill="#F9E6CF"/>
<path opacity="0.5" d="M86.9275 51.4599C91.7037 59.8216 95.9545 67.6576 98.9158 73.3913C100.301 76.2582 101.495 78.6472 102.307 80.2718C102.738 81.1093 103.121 81.9708 103.453 82.852C102.86 82.1195 102.333 81.336 101.877 80.5107L97.865 74.1558C94.5217 68.661 89.9365 61.0639 84.7304 52.9889C78.4258 43.0027 73.5063 35.9312 70.0196 31.1531C66.533 26.375 64.3836 24.2726 64.5747 23.9382C64.7657 23.6037 67.3449 24.7982 71.3569 29.1463C77.3084 36.0225 82.5268 43.5008 86.9275 51.4599Z" fill="#7D7A7C"/>
<path d="M76.7063 36.4568C79.3763 39.7288 81.4755 43.428 82.9154 47.3986C79.9677 44.4373 77.386 41.1327 75.2257 37.5558C72.6255 34.2998 70.2783 30.8495 68.2046 27.2351C71.6602 29.6711 74.5582 32.8145 76.7063 36.4568Z" fill="#F9E6CF"/>
<path opacity="0.5" d="M77.5183 126.715C81.7469 125.844 86.0201 125.206 90.3186 124.803C92.1145 124.654 93.9198 124.654 95.7157 124.803C94.056 125.255 92.3631 125.575 90.6529 125.759C87.4528 126.524 83.0109 127.575 78.3302 129.008C72.6465 130.728 68.4912 132.257 65.7687 133.356C63.0463 134.455 61.6134 135.124 61.4224 134.933C61.2313 134.742 61.9477 133.404 64.4314 131.541C68.4726 129.167 72.9041 127.533 77.5183 126.715Z" fill="#7D7A7C"/>
<path d="M68.6822 129.725C72.0733 128.387 74.9868 128.053 75.1301 128.53C75.2734 129.008 72.5987 130.155 69.3987 131.445C67.727 132.066 66.3419 132.735 65.1956 133.022C64.0493 133.308 63.4761 133.691 63.2851 133.452C63.094 133.213 63.6194 132.64 64.5747 131.875C65.8679 131.022 67.2441 130.301 68.6822 129.725Z" fill="#F9E6CF"/>
<path opacity="0.5" d="M43.9413 133.977C51.2628 132.138 58.6763 130.686 66.1508 129.629C69.0643 129.199 71.4047 128.913 73.0286 128.769C73.8866 128.692 74.7498 128.692 75.6078 128.769L73.1241 129.438L66.3896 130.967C60.7059 132.257 52.9207 134.073 44.61 136.605C37.0649 138.8 29.7414 141.696 22.7349 145.254C17.9586 147.834 16.3347 149.793 16.0004 149.554C15.666 149.315 16.7646 146.926 21.1109 143.677C28.0498 139.048 35.7931 135.758 43.9413 133.977Z" fill="#7D7A7C"/>
<path d="M28.5619 139.711C31.9695 137.927 35.7101 136.869 39.5472 136.605C36.3254 138.568 32.8978 140.17 29.3261 141.384C23.7857 143.916 19.4393 146.592 19.0094 146.257C18.5796 145.923 22.6871 142.291 28.5619 139.711Z" fill="#F9E6CF"/>
<path opacity="0.5" d="M41.6965 130.155C51.5355 128.578 60.5626 127.575 67.1538 126.954L74.9868 126.237H77.9003C76.9876 126.55 76.0422 126.759 75.0824 126.858L67.3449 128.196C60.8014 129.295 51.8221 130.824 42.1264 132.974C30.4246 135.363 21.6363 137.418 15.8571 139.138C10.0778 140.858 7.35537 142.148 7.16432 141.861C6.97327 141.574 9.02705 139.52 14.5675 137.083C23.3234 133.767 32.4232 131.443 41.6965 130.155Z" fill="#7D7A7C"/>
<path d="M23.7857 134.407C27.8976 133.052 32.2098 132.406 36.5382 132.496C32.5412 134.228 28.3584 135.495 24.0722 136.271C19.9927 137.578 15.8274 138.6 11.6063 139.329C15.2715 136.843 19.4231 135.166 23.7857 134.407Z" fill="#F9E6CF"/>
<path opacity="0.5" d="M38.783 109.227C48.3355 110.278 56.6939 111.425 62.6642 112.381L70.0196 113.575C70.9426 113.683 71.8539 113.875 72.742 114.148C71.8205 114.233 70.8933 114.233 69.9718 114.148L62.5209 113.623L38.3054 111.903C26.9857 111.186 18.4362 110.66 12.7048 110.469C9.79748 110.544 6.88916 110.368 4.01202 109.944C4.01202 109.609 6.49567 108.606 12.1316 108.224C21.0279 107.819 29.9423 108.155 38.783 109.227Z" fill="#7D7A7C"/>
<path d="M21.2065 108.463C25.3137 108.302 29.4177 108.851 33.3381 110.087C29.2904 110.701 25.1796 110.782 21.1109 110.326C17.0455 110.406 12.9822 110.086 8.97931 109.37C12.9542 108.258 17.1109 107.949 21.2065 108.463Z" fill="#F9E6CF"/>
<path opacity="0.5" d="M137.985 73.1524C136.744 78.5994 135.454 83.5686 134.499 87.1522C134.033 89.1358 133.426 91.0838 132.684 92.9814C132.741 90.9597 132.964 88.9461 133.352 86.9611C133.878 83.2342 134.642 78.1694 135.454 72.6268C136.023 65.8144 137.336 59.0849 139.37 52.5589C140.182 52.5111 141.233 59.057 137.985 73.1524Z" fill="#7D7A7C"/>
<path d="M139.37 62.7362C138.797 66.7498 137.794 69.8556 137.269 69.76C136.721 67.3702 136.721 64.8872 137.269 62.4973C137.387 60.0468 137.987 57.6436 139.036 55.4258C139.8 55.4736 139.991 58.7704 139.37 62.7362Z" fill="#F9E6CF"/>
<path opacity="0.5" d="M131.728 49.1186C131.155 58.1492 130.439 66.4153 129.818 72.4357C129.484 75.4459 129.245 77.8827 129.054 79.555C129.029 80.4463 128.884 81.3303 128.624 82.183C128.543 81.3088 128.543 80.4292 128.624 79.555C128.624 77.8349 128.624 75.3981 128.624 72.3879C128.624 66.3197 128.91 58.0537 129.102 49.0231C129.388 38.129 129.531 29.9107 129.675 24.3204C129.533 21.5223 129.709 18.7171 130.2 15.9587C131.06 15.7676 133.352 25.8016 131.728 49.1186Z" fill="#7D7A7C"/>
<path d="M131.824 32.2041C132.106 36.1459 131.702 40.1068 130.63 43.9104C129.874 40.0572 129.649 36.1185 129.961 32.2041C129.737 28.2874 129.978 24.3579 130.678 20.4978C131.808 24.2901 132.197 28.2646 131.824 32.2041Z" fill="#F9E6CF"/>
<path opacity="0.5" d="M138.415 46.5861C137.126 55.5689 135.788 63.7873 134.69 69.7121C134.26 72.6745 133.639 75.1113 133.639 76.7836C133.482 77.655 133.275 78.5165 133.018 79.3638C132.903 78.4916 132.903 77.6081 133.018 76.7359C133.018 75.0158 133.4 72.5789 133.687 69.5687C134.308 63.5483 135.12 55.2345 136.027 46.2995C137.078 35.4054 137.89 27.1871 138.463 21.6445C138.519 18.8223 138.904 16.0161 139.609 13.2829C140.421 13.1873 141.95 23.4124 138.415 46.5861Z" fill="#7D7A7C"/>
<path d="M139.896 29.6717C139.863 33.6295 139.169 37.5538 137.842 41.2825C137.34 37.3742 137.421 33.4131 138.081 29.5284C138.147 25.5938 138.676 21.6807 139.657 17.8699C140.472 21.7545 140.553 25.7573 139.896 29.6717Z" fill="#F9E6CF"/>
<path opacity="0.5" d="M151.55 72.3878C149.21 77.596 146.774 82.3263 145.197 85.7187C144.324 87.5877 143.319 89.3921 142.188 91.1179C142.667 89.105 143.322 87.1384 144.147 85.2409C145.436 81.6095 147.204 76.7359 149.162 71.4322C151.225 64.8187 153.698 58.3399 156.565 52.0332C157.52 52.0332 157.52 58.9614 151.55 72.3878Z" fill="#7D7A7C"/>
<path d="M154.941 62.2584C153.604 66.1286 152.027 69.091 151.55 68.8999C151.548 66.404 152.103 63.9391 153.174 61.685C154.511 57.8625 155.61 54.8046 156.135 54.9001C156.442 57.4165 156.028 59.9683 154.941 62.2584Z" fill="#F9E6CF"/>
<path opacity="0.5" d="M141.615 167.424C140.612 162.359 139.466 157.868 138.511 154.332C137.911 152.518 137.432 150.667 137.078 148.79C137.078 148.79 137.412 149.267 137.89 150.175C138.367 151.083 138.893 152.325 139.609 153.95C141.375 158.152 142.874 162.46 144.099 166.851C147.633 179.369 145.054 186.536 144.099 186.202C143.144 185.867 143.812 185.772 143.765 185.055C143.593 183.931 143.482 182.799 143.43 181.663C143.116 176.884 142.51 172.129 141.615 167.424Z" fill="#7D7A7C"/>
<path d="M143.574 176.884C143.066 174.651 143.066 172.333 143.574 170.1C144.099 170.1 145.102 172.919 145.484 176.693C145.866 180.468 145.15 183.622 144.624 183.574C143.897 181.42 143.542 179.158 143.574 176.884Z" fill="#F9E6CF"/>
<path opacity="0.5" d="M144.624 195.041L138.941 172.441C138.224 169.526 137.651 167.137 137.269 165.465C137.032 164.619 136.857 163.756 136.744 162.885C137.157 163.662 137.493 164.478 137.747 165.322C138.272 166.946 139.084 169.287 140.087 172.106C141.997 177.84 144.529 185.724 147.06 194.372C153.46 215.348 154.034 227.054 153.126 227.054C152 224.675 151.212 222.15 150.786 219.553C149.448 214.201 147.442 206.318 144.624 195.041Z" fill="#7D7A7C"/>
<path d="M149.114 211.287C147.928 207.542 147.268 203.65 147.156 199.724C149.042 203.191 150.318 206.957 150.929 210.857C152.166 214.613 152.684 218.568 152.457 222.515C150.893 218.922 149.77 215.151 149.114 211.287Z" fill="#F9E6CF"/>
<path opacity="0.5" d="M153.317 179.274C150.547 172.25 147.777 165.895 145.771 161.212L143.43 155.383C143.123 154.719 142.868 154.032 142.666 153.329C142.666 153.329 143.191 153.95 143.908 155.192L146.821 160.448C149.257 164.892 152.457 171.055 155.657 177.984C158.761 184.251 161.179 190.835 162.87 197.621C163.92 202.4 163.586 204.789 163.252 204.789C162.917 204.789 160.72 197.096 153.317 179.274Z" fill="#7D7A7C"/>
<path d="M158.858 191.983C157.456 188.963 156.553 185.736 156.183 182.427C158.271 185.027 159.785 188.039 160.625 191.267C162.037 194.248 162.708 197.526 162.583 200.823C160.989 198.038 159.738 195.07 158.858 191.983Z" fill="#F9E6CF"/>
<path opacity="0.5" d="M170.034 164.605C166.834 159.827 163.538 155.861 161.15 152.851C159.788 151.331 158.512 149.736 157.329 148.073C157.329 148.073 157.854 148.359 158.666 149.076C159.478 149.793 160.625 150.844 162.01 152.182C165.599 155.628 168.965 159.298 172.088 163.172C175.604 167.252 178.267 171.996 179.921 177.124C180.828 180.707 180.351 182.666 179.921 182.666C177.158 176.369 173.85 170.325 170.034 164.605Z" fill="#7D7A7C"/>
<path d="M176.004 173.253C174.141 169.717 172.518 166.803 172.947 166.516C173.377 166.229 175.67 168.714 177.724 172.393C179.777 176.072 180.16 179.608 179.634 179.704C179.109 179.799 177.915 176.789 176.004 173.253Z" fill="#F9E6CF"/>
<path opacity="0.5" d="M164.732 141.909C161.58 139.186 158.475 136.844 156.231 135.172C154.926 134.342 153.71 133.382 152.601 132.305C154.082 132.767 155.508 133.392 156.852 134.169C160.174 135.839 163.367 137.755 166.404 139.902C169.78 142.103 172.594 145.065 174.619 148.551C175.861 151.083 175.67 152.66 175.336 152.708C175.001 152.755 172.9 148.933 164.732 141.909Z" fill="#7D7A7C"/>
<path d="M170.607 146.878C168.649 144.68 167.025 142.865 167.359 142.435C167.694 142.004 169.891 143.295 172.135 145.636C174.38 147.977 175.097 150.414 174.619 150.701C174.142 150.987 172.613 149.028 170.607 146.878Z" fill="#F9E6CF"/>
<path opacity="0.5" d="M186.178 117.828C180.589 117.159 175.383 116.92 171.562 116.681C169.501 116.673 167.443 116.53 165.401 116.251C167.429 115.824 169.491 115.584 171.562 115.534C175.383 115.295 180.589 115.056 186.369 115.247C191.732 115.21 197.046 116.267 201.987 118.353C205.378 119.93 206.286 122.032 205.999 122.176C205.712 122.319 204.566 121.411 201.223 120.551C196.295 119.213 191.261 118.302 186.178 117.828Z" fill="#7D7A7C"/>
<path d="M196.494 118.879C192.626 118.019 189.378 117.35 189.425 116.824C191.892 116.15 194.505 116.233 196.924 117.063C201.032 117.875 203.945 119.978 203.659 120.408C201.23 120.108 198.833 119.597 196.494 118.879Z" fill="#F9E6CF"/>
<path opacity="0.5" d="M155.753 82.7085C153.031 86.4832 150.499 89.9234 148.589 92.2646C147.638 93.6614 146.567 94.9724 145.389 96.1827C145.954 94.5102 146.707 92.9073 147.633 91.4046C149.114 88.6811 151.216 84.9542 153.604 80.9406C159.287 71.3844 163.156 66.9886 163.968 67.3708C164.78 67.7531 162.774 72.9612 155.753 82.7085Z" fill="#7D7A7C"/>
<path d="M160.195 75.2547C158.38 78.026 156.565 80.0328 156.135 79.7939C155.705 79.555 156.804 77.0226 158.619 74.2513C160.434 71.4801 162.249 69.4733 162.679 69.7122C163.108 69.9511 162.01 72.4834 160.195 75.2547Z" fill="#F9E6CF"/>
<path opacity="0.5" d="M194.297 88.0123L175.574 96.1351L169.795 98.6197C169.106 98.9714 168.387 99.2593 167.646 99.4797C167.646 99.4797 168.314 98.9541 169.556 98.1896L175.049 95.0839C179.825 92.5515 186.082 89.1113 193.246 85.5277C199.759 82.2122 206.572 79.5244 213.593 77.5005C218.369 76.2582 221.044 76.4971 221.044 76.8794C221.044 77.2616 219.038 77.7872 214.692 79.5073C210.345 81.2274 203.706 84.0465 194.297 88.0123Z" fill="#7D7A7C"/>
<path d="M207.718 81.944C204.702 83.4281 201.483 84.4585 198.166 85.002C200.864 82.826 203.964 81.2024 207.288 80.2239C210.412 78.6424 213.866 77.8237 217.366 77.8348C214.326 79.5857 211.087 80.9653 207.718 81.944Z" fill="#F9E6CF"/>
<path opacity="0.5" d="M185.509 175.499C179.73 168.762 174.189 162.789 170.177 158.441L165.401 153.233C164.797 152.622 164.238 151.967 163.729 151.274C164.464 151.748 165.152 152.292 165.783 152.899L170.989 157.677C175.383 161.738 181.306 167.233 187.419 173.827C193.199 179.605 198.31 186.017 202.656 192.939C205.521 197.717 205.999 200.68 205.665 200.775C205.33 200.871 204.184 198.768 200.888 194.611C197.593 190.454 193.008 184.052 185.509 175.499Z" fill="#7D7A7C"/>
<path d="M196.446 187.874C193.853 184.982 191.638 181.77 189.855 178.318C193.049 180.552 195.788 183.374 197.927 186.632C200.591 189.493 202.568 192.925 203.706 196.666C201.05 193.939 198.622 190.999 196.446 187.874Z" fill="#F9E6CF"/>
<path opacity="0.5" d="M169.843 187.062C166.356 180.038 162.822 173.779 160.29 169.24L157.138 163.84C156.699 163.197 156.331 162.508 156.04 161.786C156.603 162.313 157.1 162.907 157.52 163.554C158.428 164.748 159.765 166.421 161.246 168.619C165.197 174.178 168.864 179.935 172.231 185.867C175.941 192.167 178.709 198.976 180.446 206.079C181.258 210.857 181.115 213.533 180.446 213.533C179.414 211.497 178.674 209.325 178.249 207.082C175.846 200.248 173.039 193.563 169.843 187.062Z" fill="#7D7A7C"/>
<path d="M176.243 200.154C174.763 197.118 173.672 193.907 172.995 190.598C175.233 193.201 176.864 196.269 177.771 199.58C178.592 201.875 179.262 204.222 179.777 206.604C179.777 208.515 179.777 209.662 179.777 209.71C179.777 209.758 179.109 208.659 178.536 206.939C177.962 205.219 177.246 202.782 176.243 200.154Z" fill="#F9E6CF"/>
<path opacity="0.5" d="M167.407 106.695C160.959 107.65 155.562 109.179 155.466 108.893C156.465 108.201 157.539 107.624 158.667 107.172C161.391 105.964 164.201 104.958 167.073 104.162C170.154 103.129 173.463 102.98 176.625 103.732C178.87 104.545 179.491 105.835 179.252 106.074C179.013 106.312 178.106 106.074 176.386 106.074C173.381 106.019 170.376 106.227 167.407 106.695Z" fill="#7D7A7C"/>
<path d="M173.282 105.595C171.037 105.595 169.079 105.596 168.983 105.07C168.888 104.544 170.75 103.78 173.234 103.732C175.718 103.684 178.01 104.735 177.485 105.213C176.959 105.691 175.527 105.452 173.282 105.595Z" fill="#F9E6CF"/>
<path opacity="0.5" d="M173.186 65.1252L161.532 79.4595L157.902 83.712C157.463 84.2713 156.967 84.7837 156.422 85.241C156.731 84.6926 157.099 84.1799 157.52 83.712L160.672 78.9339L171.18 63.644C181.163 49.3098 187.372 42.9071 187.945 43.3372C188.518 43.7672 184.745 50.6476 173.186 65.1252Z" fill="#7D7A7C"/>
<path d="M180.924 54.1835C177.867 58.2926 175.049 61.3506 174.619 61.0639C175.698 58.1141 177.318 55.3917 179.395 53.0368C182.5 48.9276 185.318 45.8696 185.748 46.1563C184.685 49.1242 183.045 51.8524 180.924 54.1835Z" fill="#F9E6CF"/>
<path opacity="0.5" d="M159.813 54.5656C155.801 62.5928 152.075 69.951 149.401 75.3503C148.015 77.9782 146.869 80.1284 146.105 81.6574C145.707 82.4489 145.261 83.2149 144.768 83.9508C144.998 83.0981 145.302 82.2668 145.675 81.4662C146.296 79.8895 147.204 77.596 148.35 74.8725C150.738 69.3777 153.938 61.7327 157.52 53.4667C166.165 33.542 171.849 23.8425 172.565 24.1292C173.282 24.4159 170.082 33.781 159.813 54.5656Z" fill="#7D7A7C"/>
<path d="M166.547 39.2279C165.191 42.8893 163.256 46.3093 160.816 49.3574C161.575 45.5162 162.945 41.8218 164.876 38.4156C166.232 34.7395 168.167 31.3037 170.607 28.2383C169.861 32.0981 168.489 35.8101 166.547 39.2279Z" fill="#F9E6CF"/>
<path opacity="0.5" d="M180.589 132.831C176.874 130.995 173.045 129.4 169.126 128.053C167.493 127.564 165.896 126.957 164.35 126.237C164.826 126.184 165.307 126.184 165.783 126.237C167.066 126.362 168.341 126.554 169.604 126.81C173.76 127.604 177.837 128.772 181.783 130.298C186.129 131.866 189.984 134.553 192.96 138.087C193.585 139.1 194.144 140.154 194.632 141.24C194.632 142.052 194.632 142.482 194.632 142.578C190.464 138.645 185.731 135.359 180.589 132.831Z" fill="#7D7A7C"/>
<path d="M188.327 136.892C187.124 136.11 185.975 135.248 184.888 134.312C183.933 133.643 183.455 133.117 183.551 132.879C183.646 132.64 184.41 132.879 185.509 133.165C186.889 133.805 188.215 134.556 189.473 135.411C190.65 136.385 191.694 137.509 192.578 138.756C193.151 139.807 193.39 140.523 193.199 140.667C193.008 140.81 192.387 140.38 191.623 139.616C190.858 138.851 189.521 138.039 188.327 136.892Z" fill="#F9E6CF"/>
<path opacity="0.5" d="M203.277 130.012C195.157 128.196 187.61 126.906 182.166 125.998L175.622 124.899C174.814 124.784 174.016 124.608 173.234 124.374C174.045 124.311 174.859 124.311 175.67 124.374L182.261 124.851C187.849 125.329 195.491 126.046 203.754 127.479C211.425 128.55 218.894 130.757 225.916 134.025C230.692 136.414 232.22 138.803 231.982 139.138C231.743 139.472 229.976 137.943 225.438 136.271C218.217 133.636 210.809 131.544 203.277 130.012Z" fill="#7D7A7C"/>
<path d="M218.322 133.404C214.804 132.612 211.402 131.375 208.196 129.725C211.852 129.606 215.494 130.241 218.895 131.588C222.474 132.393 225.772 134.142 228.447 136.653C225.016 135.754 221.636 134.669 218.322 133.404Z" fill="#F9E6CF"/>
<path opacity="0.5" d="M156.517 48.4497C153.174 57.7191 149.974 66.2241 147.538 72.3401C146.296 75.3981 145.293 77.8827 144.624 79.6028C144.326 80.5289 143.909 81.4123 143.383 82.2307C143.585 81.2934 143.84 80.3681 144.147 79.4594C144.672 77.6438 145.484 75.1114 146.439 71.9578C148.445 65.6508 151.216 57.0024 154.081 47.6374L162.296 21.8835C163.028 18.9029 164.102 16.017 165.496 13.283C166.308 13.3785 165.258 24.4637 156.517 48.4497Z" fill="#7D7A7C"/>
<path d="M161.867 30.7231C160.902 34.928 159.29 38.9576 157.09 42.6683C157.556 38.3997 158.567 34.2085 160.099 30.1975C161.071 26.0272 162.53 21.9858 164.446 18.1567C164.325 22.464 163.452 26.7169 161.867 30.7231Z" fill="#F9E6CF"/>
<path opacity="0.5" d="M182.595 149.22C177.819 146.305 173.759 143.82 170.607 142.052C168.846 141.15 167.14 140.144 165.496 139.042C166.023 139.116 166.537 139.261 167.025 139.472C168.028 139.807 169.413 140.285 171.085 141.001C175.488 142.758 179.779 144.785 183.933 147.069C188.433 149.447 192.502 152.564 195.969 156.291C198.118 159.11 198.739 160.735 198.357 161.069C197.975 161.404 194.154 156.912 182.595 149.22Z" fill="#7D7A7C"/>
<path d="M190.954 154.666C187.897 152.277 185.509 150.223 185.796 149.888C186.082 149.554 188.996 150.796 192.1 153.233C193.389 154.329 194.587 155.527 195.682 156.817C196.447 157.963 196.781 158.728 196.59 158.871C196.399 159.015 195.682 158.585 194.775 157.772C193.867 156.96 192.482 155.861 190.954 154.666Z" fill="#F9E6CF"/>
<path opacity="0.5" d="M214.119 107.603C208.339 107.603 202.99 108.319 199.073 108.701C196.968 109.004 194.847 109.18 192.721 109.227C193.228 108.951 193.777 108.757 194.345 108.654L198.882 107.555C203.863 106.444 208.902 105.614 213.975 105.07C219.414 104.264 224.955 104.491 230.31 105.739C233.988 106.838 235.421 108.415 235.086 108.654C234.752 108.893 233.367 108.654 230.071 108.033C224.773 107.468 219.439 107.324 214.119 107.603Z" fill="#7D7A7C"/>
<path d="M224.961 107.077C222.408 107.232 219.848 106.908 217.414 106.121C219.824 105.1 222.474 104.785 225.056 105.213C229.355 105.452 232.698 106.886 232.507 107.411C229.987 107.592 227.455 107.48 224.961 107.077Z" fill="#F9E6CF"/>
<path opacity="0.5" d="M207.384 96.5171L191.909 100.626L187.133 101.869C185.987 102.155 185.366 102.299 185.318 102.203C185.847 101.879 186.407 101.607 186.99 101.391L191.527 99.5273C195.396 97.9983 200.745 96.0393 206.62 94.0803C212.026 92.1699 217.61 90.8092 223.289 90.0189C227.158 89.5889 229.211 90.0189 229.164 90.449C222.054 92.9778 214.777 95.0055 207.384 96.5171Z" fill="#7D7A7C"/>
<path d="M218.417 93.2682C215.855 94.2202 213.119 94.6113 210.393 94.415C212.636 92.8383 215.224 91.8224 217.94 91.4526C220.539 90.51 223.347 90.2952 226.059 90.8314C223.667 92.0689 221.084 92.8928 218.417 93.2682Z" fill="#F9E6CF"/>
<path opacity="0.5" d="M192.052 67.0364C186.464 71.05 181.401 74.8725 177.724 77.596L173.33 80.8929C172.809 81.3354 172.23 81.7051 171.61 81.9919C172.018 81.4504 172.482 80.9538 172.995 80.5106L177.007 76.736C180.398 73.5824 185.127 69.3777 190.524 64.9819C195.386 60.846 200.688 57.2568 206.333 54.279C210.25 52.3677 212.686 52.2722 212.686 52.6066C212.686 52.9411 211.157 53.7534 207.909 56.0469C204.662 58.3403 199.312 61.8761 192.052 67.0364Z" fill="#7D7A7C"/>
<path d="M202.273 59.2482C199.954 61.182 197.299 62.6721 194.44 63.644C194.154 63.214 197.115 60.4427 201.223 57.6714C203.576 55.7027 206.412 54.3994 209.438 53.8967C209.677 54.3745 206.333 56.4769 202.273 59.2482Z" fill="#F9E6CF"/>
<path opacity="0.5" d="M205.903 138.899C200.172 136.605 194.727 134.933 190.715 133.738L185.939 132.353L184.219 131.732C184.219 131.732 184.888 131.732 186.034 131.732C187.181 131.732 188.9 132.114 190.811 132.448C196.139 133.415 201.402 134.707 206.572 136.319C212.242 137.865 217.496 140.656 221.952 144.489C224.865 147.356 225.39 149.554 225.008 149.697C224.626 149.841 223.623 148.503 220.805 146.448C216.167 143.328 211.162 140.793 205.903 138.899Z" fill="#7D7A7C"/>
<path d="M216.507 143.247C212.686 141.049 209.438 139.472 209.677 138.947C212.461 139.067 215.15 139.997 217.414 141.622C221.426 143.868 223.814 146.974 223.337 147.308C220.973 146.106 218.691 144.75 216.507 143.247Z" fill="#F9E6CF"/>
<path opacity="0.5" d="M183.264 166.229C177.867 160.878 172.613 156.243 168.935 152.899L164.159 148.885C163.563 148.437 163.019 147.924 162.535 147.356C163.212 147.667 163.853 148.052 164.446 148.503C165.64 149.315 167.359 150.462 169.222 151.991C173.377 155.001 178.774 159.253 184.792 164.366C190.272 168.936 195.094 174.242 199.121 180.134C201.509 184.291 202.226 186.68 201.844 186.871C201.462 187.062 200.22 185.342 197.545 181.758C194.87 178.175 190.285 173.11 183.264 166.229Z" fill="#7D7A7C"/>
<path d="M193.437 176.12C189.855 172.059 186.942 168.714 187.324 168.332C187.706 167.95 191.193 170.769 194.823 174.926C196.362 176.732 197.766 178.648 199.026 180.659C199.885 182.236 200.22 183.335 200.029 183.478C199.838 183.622 199.073 182.762 197.975 181.424C196.876 180.086 195.205 178.175 193.437 176.12Z" fill="#F9E6CF"/>
<path opacity="0.5" d="M170.225 177.792C166.882 172.106 163.634 166.946 161.293 163.171L158.571 158.68C158.2 158.145 157.896 157.568 157.663 156.96C158.158 157.376 158.592 157.858 158.953 158.393C159.765 159.397 160.911 160.782 162.249 162.503C164.971 166.038 168.649 170.912 172.374 176.407C181.927 189.594 183.551 198.386 182.786 198.529C182.022 198.673 179.109 192.413 170.225 177.792Z" fill="#7D7A7C"/>
<path d="M176.912 188.161C175.233 185.799 174.018 183.14 173.33 180.325C173.759 180.038 176.148 183.096 178.536 187.253C180.232 189.655 181.284 192.451 181.592 195.376C181.067 195.567 179.252 192.222 176.912 188.161Z" fill="#F9E6CF"/>
<path opacity="0.5" d="M200.506 152.612C195.73 149.888 191.288 147.834 188.04 145.97C186.217 145.172 184.46 144.23 182.786 143.151C184.743 143.579 186.66 144.17 188.518 144.919C193.006 146.48 197.407 148.283 201.7 150.318C206.409 152.366 210.7 155.266 214.357 158.871C216.793 161.451 217.128 163.649 216.841 163.649C216.554 163.649 215.551 162.694 213.068 160.782C209.059 157.794 204.863 155.065 200.506 152.612Z" fill="#7D7A7C"/>
<path d="M209.486 157.486C206.286 155.288 203.706 153.424 203.993 152.708C204.279 151.991 207.241 153.424 210.536 155.718C213.832 158.011 215.79 160.735 215.313 161.069C214.835 161.404 212.638 159.636 209.486 157.486Z" fill="#F9E6CF"/>
<path opacity="0.5" d="M188.04 75.3982L173.712 85.1933L169.317 88.2035C168.802 88.6031 168.241 88.94 167.646 89.2069C168.059 88.6987 168.523 88.2344 169.031 87.8212L172.995 84.2854C176.339 81.3708 181.067 77.4528 186.369 73.2958C191.198 69.4083 196.416 66.0298 201.939 63.2141C205.665 61.3506 207.909 61.0639 208.005 61.3984C201.626 66.4476 194.96 71.122 188.04 75.3982Z" fill="#7D7A7C"/>
<path d="M198.023 68.0399C194.058 70.6201 190.715 72.818 190.381 72.1491C190.046 71.4801 193.008 69.0911 197.02 66.4631C199.294 64.5703 202.03 63.317 204.948 62.8318C202.917 64.9089 200.582 66.665 198.023 68.0399Z" fill="#F9E6CF"/>
<path opacity="0.5" d="M103.788 205.935L110.092 186.011L112.05 179.895C112.224 179.123 112.514 178.381 112.91 177.697C112.838 178.485 112.71 179.267 112.528 180.038C112.194 181.519 111.764 183.669 111.191 186.297C109.997 191.553 108.325 198.816 106.414 206.652C101.638 225.764 96.862 234.89 96.05 234.508C95.2381 234.126 97.6262 225.86 103.788 205.935Z" fill="#7D7A7C"/>
<path d="M99.8233 220.508C100.603 217.057 101.925 213.751 103.74 210.713C103.649 214.255 102.921 217.751 101.59 221.034C100.796 224.437 99.4057 227.673 97.4829 230.59C97.6838 227.121 98.4753 223.711 99.8233 220.508Z" fill="#F9E6CF"/>
<path opacity="0.5" d="M153.126 40.0403C150.786 47.3986 148.35 54.0401 146.63 58.866L144.433 64.5997C144.192 65.3102 143.889 65.9978 143.526 66.6543C143.604 65.9574 143.748 65.2695 143.956 64.5997L145.532 58.6749C146.869 53.8968 148.684 46.873 150.642 39.5625C152.983 30.6275 154.702 23.9382 155.944 19.2557C156.309 16.7817 156.967 14.3598 157.902 12.0408C158.237 12.0408 158.762 14.2387 158.237 18.8257C157.163 26.0343 155.452 33.1336 153.126 40.0403Z" fill="#7D7A7C"/>
<path d="M156.517 26.0404C156.059 29.4331 154.887 32.69 153.078 35.5965C153.083 32.2493 153.632 28.925 154.702 25.7537C155.236 22.4567 156.199 19.244 157.568 16.1975C157.972 19.5157 157.613 22.8824 156.517 26.0404Z" fill="#F9E6CF"/>
<path opacity="0.5" d="M176.625 68.9956C172.947 72.7703 169.556 76.2583 167.073 78.5517C165.77 79.9592 164.365 81.2687 162.87 82.4698C163.838 80.7795 164.957 79.1803 166.213 77.6917C168.362 74.8726 171.419 71.0979 174.762 66.9888C182.834 57.0504 188.04 52.6545 188.566 53.3234C189.091 53.9924 185.843 59.1527 176.625 68.9956Z" fill="#7D7A7C"/>
<path d="M182.691 61.3505C180.16 64.1696 177.915 66.1286 177.437 65.8897C176.959 65.6508 178.774 62.975 181.306 60.1082C183.837 57.2413 186.082 55.3301 186.512 55.6168C186.942 55.9035 185.175 58.5314 182.691 61.3505Z" fill="#F9E6CF"/>
<path opacity="0.5" d="M170.655 56.3814L159.049 73.0092L155.419 78.0739C154.98 78.7069 154.484 79.2986 153.938 79.8418C154.222 79.1249 154.574 78.4369 154.989 77.7872L158.093 72.388C160.816 67.8966 164.493 61.6851 168.505 54.9958C178.392 38.7981 184.649 31.1054 185.27 31.5354C185.891 31.9654 182.166 39.7059 170.655 56.3814Z" fill="#7D7A7C"/>
<path d="M178.345 43.9105C176.69 46.9623 174.488 49.6834 171.849 51.9376C172.888 48.6656 174.505 45.6069 176.625 42.9071C178.204 39.859 180.343 37.1357 182.93 34.8799C181.941 38.1351 180.389 41.1916 178.345 43.9105Z" fill="#F9E6CF"/>
</g>
</g>
</g>
<defs>
<clipPath id="clip0_231_12412">
<rect width="237.522" height="242.249" fill="white"/>
</clipPath>
</defs>
</svg>
