<svg width="151" height="155" viewBox="0 0 151 155" fill="none" xmlns="http://www.w3.org/2000/svg">
<g opacity="0.7">
<g clip-path="url(#clip0_231_13318)">
<g style="mix-blend-mode:screen">
<path opacity="0.5" d="M82.2863 75.6052C83.2174 75.3266 84.2095 75.3266 85.1406 75.6052C84.4336 76.1919 83.6589 76.6916 82.8329 77.0936C81.3451 78.0049 80.252 77.7315 80.0698 77.3366C79.8876 76.9417 80.3431 75.909 82.2863 75.6052Z" fill="#7D7A7C"/>
<path d="M81.0718 76.3039C81.5576 76.0913 82.0434 76.3039 82.1649 76.4862C82.2863 76.6685 81.9827 77.1848 81.4969 77.3975C81.011 77.6101 80.5252 77.3975 80.4038 77.2152C80.2823 77.033 80.5556 76.4862 81.0718 76.3039Z" fill="#F9E6CF"/>
<path opacity="0.5" d="M84.26 83.0169C84.5593 82.1484 84.6324 81.218 84.4725 80.3134C84.4725 79.5844 83.9564 79.2199 84.0475 79.1592C84.1385 79.0984 84.6547 79.1592 85.1406 79.9793C85.7093 80.9518 85.9638 82.0764 85.8693 83.1991C85.6871 86.2367 84.26 87.3606 83.8956 87.2087C83.5313 87.0569 83.4098 85.6596 84.26 83.0169Z" fill="#7D7A7C"/>
<path d="M84.0171 85.0521C84.2296 84.2928 84.6851 83.7156 84.9584 83.7764C85.2316 83.8371 85.3835 84.5661 85.1405 85.3863C84.8976 86.2064 84.3814 86.7532 84.1082 86.6621C83.8349 86.5709 83.8349 85.8419 84.0171 85.0521Z" fill="#F9E6CF"/>
<path opacity="0.5" d="M78.0354 67.9202C78.7686 68.5816 79.2601 69.4689 79.4321 70.4414C79.5839 71.1097 79.5839 71.5653 79.4321 71.5653C79.2803 71.5653 78.3997 69.9554 77.0334 69.2871C75.667 68.6189 74.4524 69.4997 74.1792 69.0137C73.9059 68.5277 74.1792 68.4062 74.5739 67.9202C74.9482 67.6311 75.3849 67.4335 75.8492 67.3431C76.2332 67.2598 76.6316 67.2688 77.0115 67.3691C77.3915 67.4694 77.7424 67.6582 78.0354 67.9202Z" fill="#7D7A7C"/>
<path d="M75.8492 67.6772C76.7297 67.6772 77.3674 68.0721 77.2156 68.3455C77.0637 68.6189 76.5779 68.7404 76.0617 68.8315C75.5455 68.9227 74.9383 68.8315 74.7864 68.8315C74.6346 68.8315 74.9079 67.9203 75.8492 67.6772Z" fill="#F9E6CF"/>
<path opacity="0.5" d="M70.5355 72.1728C71.266 72.01 72.0227 72.0044 72.7556 72.1563C73.4884 72.3081 74.1807 72.614 74.7864 73.0537C73.5093 73.1262 72.2454 73.3505 71.0213 73.7219C69.1084 74.7851 67.9849 75.6964 67.6509 75.423C67.3169 75.1496 67.3776 74.8458 67.6509 74.1776C67.9498 73.6477 68.3644 73.1922 68.8639 72.845C69.3634 72.4979 69.9348 72.2681 70.5355 72.1728Z" fill="#7D7A7C"/>
<path d="M68.5922 73.4486C69.3209 72.9322 70.0497 72.841 70.2015 73.1752C70.3533 73.5093 69.8978 73.9649 69.3209 74.3902C68.744 74.8155 68.1975 75.1192 67.9849 74.937C67.7724 74.7547 67.9545 74.0561 68.5922 73.4486Z" fill="#F9E6CF"/>
<path opacity="0.5" d="M66.072 82.2271C67.7997 81.1828 69.7033 80.4622 71.6893 80.1008C71.6893 80.1008 69.412 81.65 66.9829 83.594C63.9465 85.933 62.8534 87.2088 62.4587 87.0872C62.0639 86.9657 62.1247 86.419 62.6105 85.4773C63.4186 84.0761 64.623 82.9453 66.072 82.2271Z" fill="#7D7A7C"/>
<path d="M63.7036 84.3536C64.5841 83.5334 65.4951 83.1689 65.7076 83.4423C65.9202 83.7157 65.3129 84.4447 64.5234 85.2041C63.7339 85.9635 63.0659 86.5406 62.7623 86.3584C62.4587 86.1761 62.8838 85.2041 63.7036 84.3536Z" fill="#F9E6CF"/>
<path opacity="0.5" d="M87.9948 69.287C87.1698 70.2387 86.1285 70.9784 84.9584 71.4437C85.4247 70.384 85.9835 69.3675 86.6284 68.4061C87.1446 67.4341 87.3268 66.857 87.4786 66.857C87.6304 66.857 87.4786 66.6443 87.4786 66.4621C87.4263 66.3357 87.4263 66.1936 87.4786 66.0672C87.4786 66.0672 87.8733 65.4293 88.7539 66.0672C88.9415 66.3097 89.0626 66.597 89.1052 66.9006C89.1478 67.2043 89.1104 67.5138 88.9968 67.7986C88.7716 68.36 88.4301 68.8672 87.9948 69.287Z" fill="#7D7A7C"/>
<path d="M88.8146 67.4038C88.5413 68.224 87.9644 68.5277 87.7215 68.3455C87.4786 68.1632 87.5089 67.5861 87.7215 67.1001C87.6911 67.0011 87.6911 66.8953 87.7215 66.7963C87.6979 66.7379 87.6979 66.6725 87.7215 66.6141C87.7215 66.4622 87.7215 66.3103 87.7215 66.1584C87.7585 66.1138 87.8049 66.0779 87.8574 66.0533C87.9099 66.0286 87.9672 66.0159 88.0251 66.0159C88.0831 66.0159 88.1404 66.0286 88.1928 66.0533C88.2453 66.0779 88.2917 66.1138 88.3288 66.1584C88.471 66.3199 88.584 66.5049 88.6628 66.7052C88.7451 66.93 88.7962 67.1651 88.8146 67.4038Z" fill="#F9E6CF"/>
<path opacity="0.5" d="M81.1629 62.5436C81.0093 64.2334 80.4691 65.8652 79.5839 67.3126C79.4018 67.3126 79.5839 65.0041 79.5839 62.5133C79.5657 61.4724 79.36 60.4434 78.9767 59.4757C78.8122 59.2741 78.6791 59.0488 78.5819 58.8074C78.4301 58.6555 78.3694 58.534 78.3997 58.4125C78.4301 58.291 78.9159 57.8961 79.8876 58.4125C80.4608 58.9161 80.8835 59.5686 81.1086 60.2979C81.3337 61.0271 81.3525 61.8044 81.1629 62.5436Z" fill="#7D7A7C"/>
<path d="M80.5556 59.8707C80.9807 60.9338 80.5556 61.754 80.343 61.7843C80.1305 61.8147 79.7661 61.0249 79.4625 60.3263C79.1588 59.6277 79.1285 59.6884 79.0981 59.3847C79.0169 59.3142 78.9549 59.2243 78.9177 59.1234C78.8806 59.0225 78.8695 58.9138 78.8856 58.8075C78.8856 58.6556 79.2196 58.6556 79.6143 58.8075C80.0306 59.0557 80.3596 59.4272 80.5556 59.8707Z" fill="#F9E6CF"/>
<path opacity="0.5" d="M82.4989 61.3589C82.9543 58.8378 83.3794 56.5292 83.6831 54.7978C83.791 53.8707 83.9841 52.9556 84.26 52.064C84.4255 52.9857 84.4765 53.9243 84.4118 54.8585C84.4118 56.5899 84.4118 58.9896 84.1385 61.5716C83.6224 67.7986 82.3167 70.8665 81.8916 70.6843C81.4665 70.502 81.254 67.829 82.4989 61.3589Z" fill="#7D7A7C"/>
<path d="M81.922 66.128C82.1952 64.3055 82.6811 62.8778 82.9847 62.9082C83.2884 62.9386 83.3794 64.4574 82.9847 66.3103C82.59 68.1632 82.1649 69.5605 81.8612 69.3478C81.5576 69.1352 81.922 67.9202 81.922 66.128Z" fill="#F9E6CF"/>
<path opacity="0.5" d="M89.4219 55.527C88.6628 57.7141 87.8733 59.6581 87.2357 61.0858C86.9511 61.8824 86.5632 62.6381 86.0818 63.3336C85.93 63.3336 86.8713 59.5366 87.843 55.0714C88.2905 52.3748 88.9712 49.7221 89.8773 47.1433C90.0595 47.1433 90.5757 47.7204 90.6668 49.1785C90.6241 51.351 90.2028 53.4994 89.4219 55.527Z" fill="#7D7A7C"/>
<path d="M90.2113 51.244C89.9077 52.8843 89.3004 54.2815 88.9664 54.0385C88.6324 53.7955 88.7539 52.6109 88.9664 51.001C89.1789 49.3911 89.5737 48.176 89.9077 48.176C90.2417 48.176 90.5453 49.6037 90.2113 51.244Z" fill="#F9E6CF"/>
<path opacity="0.5" d="M65.5558 78.0961C67.3801 77.3846 69.3441 77.1039 71.2946 77.276C71.2946 77.4583 68.8047 78.1569 66.1934 79.5846C63.157 81.316 61.6692 82.3184 61.2745 82.045C60.8797 81.7716 61.1227 81.316 61.7603 80.5566C62.7475 79.3711 64.0709 78.5132 65.5558 78.0961Z" fill="#7D7A7C"/>
<path d="M63.0356 79.7364C63.9769 79.0378 64.9485 78.9467 65.07 79.22C65.1914 79.4934 64.5234 80.1009 63.6732 80.7085C62.823 81.316 62.0336 81.7109 61.7907 81.4375C61.5478 81.1641 62.0639 80.3743 63.0356 79.7364Z" fill="#F9E6CF"/>
<path opacity="0.5" d="M52.1957 69.5909C54.5885 69.7588 56.9586 70.1658 59.2705 70.806C60.2617 70.983 61.2227 71.3 62.1247 71.7476C62.1247 71.9602 57.5397 71.0793 52.1653 71.2008C49.7336 71.2534 47.3087 71.4767 44.9083 71.8691C43.299 72.1121 42.4488 72.2944 42.3577 72.0817C42.2666 71.8691 42.7525 71.2008 44.3618 70.5629C46.8544 69.6032 49.5442 69.2694 52.1957 69.5909Z" fill="#7D7A7C"/>
<path d="M46.973 70.1073C48.9771 69.7732 50.6167 70.1073 50.6167 70.3504C50.6167 70.5934 49.0378 70.9579 47.1552 71.2616C45.2727 71.5654 43.7545 71.8995 43.6026 71.535C43.4508 71.1705 44.9387 70.3504 46.973 70.1073Z" fill="#F9E6CF"/>
<path opacity="0.5" d="M100.14 63.303L94.2801 66.5836C93.494 67.1065 92.6604 67.554 91.7903 67.9202C92.4099 67.201 93.1132 66.5585 93.8854 66.0065C95.2214 64.8826 97.1039 63.3942 99.2294 61.9058C101.184 60.4711 103.358 59.3632 105.667 58.6252C107.306 58.1392 108.308 58.6252 108.248 58.6252C108.187 58.6252 105.909 60.0225 100.14 63.303Z" fill="#7D7A7C"/>
<path d="M104.148 60.7516C102.509 61.5717 101.112 62.1185 100.93 61.8451C100.748 61.5717 101.932 60.5389 103.602 59.6884C105.272 58.8379 106.881 58.5949 106.972 58.929C107.063 59.2632 105.758 59.901 104.148 60.7516Z" fill="#F9E6CF"/>
<path opacity="0.5" d="M100.414 72.1121C97.3772 72.1121 94.7659 72.5374 94.7356 72.3551C96.4614 71.3837 98.3584 70.7546 100.323 70.5022C101.12 70.2849 101.958 70.2682 102.764 70.4537C103.569 70.6392 104.316 71.0211 104.938 71.5653C105.788 72.5981 105.393 73.3271 105.211 73.3271C105.029 73.3271 104.695 72.9626 104.088 72.6892C102.912 72.259 101.664 72.0629 100.414 72.1121Z" fill="#7D7A7C"/>
<path d="M103.177 72.0818C102.235 71.8388 101.325 71.5958 101.325 71.292C101.325 70.9883 102.266 70.6237 103.48 70.9275C104.695 71.2313 105.333 72.4767 104.999 72.5982C104.665 72.7197 104.057 72.2944 103.177 72.0818Z" fill="#F9E6CF"/>
<path opacity="0.5" d="M96.3752 52.9754C94.9178 55.1625 93.3388 57.1065 92.4583 58.5038C91.9327 59.2972 91.3217 60.0306 90.6364 60.6909C90.9334 59.7886 91.3306 58.9226 91.8206 58.1089C92.6405 56.5294 93.7639 54.4335 94.857 52.0338C97.9542 46.5965 99.776 44.1057 100.14 44.1057C100.505 44.1057 100.14 47.3863 96.3752 52.9754Z" fill="#7D7A7C"/>
<path d="M98.6221 48.6317C97.7112 50.272 96.7092 51.4566 96.4359 51.2744C96.1627 51.0921 96.6788 49.6948 97.5898 48.0545C98.5007 46.4142 99.3509 45.2296 99.6545 45.3511C99.9582 45.4726 99.5331 47.1433 98.6221 48.6317Z" fill="#F9E6CF"/>
<path opacity="0.5" d="M79.4321 45.0472C79.8269 48.0848 80.009 51.1224 80.1001 53.1272C80.1875 54.2595 80.1875 55.3969 80.1001 56.5293C79.7635 55.4484 79.5197 54.3407 79.3714 53.2183C78.9767 51.1528 78.4908 48.3582 77.8228 45.351C77.0334 41.7059 76.3654 39.0025 75.8492 37.2103C75.333 35.4181 74.9686 34.598 75.1508 34.4461C75.333 34.2942 76.2135 34.7802 77.0941 36.5116C78.3753 39.1949 79.1671 42.0855 79.4321 45.0472Z" fill="#7D7A7C"/>
<path d="M77.9443 39.3671C78.5516 41.5541 78.6123 43.407 78.3086 43.4678C78.005 43.5285 77.3977 41.7971 76.8208 39.7012C76.2439 37.6053 75.8492 35.9346 75.8492 35.7523C75.8492 35.5701 77.3674 37.18 77.9443 39.3671Z" fill="#F9E6CF"/>
<path opacity="0.5" d="M72.0233 86.2064C72.8588 85.0825 73.8868 84.1158 75.0597 83.3511C74.5919 84.659 74.0023 85.9201 73.2986 87.1177C72.858 88.0061 72.3181 88.8417 71.6893 89.6085C71.3249 90.0945 70.9302 90.3375 70.7177 90.3071C70.5051 90.2767 70.2926 89.8515 70.3837 89.0921C70.6518 87.9966 71.2196 86.9974 72.0233 86.2064Z" fill="#7D7A7C"/>
<path d="M71.082 88.1503C71.4768 87.4213 72.0537 86.9961 72.327 87.1783C72.6002 87.3606 72.4788 88.0288 72.1144 88.7275C71.75 89.4261 71.2642 89.8514 70.9909 89.7603C70.7177 89.6691 70.6569 88.8794 71.082 88.1503Z" fill="#F9E6CF"/>
<path opacity="0.5" d="M60.6672 119.65L66.74 107.227L68.6226 103.46C68.8439 102.987 69.0975 102.531 69.3817 102.093C69.277 102.606 69.114 103.105 68.8958 103.581C68.5618 104.523 68.0456 105.89 67.408 107.53C66.1023 110.841 64.3716 115.398 62.3069 120.318C57.479 132.256 54.1693 138.058 53.7746 137.876C53.3798 137.693 54.9284 132.195 60.6672 119.65Z" fill="#7D7A7C"/>
<path d="M56.9932 128.854C57.74 126.654 58.8596 124.599 60.3028 122.779C59.9178 125.074 59.1588 127.291 58.0559 129.34C57.3123 131.535 56.2036 133.589 54.7766 135.415C55.1427 133.119 55.892 130.901 56.9932 128.854Z" fill="#F9E6CF"/>
<path opacity="0.5" d="M54.5944 123.082L62.0639 110.173C63.066 108.533 63.8554 107.135 64.4323 106.254C64.7122 105.757 65.0267 105.28 65.3736 104.827C65.1945 105.361 64.971 105.879 64.7056 106.376C64.2502 107.378 63.5518 108.776 62.732 110.507L56.0215 123.842C49.7058 136.266 45.637 142.31 45.2423 142.067C44.8476 141.824 47.216 135.962 54.5944 123.082Z" fill="#7D7A7C"/>
<path d="M49.7058 132.621C50.7075 130.315 52.0821 128.191 53.7746 126.333C53.1208 128.763 52.0966 131.079 50.7382 133.198C49.7008 135.484 48.3296 137.603 46.6694 139.485C47.307 137.049 48.3322 134.731 49.7058 132.621Z" fill="#F9E6CF"/>
<path opacity="0.5" d="M48.2483 125.361C50.9811 121.29 53.5013 117.554 55.4142 114.881L57.6915 111.843C58.2381 111.114 58.5417 110.689 58.6025 110.72C58.4221 111.175 58.1984 111.613 57.9345 112.026L56.0215 115.397C54.3515 118.253 52.1046 122.141 49.6147 126.363C43.5419 136.539 39.9893 141.551 39.5035 141.278C39.0177 141.004 41.1128 135.81 48.2483 125.361Z" fill="#7D7A7C"/>
<path d="M43.5419 133.228C44.5287 131.321 45.8444 129.604 47.4285 128.155C46.784 130.233 45.7538 132.17 44.3921 133.866C43.4597 135.792 42.1838 137.532 40.627 138.999C41.2277 136.91 42.2166 134.952 43.5419 133.228Z" fill="#F9E6CF"/>
<path opacity="0.5" d="M51.558 115.215L57.2361 107.712C58.0103 106.638 58.8628 105.623 59.7866 104.675C59.2333 105.88 58.5834 107.038 57.8434 108.138C56.5984 110.234 54.807 113.059 52.894 116.157C48.1876 123.599 45.0601 126.94 44.6654 126.697C44.2707 126.454 45.88 122.748 51.558 115.215Z" fill="#7D7A7C"/>
<path d="M47.8232 120.956C49.3111 118.8 50.7078 117.22 50.8596 117.402C51.0115 117.585 50.1613 119.468 48.6734 121.624C47.1856 123.781 45.7889 125.361 45.637 125.178C45.4852 124.996 46.3658 123.083 47.8232 120.956Z" fill="#F9E6CF"/>
<path opacity="0.5" d="M52.8029 98.782C55.8393 96.3215 58.5417 94.1648 60.6065 92.7068C61.6865 91.8195 62.8336 91.0172 64.0376 90.3071C64.0376 90.3071 63.7947 90.6413 63.2785 91.1577L61.0923 93.2536L53.896 100.088C47.1249 106.437 43.6634 109.565 43.299 109.201C42.9346 108.836 45.0905 105.1 52.8029 98.782Z" fill="#7D7A7C"/>
<path d="M47.6411 103.855C49.6451 101.971 51.4669 100.665 51.7098 100.817C51.9527 100.969 50.4345 102.822 48.5216 104.857C46.6087 106.892 44.8779 108.198 44.635 107.895C44.3921 107.591 45.637 105.768 47.6411 103.855Z" fill="#F9E6CF"/>
<path opacity="0.5" d="M38.5622 115.61C42.7221 111.813 46.6087 108.411 49.4629 105.981L52.8637 103.095C53.2752 102.718 53.7226 102.383 54.1997 102.093C53.8735 102.549 53.4966 102.967 53.0762 103.338L50.0398 106.528C47.3678 109.171 43.6937 112.816 39.7464 116.795C34.9287 121.594 31.2344 125.158 28.6636 127.487C26.1434 129.826 24.8074 130.98 24.6555 130.828C24.5037 130.677 27.783 125.33 38.5622 115.61Z" fill="#7D7A7C"/>
<path d="M31.1534 123.083C32.7641 121.221 34.6727 119.641 36.8011 118.405C35.491 120.48 33.8616 122.336 31.9733 123.903C30.3751 125.752 28.525 127.368 26.4774 128.702C27.697 126.571 29.2794 124.669 31.1534 123.083Z" fill="#F9E6CF"/>
<path opacity="0.5" d="M43.299 117.007L51.558 108.381L54.1086 105.829C54.414 105.495 54.7494 105.19 55.1106 104.918C54.9003 105.32 54.6457 105.697 54.3515 106.042L52.1046 108.867L44.635 117.979C37.5299 126.484 33.2485 130.281 32.8842 130.13C32.5198 129.978 35.2222 125.512 43.299 117.007Z" fill="#7D7A7C"/>
<path d="M37.8031 123.477C39.9893 121.017 41.9326 119.195 42.1755 119.438C41.3475 121.249 40.1713 122.88 38.7141 124.237C36.5279 126.697 34.5846 128.489 34.3416 128.277C35.1697 126.465 36.3459 124.835 37.8031 123.477Z" fill="#F9E6CF"/>
<path opacity="0.5" d="M40.293 104.857C44.5439 101.516 48.5216 98.7819 51.558 96.6252L55.0499 94.2559C55.4579 93.926 55.907 93.6503 56.3859 93.4358C56.031 93.8212 55.6451 94.1768 55.232 94.4989L52.0135 97.2024L41.4164 106.011C31.4874 114.213 26.4774 118.435 26.2345 118.162C25.9915 117.888 29.2405 112.967 40.293 104.857Z" fill="#7D7A7C"/>
<path d="M32.702 111.206C34.3567 109.562 36.2894 108.225 38.4104 107.257C38.623 107.53 36.376 109.657 33.4611 112.117C31.8219 113.747 29.9616 115.137 27.9348 116.248C29.1928 114.282 30.8101 112.572 32.702 111.206Z" fill="#F9E6CF"/>
<path opacity="0.5" d="M26.0826 95.0761C31.3052 92.9498 36.1938 91.2791 39.7464 90.0945L43.9974 88.7579C44.5193 88.5729 45.0584 88.4406 45.6067 88.363C45.1265 88.6282 44.6295 88.8616 44.1188 89.0617L40.0197 90.7931C36.5582 92.2511 31.8214 94.2256 26.7203 96.5645C20.6475 99.3894 16.0018 101.637 13.0261 103.278C11.5759 104.218 10.0645 105.06 8.5019 105.799C8.31972 105.799 9.20028 104.25 11.9634 102.245C16.3785 99.3198 21.1163 96.9144 26.0826 95.0761Z" fill="#7D7A7C"/>
<path d="M16.6394 99.7236C18.7269 98.42 21.0469 97.5329 23.4713 97.1113C21.5355 98.5908 19.4244 99.8253 17.186 100.787C15.125 102.071 12.9374 103.14 10.6577 103.976C12.3191 102.141 14.3604 100.69 16.6394 99.7236Z" fill="#F9E6CF"/>
<path opacity="0.5" d="M28.1474 100.21C32.3376 98.2049 36.2849 96.5342 39.1391 95.3495L42.4488 93.9826C42.8684 93.7968 43.3059 93.6543 43.7545 93.5574C43.7545 93.5574 43.3597 93.8611 42.6006 94.2864L39.4124 96.0178L28.8761 101.82C23.9875 104.523 20.2831 106.558 17.854 107.895C16.673 108.728 15.3993 109.421 14.0585 109.96C13.6334 109.505 17.2164 105.282 28.1474 100.21Z" fill="#7D7A7C"/>
<path d="M20.5868 104.584C22.25 103.396 24.1424 102.568 26.1434 102.154C26.3256 102.457 24.0483 103.915 21.194 105.586C19.5512 106.754 17.7522 107.684 15.85 108.35C15.6374 108.077 17.7022 106.254 20.5868 104.584Z" fill="#F9E6CF"/>
<path opacity="0.5" d="M33.3396 101.091C36.7404 99.3288 39.8983 97.81 42.2059 96.7469L44.969 95.5319C45.3084 95.3631 45.6646 95.2307 46.0318 95.137C45.7617 95.4023 45.4549 95.6273 45.1209 95.8052L42.5399 97.4151L34.1291 102.518C30.291 105.161 26.2266 107.458 21.9835 109.383C21.6799 109.019 24.5948 105.586 33.3396 101.091Z" fill="#7D7A7C"/>
<path d="M27.2668 104.857C29.6049 103.399 31.6392 102.548 31.8214 102.822C32.0036 103.095 30.1818 104.432 27.8741 105.859C26.5606 106.879 25.067 107.641 23.4713 108.107C23.3499 107.895 25.0199 106.376 27.2668 104.857Z" fill="#F9E6CF"/>
<path opacity="0.5" d="M28.4207 73.4485C33.0967 73.4485 37.378 73.7523 40.5662 74.0561L44.2403 74.4813C44.6919 74.5227 45.139 74.604 45.5763 74.7243C45.122 74.7694 44.6643 74.7694 44.2099 74.7243H40.4448C37.4084 74.7243 33.0664 74.7243 28.451 75.0281C24.2764 75.2177 20.1182 75.6742 16.0018 76.395C13.269 76.9417 11.9634 77.5493 11.8116 77.3063C11.6598 77.0633 12.6314 76.0912 15.3338 75.1192C19.575 73.8484 23.9963 73.284 28.4207 73.4485Z" fill="#7D7A7C"/>
<path d="M19.7062 74.4814C21.7026 74.0062 23.7826 74.0062 25.779 74.4814C23.8757 75.166 21.879 75.5553 19.858 75.6357C17.9112 76.082 15.9308 76.3665 13.9371 76.4862C13.7852 76.0306 16.3358 74.8763 19.7062 74.4814Z" fill="#F9E6CF"/>
<path opacity="0.5" d="M36.376 78.7037C39.7161 78.3696 42.7828 78.2481 44.9994 78.2481C46.2161 78.2008 47.4346 78.2516 48.6431 78.3999C47.4685 78.6997 46.2694 78.8928 45.0601 78.9771C42.8739 79.2808 39.8375 79.7061 36.6189 80.3136C32.702 81.073 29.7871 81.7717 27.9045 82.3488C26.0219 82.9259 25.111 83.4119 24.8681 83.2297C24.6252 83.0474 25.2628 82.1362 27.0847 81.1338C29.9969 79.734 33.1516 78.9089 36.376 78.7037Z" fill="#7D7A7C"/>
<path d="M30.3032 80.1921C32.6413 79.5542 34.6149 79.5238 34.6756 79.8276C34.7364 80.1313 32.8538 80.7085 30.6069 81.3464C29.2748 81.8709 27.8735 82.1984 26.447 82.3184C26.2345 81.9843 27.9348 80.83 30.3032 80.1921Z" fill="#F9E6CF"/>
<path opacity="0.5" d="M61.3656 67.2823C63.0959 67.6564 64.8 68.1434 66.4667 68.7403C67.1796 68.9596 67.8628 69.2657 68.5011 69.6516C68.5011 69.8339 65.1003 69.2263 61.1226 68.8922C58.7049 68.9168 56.2888 68.7543 53.896 68.4062C53.896 68.1632 54.23 67.7076 55.5053 67.2519C57.4337 66.7989 59.442 66.8093 61.3656 67.2823Z" fill="#7D7A7C"/>
<path d="M57.6308 67.2217C59.1186 67.2217 60.2725 67.6469 60.2421 67.9507C60.2117 68.2545 59.0275 68.376 57.6308 68.4063C56.2341 68.4367 55.1106 68.4063 55.0195 68.0722C54.9284 67.7381 55.9608 67.2217 57.6308 67.2217Z" fill="#F9E6CF"/>
<path opacity="0.5" d="M50.6167 57.8052C52.9171 58.5743 55.1511 59.5292 57.2968 60.6605C58.2115 61.0924 59.0769 61.622 59.8777 62.24C58.8932 62.028 57.9282 61.7333 56.9932 61.3591C54.7742 60.5514 52.514 59.8619 50.222 59.2936C46.9976 58.6842 43.726 58.3589 40.4448 58.3216C40.4448 58.3216 40.4448 58.0178 40.8699 57.714C41.4431 57.4239 42.0431 57.1899 42.6614 57.0154C45.3365 56.5747 48.0804 56.8471 50.6167 57.8052Z" fill="#7D7A7C"/>
<path d="M45.4852 57.1367C47.5196 57.319 49.0682 57.8961 49.0074 58.2606C48.9467 58.6252 47.3374 58.4733 45.4245 58.2606C44.4832 58.2606 43.6027 58.2606 42.965 58.2606C42.3274 58.2606 41.9326 58.2606 41.9023 58.0176C41.8719 57.7746 42.2363 57.6531 42.8739 57.4101C43.7294 57.2095 44.6068 57.1176 45.4852 57.1367Z" fill="#F9E6CF"/>
<path opacity="0.5" d="M42.0541 61.3895C44.8439 62.1072 47.5828 63.0104 50.2524 64.093C51.3762 64.5068 52.463 65.0148 53.5013 65.6118C52.3149 65.4446 51.1462 65.1701 50.0095 64.7916C47.884 64.2752 44.9387 63.4855 41.7201 62.9994C38.8319 62.4873 35.908 62.203 32.9753 62.1489C31.9696 62.3101 30.9446 62.3101 29.9389 62.1489C29.9389 61.8755 30.5765 61.2984 32.6109 60.7213C35.7696 60.2514 38.9929 60.4795 42.0541 61.3895Z" fill="#7D7A7C"/>
<path d="M35.7991 60.7818C38.2282 60.7818 40.0804 61.5412 40.0197 61.8449C39.959 62.1487 38.0764 62.0576 35.7688 61.8449C34.6149 61.8449 33.5826 61.8449 32.7324 61.8449C31.8822 61.8449 31.5178 61.8449 31.4571 61.6627C31.3963 61.4804 31.8822 61.2374 32.6413 60.9944C33.6833 60.8114 34.7419 60.7401 35.7991 60.7818Z" fill="#F9E6CF"/>
<path opacity="0.5" d="M24.5037 65.0346C29.7263 65.8851 34.4935 66.9179 37.8942 67.7684C39.625 68.1633 40.9306 68.5278 41.963 68.8012C42.477 68.9014 42.9767 69.0647 43.4508 69.2872C42.9304 69.2708 42.4123 69.2098 41.9023 69.1049L37.7728 68.4063C34.2809 67.8899 29.5138 67.1609 24.2912 66.6141C19.5543 66.0418 14.7908 65.7173 10.0201 65.6421C8.40187 65.7297 6.78009 65.7297 5.16187 65.6421C5.16187 65.4598 6.40679 64.5789 9.595 64.1537C14.5813 63.7482 19.5998 64.0447 24.5037 65.0346Z" fill="#7D7A7C"/>
<path d="M14.6051 64.3662C16.9172 64.224 19.2337 64.5654 21.4066 65.3686C19.1399 65.6792 16.8414 65.6792 14.5747 65.3686C12.3108 65.5415 10.0371 65.5415 7.77318 65.3686C9.91588 64.4154 12.279 64.0687 14.6051 64.3662Z" fill="#F9E6CF"/>
<path opacity="0.5" d="M71.2642 63.1512C72.2482 63.7657 73.0791 64.5968 73.6933 65.5812C74.1792 66.3102 74.3613 66.8266 74.3006 66.857C73.124 65.9996 71.8743 65.2474 70.5659 64.6092C69.7001 64.3026 68.7778 64.1885 67.8635 64.2751C67.1651 64.2751 66.74 64.2751 66.6185 64.1232C66.4971 63.9713 66.6185 63.3942 67.3169 62.9689C67.9227 62.6163 68.6173 62.4459 69.3174 62.4782C70.0175 62.5106 70.6935 62.7442 71.2642 63.1512Z" fill="#7D7A7C"/>
<path d="M68.6529 62.8171C69.7157 62.8171 70.3837 63.3335 70.2622 63.5765C70.1408 63.8195 69.4727 63.8803 68.7136 63.9714C67.9545 64.0625 67.2865 63.9714 67.1347 63.7892C66.9829 63.6069 67.6205 62.8779 68.6529 62.8171Z" fill="#F9E6CF"/>
<path opacity="0.5" d="M71.7197 52.9752C72.8652 55.1108 73.8105 57.3479 74.5435 59.6579C74.9325 60.6297 75.178 61.6529 75.2723 62.6955C75.0901 62.6955 73.3593 58.4429 70.3229 53.9472C69.0485 51.9257 67.4479 50.1294 65.5862 48.6315C64.3412 47.6898 63.4911 47.4772 63.5214 47.2342C63.5518 46.9912 64.402 46.6571 66.1024 47.2342C68.5713 48.4554 70.5521 50.4797 71.7197 52.9752Z" fill="#7D7A7C"/>
<path d="M68.2582 48.9354C69.746 50.3631 70.414 51.973 70.1711 51.973C69.9282 51.973 68.8047 50.9706 67.4383 49.6644C66.072 48.3583 64.7663 47.6293 64.8574 47.3255C64.9485 47.0217 66.74 47.447 68.2582 48.9354Z" fill="#F9E6CF"/>
<path opacity="0.5" d="M101.112 83.1993C97.0129 80.7693 93.0048 79.615 93.0655 79.4023C93.9678 79.413 94.8654 79.5355 95.7376 79.7668C97.8297 80.2086 99.8664 80.881 101.81 81.7716C104.045 82.6831 105.9 84.3344 107.063 86.4495C107.304 87.0122 107.467 87.6049 107.549 88.2113C107.549 88.6669 107.549 88.8796 107.306 88.9099C107.063 88.9403 106.76 88.3632 105.91 87.3C104.561 85.6644 102.937 84.2766 101.112 83.1993Z" fill="#7D7A7C"/>
<path d="M104.786 85.5684C104.179 84.9913 103.602 84.4749 103.237 84.0497C102.873 83.6244 102.6 83.351 102.691 83.1991C102.782 83.0473 103.177 83.1991 103.723 83.351C104.396 83.7415 105.026 84.1995 105.606 84.7179C106.942 86.0848 107.276 87.7555 106.972 87.7555C106.669 87.7555 105.94 86.6316 104.786 85.5684Z" fill="#F9E6CF"/>
<path opacity="0.5" d="M91.7295 86.9657C91.5535 85.5934 91.1535 84.2594 90.5453 83.0168C91.2392 83.3885 91.8468 83.9027 92.3282 84.5256C92.8096 85.1485 93.154 85.8662 93.3388 86.6316C94.2497 89.6691 92.9441 91.2183 92.5797 91.0968C92.2154 90.9753 91.851 89.6691 91.7295 86.9657Z" fill="#7D7A7C"/>
<path d="M92.1546 88.9707C92.1546 88.1809 92.1546 87.5127 92.6405 87.4519C93.1263 87.3912 93.3692 88.0898 93.3388 88.9707C93.3085 89.8516 92.9745 90.5199 92.6405 90.4895C92.3065 90.4591 92.1546 89.6694 92.1546 88.9707Z" fill="#F9E6CF"/>
<path opacity="0.5" d="M85.9907 98.4175C85.8783 95.7096 85.5329 93.0165 84.9584 90.3679C85.462 91.023 85.8426 91.764 86.0818 92.555C86.8444 94.4105 87.3451 96.3631 87.5697 98.3567C87.8216 100.496 87.5507 102.664 86.7802 104.675C86.2337 106.042 85.6264 106.558 85.4442 106.497C85.262 106.437 85.7175 103.976 85.9907 98.4175Z" fill="#7D7A7C"/>
<path d="M85.9907 102.488C86.2033 100.939 86.5069 99.6931 86.8106 99.6931C87.1142 99.6931 87.3875 101.03 87.1446 102.731C86.9017 104.432 86.2337 105.616 85.8997 105.495C85.5656 105.373 85.6567 104.006 85.9907 102.488Z" fill="#F9E6CF"/>
<path opacity="0.5" d="M66.3756 114.79L70.7784 105.039C71.3857 103.824 71.8715 102.792 72.2055 102.002C72.5395 101.212 72.7521 100.908 72.8128 100.939C72.7414 101.341 72.6399 101.737 72.5091 102.123L71.4768 105.161C70.5355 107.804 69.2602 111.236 67.8938 115.246C64.4627 124.662 61.821 129.188 61.4567 129.006C61.0923 128.824 62.0336 124.541 66.3756 114.79Z" fill="#7D7A7C"/>
<path d="M63.7036 122.019C64.2124 120.278 65.0814 118.664 66.2542 117.281C66.1575 119.099 65.6598 120.872 64.7967 122.475C64.3019 124.222 63.4314 125.839 62.2461 127.214C62.3635 125.399 62.8601 123.63 63.7036 122.019Z" fill="#F9E6CF"/>
<path opacity="0.5" d="M75.1204 116.521C75.7277 113.089 76.2439 109.899 76.6386 107.56C76.8084 106.297 77.0722 105.048 77.4281 103.824C77.5124 105.099 77.5124 106.377 77.4281 107.652C77.2763 109.99 77.1245 113.21 76.7904 116.764C76.0921 125.269 74.3613 129.522 73.9059 129.37C73.4504 129.218 73.663 125.421 75.1204 116.521Z" fill="#7D7A7C"/>
<path d="M74.4524 123.083C74.8775 120.622 75.333 118.617 75.667 118.648C76.0788 120.159 76.0788 121.753 75.667 123.265C75.2723 125.725 74.6953 127.7 74.331 127.639C74.0318 126.13 74.0733 124.573 74.4524 123.083Z" fill="#F9E6CF"/>
<path opacity="0.5" d="M78.5819 130.039C78.9463 124.298 79.3107 119.043 79.5536 115.185C79.7054 113.271 79.8269 111.692 79.8876 110.598C79.892 110.035 79.9633 109.474 80.1001 108.927C80.1309 109.494 80.1309 110.062 80.1001 110.629C80.1001 111.722 80.1001 113.271 80.1001 115.185C80.1001 119.043 80.1001 124.298 80.1001 130.099C79.8876 144.072 78.0657 151.362 77.5799 151.15C77.0941 150.937 77.6103 144.862 78.5819 130.039Z" fill="#7D7A7C"/>
<path d="M78.1872 140.792C78.1693 138.284 78.5171 135.787 79.2196 133.38C79.6844 135.845 79.7357 138.37 79.3714 140.852C79.3846 143.376 78.9635 145.883 78.1265 148.264C77.8047 145.782 77.8252 143.268 78.1872 140.792Z" fill="#F9E6CF"/>
<path opacity="0.5" d="M81.7094 113.97C82.1649 110.598 82.4989 107.469 82.6203 105.161C82.6589 103.91 82.7705 102.662 82.9544 101.425C83.0492 101.752 83.1102 102.087 83.1365 102.427C83.1365 103.065 83.2884 104.006 83.3491 105.161C83.5517 108.195 83.5517 111.239 83.3491 114.273C83.1948 117.509 82.454 120.689 81.1629 123.66C80.7489 124.384 80.2927 125.084 79.7965 125.756C79.4321 126.181 79.1285 126.302 79.0374 126.242C78.9463 126.181 80.3431 122.748 81.7094 113.97Z" fill="#7D7A7C"/>
<path d="M80.8289 120.349C81.018 118.864 81.4923 117.431 82.2256 116.126C82.59 116.126 82.5293 118.192 81.9523 120.652C81.6521 121.695 81.2661 122.711 80.7985 123.69C80.343 124.419 79.9787 124.814 79.8572 124.723C79.7358 124.632 79.8572 124.146 80.009 123.386C80.1609 122.627 80.4341 121.503 80.8289 120.349Z" fill="#F9E6CF"/>
<path opacity="0.5" d="M91.9117 98.4478C91.3652 95.7444 90.7579 93.2839 90.3024 91.4918L89.6952 89.3958C89.6581 89.1237 89.6581 88.8478 89.6952 88.5757C90.2844 89.4062 90.7737 90.3035 91.1526 91.2488C92.1132 93.4668 92.9445 95.7387 93.6425 98.0529C95.5554 104.553 95.3125 108.168 94.9178 108.229C94.523 108.29 93.2174 105.434 91.9117 98.4478Z" fill="#7D7A7C"/>
<path d="M93.2477 103.429C92.8226 101.485 92.7619 99.8755 93.0655 99.7843C93.3692 99.6932 93.9765 101.242 94.4016 103.186C94.8266 105.13 94.7963 106.801 94.4016 106.832C94.0068 106.862 93.6728 105.373 93.2477 103.429Z" fill="#F9E6CF"/>
<path opacity="0.5" d="M86.6587 132.195C86.4462 127.821 86.2337 123.751 86.0818 120.774C86.0818 119.316 86.0818 118.101 85.93 117.281C85.8901 116.846 85.8901 116.409 85.93 115.975C86.0973 116.371 86.1999 116.791 86.2337 117.22C86.2337 118.071 86.5677 119.255 86.8106 120.713C87.266 123.751 87.8429 127.669 88.2984 132.074C89.513 142.796 88.2984 148.477 87.7215 148.386C87.1446 148.294 87.2053 143.525 86.6587 132.195Z" fill="#7D7A7C"/>
<path d="M87.3268 140.366C87.0716 138.449 87.185 136.5 87.6608 134.625C88.3645 136.442 88.6549 138.393 88.511 140.336C88.8217 142.263 88.6442 144.237 87.9948 146.077C87.4669 144.222 87.2413 142.293 87.3268 140.366Z" fill="#F9E6CF"/>
<path opacity="0.5" d="M66.9525 22.8425C68.5315 28.1886 69.7764 33.1399 70.6266 36.7546C71.0517 38.5468 71.3857 40.0352 71.5982 41.068C71.7557 41.5912 71.8475 42.132 71.8715 42.6779C71.6371 42.1573 71.4442 41.619 71.2946 41.068L69.9282 36.9065C68.7744 33.3525 67.2258 28.5228 65.404 23.2678C63.1874 16.9496 61.4567 12.1806 60.1814 9.08231C59.4318 7.5465 58.7827 5.96364 58.2381 4.34369C58.3899 4.16144 59.6956 5.19421 61.2745 8.17104C63.6944 12.8406 65.5983 17.7602 66.9525 22.8425Z" fill="#7D7A7C"/>
<path d="M63.2785 12.9706C64.344 15.1605 64.9927 17.5296 65.1914 19.957C63.8863 17.918 62.8647 15.7107 62.155 13.3959C61.1371 11.2182 60.3239 8.95047 59.7259 6.62207C61.386 8.43418 62.6022 10.6076 63.2785 12.9706Z" fill="#F9E6CF"/>
<path opacity="0.5" d="M60.9101 53.7346C62.4462 55.13 63.849 56.6656 65.1003 58.3214C65.6658 58.9876 66.1453 59.7224 66.5274 60.5084C66.3756 60.5084 63.6429 57.7139 59.9081 55.0104C58.302 53.7862 56.5073 52.8321 54.5944 52.1855C53.3495 51.8513 52.6207 51.9728 52.5296 51.7298C52.4386 51.4868 52.9547 50.8186 54.5944 50.7578C56.9971 50.9273 59.2497 51.9891 60.9101 53.7346Z" fill="#7D7A7C"/>
<path d="M56.9021 51.4868C58.5721 52.1855 59.5134 53.3094 59.3312 53.5524C59.149 53.7954 57.9041 53.1879 56.4466 52.5803C54.9891 51.9728 53.7746 51.7906 53.7139 51.4564C53.6531 51.1223 55.2321 50.7274 56.9021 51.4868Z" fill="#F9E6CF"/>
<path opacity="0.5" d="M28.3903 55.6485C34.4631 57.8052 40.0804 60.0226 44.1188 61.7236L48.8556 63.7588C49.4489 64.0077 50.0269 64.2917 50.5864 64.6093C49.9551 64.4777 49.3357 64.2948 48.7342 64.0626L43.8456 62.3312C39.7464 60.9339 34.0684 59.0202 27.8741 57.1369C20.3439 54.8688 14.6456 53.2792 10.7792 52.3679C8.8019 52.0477 6.84512 51.6116 4.91896 51.0618C4.91896 50.8491 6.7408 50.4239 10.6578 51.0618C16.7092 51.983 22.6509 53.5199 28.3903 55.6485Z" fill="#7D7A7C"/>
<path d="M16.6091 52.3678C19.4099 52.9354 22.0979 53.9618 24.5645 55.4054C21.7567 55.0888 18.9952 54.4466 16.3358 53.4917C13.5733 52.9502 10.8537 52.2091 8.19827 51.2743C11.0475 51.0463 13.9128 51.4189 16.6091 52.3678Z" fill="#F9E6CF"/>
<path opacity="0.5" d="M28.2688 61.8452C33.8558 63.2728 38.8962 64.8827 42.5399 66.037L46.882 67.4951C47.4132 67.6569 47.9309 67.86 48.4305 68.1026C47.8756 68.0531 47.3267 67.9514 46.7909 67.7988L42.4488 66.7357C38.714 65.8548 33.5825 64.6094 27.9956 63.4247C21.2244 61.997 16.0929 60.9946 12.6314 60.3871C10.8627 60.2599 9.10641 59.9959 7.37843 59.5974C7.37843 59.3847 8.927 58.838 12.4189 58.9291C17.791 59.3327 23.1046 60.3103 28.2688 61.8452Z" fill="#7D7A7C"/>
<path d="M17.6718 59.8706C20.1782 60.0848 22.6206 60.7755 24.8681 61.9058C22.3829 61.9292 19.9044 61.6435 17.4896 61.0553C15.0205 60.8134 12.5802 60.3353 10.2023 59.6276C12.6803 59.1664 15.229 59.2493 17.6718 59.8706Z" fill="#F9E6CF"/>
<path opacity="0.5" d="M39.959 51.0314C43.9974 53.0058 47.6107 55.041 50.1613 56.5901C51.4366 57.3495 52.4689 57.9874 53.1977 58.4734C53.5736 58.6948 53.9292 58.9489 54.2604 59.2328C53.8405 59.1113 53.4337 58.9485 53.0458 58.7468L49.8273 57.228C47.1249 55.9522 43.3901 54.1904 39.291 52.5198C35.5706 50.9524 31.7698 49.5836 27.9045 48.419C26.5424 48.2019 25.2085 47.8352 23.9268 47.3255C23.9268 47.1433 25.1717 46.6572 27.9045 46.9914C32.111 47.6914 36.1798 49.055 39.959 51.0314Z" fill="#7D7A7C"/>
<path d="M32.0036 48.1759C33.9388 48.5953 35.7422 49.4817 37.2566 50.7578C35.32 50.5657 33.4249 50.0738 31.6392 49.2998C29.7555 48.8687 27.9233 48.2373 26.1737 47.4165C28.1497 47.1128 30.1713 47.3762 32.0036 48.1759Z" fill="#F9E6CF"/>
<path opacity="0.5" d="M107.853 78.4909C103.298 77.3367 99.2598 76.881 99.2901 76.6988C100.147 76.5126 101.027 76.4512 101.901 76.5165C103.993 76.4784 106.084 76.6003 108.156 76.881C110.457 77.0994 112.659 77.9278 114.533 79.2807C115.778 80.3438 115.93 81.2855 115.717 81.3766C113.19 80.1741 110.558 79.2081 107.853 78.4909Z" fill="#7D7A7C"/>
<path d="M112.073 79.463C110.555 78.8555 109.25 78.3087 109.341 77.9746C109.432 77.6404 110.859 77.7012 112.377 78.3695C113.895 79.0377 115.079 80.2224 114.806 80.4654C114.533 80.7084 113.592 80.0401 112.073 79.463Z" fill="#F9E6CF"/>
<path opacity="0.5" d="M91.0312 44.3486C89.9684 48.4189 88.845 52.0944 87.9948 54.7371L86.9017 57.7747C86.7792 58.1652 86.6163 58.5418 86.4158 58.8986C86.4332 58.4882 86.4942 58.0809 86.598 57.6835C86.7498 56.8938 86.9927 55.8002 87.266 54.4333C87.8733 51.6995 88.6931 47.9633 89.4826 43.8626C90.4239 38.9113 91.0919 35.2055 91.4866 32.7147C91.5818 31.4275 91.816 30.1545 92.185 28.9177C92.4279 28.9177 92.9441 30.0113 92.9744 32.5932C92.8256 36.578 92.1727 40.528 91.0312 44.3486Z" fill="#7D7A7C"/>
<path d="M92.3975 36.6029C92.2998 38.4421 91.7692 40.2323 90.849 41.8275C90.6349 40.0165 90.7689 38.1813 91.2437 36.4206C91.3487 34.615 91.717 32.8343 92.3368 31.1353C92.8713 32.9157 92.8923 34.811 92.3975 36.6029Z" fill="#F9E6CF"/>
<path opacity="0.5" d="M117.023 42.3438C113.44 45.6244 110.16 48.662 107.762 50.9098C106.578 51.9729 105.575 52.8538 104.907 53.4917C104.56 53.8182 104.184 54.113 103.784 54.3726C104.028 53.9527 104.324 53.5649 104.665 53.2183L107.246 50.363C109.492 47.9633 112.529 44.6827 115.869 41.2503C123.976 32.6843 128.774 28.8874 129.077 29.1C129.381 29.3126 126.162 33.7171 117.023 42.3438Z" fill="#7D7A7C"/>
<path d="M123.308 35.7522C121.916 37.387 120.239 38.7558 118.359 39.7922C118.116 39.5492 119.938 37.3925 122.397 34.9321C123.817 33.2774 125.538 31.9066 127.468 30.8921C126.393 32.7554 124.983 34.4032 123.308 35.7522Z" fill="#F9E6CF"/>
<path opacity="0.5" d="M122.762 52.6413L110.798 58.7164L107.124 60.6301C106.684 60.8943 106.215 61.1083 105.727 61.268C106.116 60.9296 106.532 60.6247 106.972 60.3567L110.434 58.1089C113.47 56.2256 117.448 53.7044 122.002 51.0921C126.115 48.6282 130.432 46.5244 134.907 44.8043C137.943 43.6804 139.705 43.5893 139.735 43.8019C139.765 44.0146 138.49 44.5917 135.757 45.9586L122.762 52.6413Z" fill="#7D7A7C"/>
<path d="M131.294 47.9936C129.34 49.1574 127.221 50.0177 125.008 50.5452C126.679 48.9776 128.639 47.7499 130.778 46.9305C132.741 45.746 134.937 45 137.215 44.7434C135.392 46.0819 133.401 47.1747 131.294 47.9936Z" fill="#F9E6CF"/>
<path opacity="0.5" d="M58.8757 47.9633C60.9522 50.2518 62.8986 52.6553 64.7056 55.1623C65.4752 56.175 66.1558 57.2523 66.74 58.3821C65.7592 57.5326 64.8456 56.6084 64.0072 55.6179C62.398 53.9169 60.151 51.5476 57.6004 49.1175C55.3278 46.8909 52.9248 44.8014 50.4042 42.8601C48.7342 41.5844 47.7322 41.1591 47.7929 40.9161C47.8536 40.6731 48.9467 40.5516 50.8293 41.5236C53.8954 43.1403 56.6261 45.3257 58.8757 47.9633Z" fill="#7D7A7C"/>
<path d="M53.805 43.5893C55.809 45.1992 57.0843 46.8699 56.8413 47.0825C56.5984 47.2952 54.9891 46.0801 53.0459 44.5006C51.1026 42.9211 49.4325 41.7971 49.554 41.463C49.6755 41.1289 51.8009 41.9187 53.805 43.5893Z" fill="#F9E6CF"/>
<path opacity="0.5" d="M30.7587 39.519C35.8598 42.5565 40.3233 45.5941 43.5116 47.8723C45.1209 48.9962 46.548 49.9378 47.2767 50.6365C47.7556 50.9579 48.203 51.324 48.6127 51.73C48.0812 51.4946 47.5729 51.2099 47.0945 50.8795L43.1168 48.4798C39.7464 46.4446 35.1311 43.6804 29.9692 41.0681C25.3182 38.4576 20.5117 36.1345 15.5767 34.1121C13.8273 33.6011 12.1214 32.951 10.4756 32.168C10.4756 31.9554 12.176 31.7732 15.6678 32.654C20.9914 34.2328 26.0702 36.5431 30.7587 39.519Z" fill="#7D7A7C"/>
<path d="M20.7993 34.7194C23.2375 35.5725 25.486 36.8932 27.4187 38.6075C24.961 37.9506 22.5872 37.0129 20.3439 35.813C17.9564 34.9683 15.6326 33.9531 13.3905 32.7754C15.9781 32.8349 18.5157 33.5007 20.7993 34.7194Z" fill="#F9E6CF"/>
<path opacity="0.5" d="M66.74 42.0704C68.2913 44.6812 69.6707 47.3903 70.8695 50.1807C71.4495 51.3418 71.927 52.5513 72.2966 53.7954C71.5296 52.7535 70.8395 51.6571 70.2318 50.5148C68.9869 48.4797 67.1955 45.6851 65.2522 42.8298C63.5027 40.2202 61.4656 37.8156 59.1794 35.6611C57.6004 34.3246 56.5681 33.9904 56.5984 33.7474C56.6288 33.5044 57.7826 33.2918 59.817 34.3853C62.7286 36.33 65.1083 38.9717 66.74 42.0704Z" fill="#7D7A7C"/>
<path d="M62.3069 36.8459C64.0983 38.7596 65.07 40.6429 64.7967 40.8251C64.5234 41.0074 63.157 39.4886 61.4567 37.7876C59.7563 36.0865 58.1773 34.75 58.2684 34.5677C58.3595 34.3855 60.6672 34.993 62.3069 36.8459Z" fill="#F9E6CF"/>
<path opacity="0.5" d="M39.4124 37.6357C44.2099 41.3719 48.5216 45.0778 51.3151 47.8116C52.8029 49.1785 53.9871 50.3328 54.7766 51.1225C55.23 51.5101 55.6375 51.9483 55.9911 52.4287C55.5005 52.1085 55.0338 51.7532 54.5944 51.3655L50.8293 48.328C47.7929 45.8372 43.3597 42.4047 38.4711 38.8811C34.0651 35.668 29.4608 32.736 24.6859 30.1025C21.437 28.4015 19.6151 28.037 19.6455 27.7636C19.6758 27.4902 21.4673 27.3687 24.9288 28.6749C30.1625 30.9492 35.0407 33.9672 39.4124 37.6357Z" fill="#7D7A7C"/>
<path d="M29.9389 31.439C32.2443 32.6465 34.3039 34.2742 36.0117 36.2384C33.6539 35.2189 31.414 33.9457 29.3316 32.4414C25.6576 30.1936 22.4997 28.9178 22.5908 28.5229C25.2474 28.8572 27.7757 29.8606 29.9389 31.439Z" fill="#F9E6CF"/>
<path opacity="0.5" d="M50.6167 34.203C53.9568 38.0304 56.6895 41.6755 58.8454 44.3485L61.2441 47.5684C61.5586 47.9486 61.8239 48.367 62.0336 48.8138C61.6543 48.4963 61.299 48.1511 60.9708 47.781L58.2988 44.7434C56.0215 42.283 52.9244 38.8505 49.4022 35.2358C45.1816 30.9528 41.9023 27.7634 39.625 25.8801C38.387 24.9442 37.2105 23.9296 36.1028 22.8425C36.1028 22.5995 37.6513 22.8425 40.2323 24.5435C44.0923 27.306 47.5823 30.5523 50.6167 34.203Z" fill="#7D7A7C"/>
<path d="M43.8152 27.6116C45.5627 28.9749 47.0012 30.6935 48.0358 32.654C46.1611 31.5211 44.4629 30.119 42.9954 28.4925C41.2949 27.1377 39.729 25.622 38.3193 23.9666C40.4365 24.6837 42.3306 25.9399 43.8152 27.6116Z" fill="#F9E6CF"/>
<path opacity="0.5" d="M77.3977 21.5669C78.2783 27.2168 78.8552 32.4111 79.1892 36.208C79.3714 38.0913 79.4928 39.6405 79.5839 40.734C79.6304 41.2899 79.6304 41.8488 79.5839 42.4047C79.4291 41.8659 79.3074 41.3181 79.2196 40.7644C79.0374 39.7012 78.7641 38.1825 78.4301 36.3295C77.8228 32.5629 76.9119 27.4294 75.8492 21.8707C74.4828 15.1273 73.2986 10.0849 72.3573 6.68281C71.416 3.28073 70.5962 1.82269 70.7784 1.67081C70.9606 1.51894 72.2359 2.67322 73.5719 5.89304C75.4508 10.9514 76.7348 16.2115 77.3977 21.5669Z" fill="#7D7A7C"/>
<path d="M74.9383 11.148C75.7423 13.5119 76.1026 16.0041 76.001 18.4989C74.9604 16.2583 74.2251 13.8881 73.8148 11.4518C73.0553 9.12039 72.4767 6.73388 72.084 4.31348C73.5847 6.3211 74.5653 8.66911 74.9383 11.148Z" fill="#F9E6CF"/>
<path opacity="0.5" d="M61.0012 30.8618C62.8838 34.6892 64.3716 38.2735 65.404 41.0681C65.9202 42.4046 66.3149 43.4677 66.5882 44.1056C66.7588 44.4942 66.8812 44.9023 66.9525 45.3207C66.6738 44.954 66.4583 44.5434 66.3149 44.1056L64.736 41.0681C63.4303 38.5772 61.6996 34.9929 59.5437 31.4693C57.6993 28.13 55.6719 24.8951 53.4709 21.7795C52.0135 19.7139 51.0115 18.9241 51.1026 18.7419C51.1936 18.5596 52.5297 18.7419 54.3819 20.6859C57.1303 23.6925 59.3665 27.1302 61.0012 30.8618Z" fill="#7D7A7C"/>
<path d="M56.7502 24.0879C57.9381 25.5393 58.7514 27.2604 59.1186 29.0999C58.815 29.2822 57.4486 27.247 55.7482 24.7562C54.5734 23.3415 53.5553 21.8036 52.7118 20.1695C53.0155 19.8049 55.0498 21.506 56.7502 24.0879Z" fill="#F9E6CF"/>
<path opacity="0.5" d="M61.2745 24.9993C63.9162 31.3782 66.0113 37.3318 67.3473 41.6755L69.0173 46.8698C69.2284 47.5068 69.4007 48.156 69.5335 48.8138C69.2106 48.2299 68.9364 47.6203 68.7137 46.9913L66.74 41.9489C65.0093 37.6963 62.6105 31.8946 59.7563 25.6675C57.2241 19.9887 54.2917 14.4971 50.9811 9.23425C48.7038 5.77142 47.0338 4.46526 47.1552 4.28301C47.2767 4.10075 49.22 4.79939 51.892 8.0496C55.787 13.2389 58.9445 18.943 61.2745 24.9993Z" fill="#7D7A7C"/>
<path d="M55.3535 13.7299C57.0053 16.2363 58.2075 19.0117 58.9061 21.9314C57.1539 19.5316 55.6195 16.98 54.3211 14.3071C51.9527 10.0545 49.5843 6.92576 49.7665 6.71313C52.1624 8.572 54.0782 10.9781 55.3535 13.7299Z" fill="#F9E6CF"/>
<path opacity="0.5" d="M55.2624 32.7146C58.2988 38.0304 61.0012 43.012 62.8838 46.6571C63.7643 48.4796 64.5234 49.9984 65.0396 51.0312C65.3135 51.5636 65.5568 52.1113 65.7683 52.6715C65.3912 52.2058 65.0559 51.7078 64.7663 51.1831L62.2158 47.1431C60.0903 43.6499 57.1753 38.8202 53.8657 33.6867C49.8576 27.3381 46.7301 22.8425 44.5136 19.8049C42.297 16.7674 40.9306 15.4308 41.0521 15.2182C41.1735 15.0056 42.8132 15.765 45.3638 18.5292C49.1473 22.9006 52.4648 27.6548 55.2624 32.7146Z" fill="#7D7A7C"/>
<path d="M48.7645 23.1767C50.462 25.2568 51.7964 27.6085 52.7118 30.1328C50.8379 28.2502 49.1966 26.1493 47.8232 23.8754C46.1702 21.8055 44.678 19.612 43.3597 17.3142C45.5566 18.8628 47.3989 20.8612 48.7645 23.1767Z" fill="#F9E6CF"/>
<path opacity="0.5" d="M49.2807 80.5565C51.969 80.0029 54.6856 79.5973 57.4183 79.3415C58.56 79.2465 59.7076 79.2465 60.8494 79.3415C59.7942 79.6287 58.718 79.8318 57.6308 79.949C55.5964 80.435 52.7726 81.1033 49.7969 82.0145C46.1836 83.1081 43.5419 84.0801 41.8112 84.7787C40.0804 85.4774 39.1695 85.9026 39.0481 85.7811C38.9266 85.6596 39.3821 84.8091 40.961 83.6245C43.5301 82.1156 46.3474 81.0767 49.2807 80.5565Z" fill="#7D7A7C"/>
<path d="M43.6634 82.4703C45.8192 81.6198 47.6714 81.4071 47.7625 81.7109C47.8536 82.0147 46.1532 82.7437 44.1188 83.5638C43.0561 83.9587 42.1755 84.384 41.4468 84.5662C40.7181 84.7485 40.3537 84.9915 40.2322 84.8396C40.1108 84.6877 40.4448 84.3232 41.0521 83.8372C41.8742 83.2947 42.7491 82.8367 43.6634 82.4703Z" fill="#F9E6CF"/>
<path opacity="0.5" d="M27.9348 85.1736C32.5893 84.0041 37.3023 83.0814 42.0541 82.4094C43.9063 82.136 45.3941 81.9538 46.4265 81.8627C46.9719 81.8134 47.5207 81.8134 48.0662 81.8627L46.4872 82.2879L42.2059 83.2599C38.5926 84.0801 33.6433 85.2344 28.3599 86.8443C23.5633 88.2396 18.9075 90.0803 14.4532 92.3423C11.4168 93.9826 10.3845 95.228 10.1719 95.0761C9.95938 94.9242 10.6577 93.4054 13.4209 91.3399C17.8321 88.3969 22.7548 86.3055 27.9348 85.1736Z" fill="#7D7A7C"/>
<path d="M18.1576 88.8187C20.3239 87.6843 22.702 87.012 25.1414 86.8442C23.0932 88.0918 20.9141 89.1105 18.6435 89.8818C15.1213 91.4917 12.3581 93.1928 12.0849 92.9801C11.8116 92.7675 14.4229 90.459 18.1576 88.8187Z" fill="#F9E6CF"/>
<path opacity="0.5" d="M26.5077 82.7435C32.7627 81.7411 38.5015 81.1032 42.6917 80.7083L47.6714 80.2527H49.5236C48.9434 80.4519 48.3424 80.5844 47.7322 80.6476L42.8132 81.4981C38.6533 82.1967 32.9449 83.1688 26.781 84.5357C19.3418 86.0545 13.7549 87.3606 10.0808 88.4541C6.4068 89.5477 4.67605 90.3678 4.5546 90.1856C4.43314 90.0033 5.73879 88.6971 9.26101 87.148C14.8274 85.04 20.6124 83.5626 26.5077 82.7435Z" fill="#7D7A7C"/>
<path d="M15.1212 85.4471C17.7353 84.5856 20.4767 84.1747 23.2284 84.2321C20.6874 85.3331 18.0283 86.1383 15.3034 86.6318C12.71 87.4626 10.0619 88.1122 7.37843 88.5758C9.70853 86.9957 12.3478 85.9292 15.1212 85.4471Z" fill="#F9E6CF"/>
<path opacity="0.5" d="M24.6555 69.439C30.7283 70.1073 36.042 70.8363 39.8375 71.4438L44.5136 72.2032C45.1004 72.2718 45.6797 72.3938 46.2443 72.5677C45.6585 72.6212 45.069 72.6212 44.4832 72.5677L39.7464 72.2336L24.3519 71.14C17.1556 70.6844 11.7205 70.3503 8.07681 70.2288C6.22856 70.2762 4.37965 70.1644 2.55057 69.8946C2.55057 69.682 4.12949 69.0441 7.71244 68.8011C13.3681 68.5438 19.0353 68.7572 24.6555 69.439Z" fill="#7D7A7C"/>
<path d="M13.4816 68.9531C16.0927 68.851 18.7018 69.2003 21.194 69.9859C18.6208 70.3764 16.0074 70.4274 13.4209 70.1377C10.8364 70.1884 8.25315 69.9849 5.70842 69.5302C8.23536 68.8228 10.8779 68.6266 13.4816 68.9531Z" fill="#F9E6CF"/>
<path opacity="0.5" d="M87.7215 46.5052C86.932 49.968 86.1122 53.1271 85.5049 55.4053C85.2086 56.6664 84.823 57.9048 84.3511 59.1111C84.3874 57.8258 84.5296 56.5457 84.7762 55.2838C85.1102 52.9145 85.596 49.6946 86.1122 46.1711C86.4737 41.8402 87.3087 37.5621 88.602 33.4133C89.1182 33.3829 89.7862 37.5444 87.7215 46.5052Z" fill="#7D7A7C"/>
<path d="M88.6021 39.8833C88.2377 42.4349 87.6 44.4093 87.266 44.3486C86.9177 42.8292 86.9177 41.2508 87.266 39.7314C87.341 38.1735 87.7228 36.6458 88.3895 35.2358C88.8753 35.2662 88.9968 37.3621 88.6021 39.8833Z" fill="#F9E6CF"/>
<path opacity="0.5" d="M83.7438 31.2263C83.3795 36.9673 82.924 42.2223 82.5293 46.0496C82.3167 47.9633 82.1649 49.5125 82.0434 50.5756C82.0277 51.1422 81.9358 51.7042 81.7702 52.2463C81.719 51.6906 81.719 51.1313 81.7702 50.5756C81.7702 49.4821 81.7702 47.9329 81.7702 46.0192C81.7702 42.1615 81.9523 36.9065 82.0738 31.1655C82.256 24.2398 82.3471 19.0152 82.4382 15.4613C82.3481 13.6824 82.4602 11.8991 82.7722 10.1455C83.3187 10.024 84.7762 16.4029 83.7438 31.2263Z" fill="#7D7A7C"/>
<path d="M83.8045 20.4733C83.9837 22.9792 83.7268 25.4973 83.0454 27.9154C82.5648 25.4657 82.4217 22.9618 82.6203 20.4733C82.478 17.9833 82.6309 15.4853 83.0758 13.0312C83.7941 15.4421 84.0415 17.9688 83.8045 20.4733Z" fill="#F9E6CF"/>
<path opacity="0.5" d="M87.9948 29.6164C87.1749 35.327 86.3247 40.5517 85.6264 44.3183C85.3531 46.2016 84.9584 47.7507 84.9584 48.8139C84.8585 49.3678 84.7268 49.9155 84.5636 50.4542C84.4904 49.8997 84.4904 49.338 84.5636 48.7835C84.5636 47.69 84.8065 46.1408 84.9887 44.2271C85.3835 40.3998 85.8996 35.1144 86.4766 29.4342C87.1446 22.5085 87.6608 17.2839 88.0251 13.7603C88.061 11.9661 88.3055 10.1821 88.7539 8.44451C89.27 8.38376 90.2417 14.8842 87.9948 29.6164Z" fill="#7D7A7C"/>
<path d="M88.936 18.8634C88.9152 21.3794 88.4739 23.8743 87.6304 26.2447C87.3114 23.7601 87.3626 21.2419 87.7822 18.7723C87.8242 16.2709 88.1605 13.7832 88.7842 11.3606C89.3021 13.8302 89.3536 16.3749 88.936 18.8634Z" fill="#F9E6CF"/>
<path opacity="0.5" d="M96.3449 46.0194C94.857 49.3304 93.3085 52.3376 92.3065 54.4942C91.7512 55.6824 91.1119 56.8295 90.3935 57.9267C90.6977 56.647 91.1143 55.3968 91.6384 54.1905C92.4583 51.8819 93.5817 48.7836 94.8267 45.4119C96.1386 41.2075 97.7104 37.0887 99.5331 33.0793C100.14 33.0793 100.14 37.4838 96.3449 46.0194Z" fill="#7D7A7C"/>
<path d="M98.5007 39.5796C97.6505 42.0401 96.6485 43.9234 96.3449 43.8019C96.3435 42.2152 96.6962 40.6481 97.3772 39.2151C98.2274 36.7851 98.9258 34.841 99.2598 34.9018C99.4549 36.5015 99.1916 38.1238 98.5007 39.5796Z" fill="#F9E6CF"/>
<path opacity="0.5" d="M90.0292 106.437C89.3915 103.217 88.6628 100.361 88.0555 98.1137C87.674 96.9607 87.3696 95.7836 87.1446 94.5901C87.1446 94.5901 87.3571 94.8938 87.6608 95.471C87.9644 96.0481 88.2984 96.8379 88.7539 97.8707C89.8763 100.542 90.8296 103.281 91.6081 106.072C93.855 114.031 92.2154 118.587 91.6081 118.374C91.0008 118.162 91.4259 118.101 91.3955 117.645C91.2866 116.931 91.2156 116.211 91.183 115.489C90.9834 112.451 90.598 109.428 90.0292 106.437Z" fill="#7D7A7C"/>
<path d="M91.2741 112.451C90.9512 111.031 90.9512 109.557 91.2741 108.138C91.6081 108.138 92.2457 109.93 92.4886 112.33C92.7315 114.729 92.2761 116.734 91.9421 116.704C91.4797 115.334 91.2538 113.896 91.2741 112.451Z" fill="#F9E6CF"/>
<path opacity="0.5" d="M91.9421 123.994L88.3288 109.626C87.8733 107.773 87.5089 106.254 87.266 105.191C87.1157 104.653 87.004 104.105 86.932 103.551C87.1948 104.045 87.4084 104.564 87.5697 105.1C87.9037 106.133 88.4199 107.621 89.0575 109.414C90.2721 113.059 91.8813 118.071 93.4906 123.569C97.5594 136.904 97.9238 144.346 97.3469 144.346C96.6308 142.833 96.13 141.228 95.859 139.577C95.0088 136.175 93.7335 131.163 91.9421 123.994Z" fill="#7D7A7C"/>
<path d="M94.7963 134.322C94.042 131.941 93.623 129.467 93.5514 126.971C94.7504 129.175 95.5618 131.569 95.9501 134.048C96.7363 136.436 97.066 138.95 96.9218 141.46C95.927 139.175 95.2132 136.778 94.7963 134.322Z" fill="#F9E6CF"/>
<path opacity="0.5" d="M97.4683 113.97C95.7072 109.505 93.9461 105.465 92.6708 102.488L91.183 98.782C90.9879 98.3596 90.8255 97.923 90.6971 97.4758C90.6971 97.4758 91.0311 97.8707 91.4866 98.6605L93.3388 102.002C94.8874 104.827 96.9218 108.745 98.9561 113.15C100.929 117.134 102.466 121.32 103.541 125.634C104.209 128.672 103.997 130.191 103.784 130.191C103.571 130.191 102.175 125.3 97.4683 113.97Z" fill="#7D7A7C"/>
<path d="M100.991 122.05C100.099 120.13 99.5252 118.078 99.2902 115.975C100.618 117.627 101.58 119.542 102.114 121.594C103.012 123.489 103.439 125.573 103.359 127.669C102.346 125.899 101.55 124.012 100.991 122.05Z" fill="#F9E6CF"/>
<path opacity="0.5" d="M108.096 104.645C106.061 101.607 103.966 99.0858 102.448 97.1721C101.582 96.2059 100.771 95.1918 100.019 94.1345C100.019 94.1345 100.353 94.3168 100.869 94.7724C101.385 95.2281 102.114 95.8963 102.995 96.7468C105.276 98.9375 107.416 101.271 109.401 103.733C111.637 106.327 113.33 109.343 114.381 112.603C114.958 114.881 114.654 116.127 114.381 116.127C112.625 112.123 110.522 108.281 108.096 104.645Z" fill="#7D7A7C"/>
<path d="M111.891 110.142C110.707 107.895 109.675 106.042 109.948 105.859C110.221 105.677 111.679 107.257 112.984 109.596C114.29 111.935 114.533 114.182 114.199 114.243C113.865 114.304 113.106 112.39 111.891 110.142Z" fill="#F9E6CF"/>
<path opacity="0.5" d="M104.725 90.2159C102.721 88.4845 100.748 86.996 99.3205 85.9329C98.4914 85.4054 97.7181 84.7948 97.0128 84.1104C97.9547 84.404 98.861 84.8013 99.7152 85.295C101.828 86.3567 103.858 87.5752 105.788 88.9401C107.934 90.3394 109.723 92.2224 111.011 94.4381C111.8 96.048 111.679 97.0504 111.466 97.0808C111.254 97.1112 109.918 94.6811 104.725 90.2159Z" fill="#7D7A7C"/>
<path d="M108.46 93.3751C107.215 91.9778 106.183 90.8236 106.395 90.5502C106.608 90.2768 108.005 91.0969 109.432 92.5853C110.859 94.0737 111.314 95.6229 111.011 95.8052C110.707 95.9874 109.735 94.742 108.46 93.3751Z" fill="#F9E6CF"/>
<path opacity="0.5" d="M118.359 74.9066C114.806 74.4814 111.496 74.3295 109.067 74.1776C107.757 74.1727 106.449 74.0814 105.15 73.9042C106.439 73.6328 107.751 73.4803 109.067 73.4486C111.496 73.2967 114.806 73.1448 118.48 73.2663C121.89 73.2425 125.268 73.9143 128.409 75.2407C130.565 76.2431 131.142 77.5797 130.96 77.6708C130.778 77.7619 130.049 77.1848 127.923 76.638C124.791 75.7874 121.591 75.2082 118.359 74.9066Z" fill="#7D7A7C"/>
<path d="M124.917 75.5749C122.458 75.0281 120.393 74.6029 120.423 74.2687C121.992 73.84 123.653 73.893 125.191 74.4206C127.802 74.937 129.654 76.2735 129.472 76.5469C127.928 76.3566 126.404 76.0313 124.917 75.5749Z" fill="#F9E6CF"/>
<path opacity="0.5" d="M99.0169 52.5804C97.2861 54.98 95.6768 57.1671 94.4623 58.6555C93.858 59.5435 93.1773 60.3769 92.4279 61.1463C92.7874 60.0831 93.2661 59.0641 93.855 58.1087C94.7963 56.3773 96.1323 54.008 97.6505 51.4565C101.264 45.3813 103.723 42.5867 104.239 42.8298C104.756 43.0728 103.48 46.3837 99.0169 52.5804Z" fill="#7D7A7C"/>
<path d="M101.841 47.8418C100.687 49.6035 99.5331 50.8793 99.2598 50.7275C98.9865 50.5756 99.6849 48.9657 100.839 47.2039C101.993 45.4421 103.146 44.1663 103.42 44.3182C103.693 44.4701 102.995 46.08 101.841 47.8418Z" fill="#F9E6CF"/>
<path opacity="0.5" d="M123.521 55.9521L111.618 61.116L107.944 62.6956C107.506 62.9192 107.049 63.1022 106.578 63.2423C106.578 63.2423 107.003 62.9082 107.792 62.4222L111.284 60.4478C114.32 58.8378 118.298 56.6508 122.853 54.3726C126.993 52.2649 131.324 50.5561 135.788 49.2695C138.824 48.4797 140.524 48.6316 140.524 48.8746C140.524 49.1176 139.249 49.4517 136.486 50.5453C133.723 51.6388 129.502 53.431 123.521 55.9521Z" fill="#7D7A7C"/>
<path d="M132.053 52.0946C130.135 53.038 128.089 53.6931 125.98 54.0386C127.695 52.6553 129.666 51.6231 131.78 51.001C133.765 49.9957 135.961 49.4752 138.186 49.4822C136.254 50.5953 134.195 51.4724 132.053 52.0946Z" fill="#F9E6CF"/>
<path opacity="0.5" d="M117.934 111.57C114.26 107.287 110.737 103.49 108.187 100.726L105.15 97.4151C104.766 97.0264 104.411 96.6102 104.088 96.1697C104.555 96.4712 104.992 96.817 105.393 97.2025L108.703 100.24C111.496 102.822 115.262 106.315 119.148 110.507C122.822 114.181 126.071 118.257 128.834 122.657C130.656 125.695 130.96 127.578 130.747 127.639C130.535 127.7 129.806 126.363 127.711 123.72C125.616 121.078 122.701 117.007 117.934 111.57Z" fill="#7D7A7C"/>
<path d="M124.887 119.437C123.238 117.599 121.83 115.557 120.697 113.362C122.727 114.782 124.468 116.576 125.828 118.648C127.522 120.467 128.779 122.648 129.502 125.027C127.814 123.293 126.27 121.424 124.887 119.437Z" fill="#F9E6CF"/>
<path opacity="0.5" d="M107.974 118.921C105.758 114.456 103.511 110.477 101.901 107.591L99.8974 104.158C99.6182 103.75 99.3841 103.312 99.1991 102.852C99.557 103.188 99.8731 103.565 100.14 103.976C100.717 104.736 101.567 105.799 102.509 107.196C105.021 110.73 107.352 114.39 109.492 118.162C111.851 122.167 113.611 126.495 114.715 131.011C115.231 134.048 115.14 135.749 114.715 135.749C114.059 134.455 113.588 133.074 113.318 131.648C111.791 127.304 110.006 123.054 107.974 118.921Z" fill="#7D7A7C"/>
<path d="M112.043 127.244C111.102 125.314 110.408 123.273 109.978 121.169C111.401 122.824 112.438 124.775 113.015 126.88C113.537 128.339 113.963 129.83 114.29 131.345C114.29 132.56 114.29 133.289 114.29 133.319C114.29 133.35 113.865 132.651 113.501 131.557C113.136 130.464 112.681 128.915 112.043 127.244Z" fill="#F9E6CF"/>
<path opacity="0.5" d="M106.426 67.8292C102.327 68.4367 98.8954 69.4087 98.8347 69.2265C99.4698 68.787 100.152 68.4202 100.869 68.1329C102.601 67.3647 104.387 66.7251 106.213 66.2193C108.172 65.5621 110.276 65.4674 112.286 65.9459C113.713 66.4623 114.108 67.2824 113.956 67.4343C113.804 67.5862 113.227 67.4343 112.134 67.4343C110.223 67.3996 108.313 67.5317 106.426 67.8292Z" fill="#7D7A7C"/>
<path d="M110.16 67.1305C108.733 67.1305 107.488 67.1305 107.428 66.7963C107.367 66.4622 108.551 65.9762 110.13 65.9458C111.709 65.9155 113.166 66.5837 112.832 66.8875C112.498 67.1912 111.588 67.0394 110.16 67.1305Z" fill="#F9E6CF"/>
<path opacity="0.5" d="M110.1 41.4023L102.691 50.515L100.383 53.2185C100.104 53.5741 99.7884 53.8998 99.442 54.1905C99.6385 53.8419 99.8727 53.5159 100.14 53.2185L102.144 50.1809L108.824 40.4607C115.171 31.3479 119.118 27.2776 119.482 27.551C119.847 27.8244 117.448 32.1985 110.1 41.4023Z" fill="#7D7A7C"/>
<path d="M115.019 34.4463C113.075 37.0586 111.284 39.0026 111.011 38.8204C111.696 36.9451 112.726 35.2144 114.047 33.7172C116.021 31.1049 117.812 29.1609 118.085 29.3431C117.41 31.2299 116.368 32.9643 115.019 34.4463Z" fill="#F9E6CF"/>
<path opacity="0.5" d="M101.598 34.6892C99.0472 39.7923 96.6789 44.4702 94.9785 47.9027C94.0979 49.5733 93.3692 50.9402 92.8834 51.9123C92.6305 52.4155 92.3466 52.9024 92.0332 53.3703C92.1798 52.8282 92.3728 52.2997 92.6101 51.7907C93.0048 50.7883 93.5817 49.3303 94.3105 47.5989C95.8287 44.1057 97.8631 39.2456 100.14 33.9906C105.636 21.3239 109.25 15.1576 109.705 15.3399C110.16 15.5221 108.126 21.4758 101.598 34.6892Z" fill="#7D7A7C"/>
<path d="M105.879 24.9386C105.017 27.2663 103.787 29.4404 102.235 31.3782C102.718 28.9362 103.589 26.5876 104.816 24.4222C105.679 22.0851 106.909 19.9009 108.46 17.9521C107.986 20.4059 107.114 22.7658 105.879 24.9386Z" fill="#F9E6CF"/>
<path opacity="0.5" d="M114.806 84.4445C112.444 83.2778 110.01 82.2632 107.519 81.407C106.48 81.0963 105.465 80.7105 104.482 80.2527C104.785 80.2188 105.091 80.2188 105.393 80.2527C106.209 80.3324 107.02 80.4541 107.822 80.6172C110.465 81.1221 113.056 81.8642 115.565 82.8346C118.328 83.8314 120.778 85.5392 122.67 87.7859C123.068 88.4302 123.423 89.0999 123.733 89.7907C123.733 90.3071 123.733 90.5804 123.733 90.6412C121.084 88.1409 118.075 86.0521 114.806 84.4445Z" fill="#7D7A7C"/>
<path d="M119.725 87.0266C118.96 86.5295 118.23 85.9815 117.539 85.3863C116.932 84.961 116.628 84.6269 116.689 84.475C116.749 84.3231 117.235 84.475 117.934 84.6573C118.811 85.0637 119.654 85.5412 120.454 86.0849C121.202 86.7041 121.866 87.419 122.428 88.2112C122.792 88.8795 122.944 89.3351 122.822 89.4263C122.701 89.5174 122.306 89.244 121.82 88.758C121.334 88.272 120.484 87.7556 119.725 87.0266Z" fill="#F9E6CF"/>
<path opacity="0.5" d="M129.229 82.6525C124.067 81.4982 119.27 80.678 115.808 80.1009L111.648 79.4023C111.135 79.3291 110.627 79.2174 110.13 79.0681C110.646 79.0284 111.163 79.0284 111.679 79.0681L115.869 79.3719C119.421 79.6756 124.28 80.1313 129.533 81.0425C134.409 81.7235 139.157 83.126 143.622 85.204C146.658 86.7228 147.63 88.2416 147.478 88.4542C147.326 88.6669 146.203 87.6948 143.318 86.6317C138.727 84.9567 134.018 83.6267 129.229 82.6525Z" fill="#7D7A7C"/>
<path d="M138.794 84.809C136.558 84.3053 134.395 83.5194 132.357 82.4701C134.681 82.3947 136.996 82.7979 139.158 83.6548C141.433 84.1662 143.53 85.278 145.231 86.8746C143.049 86.3029 140.901 85.6134 138.794 84.809Z" fill="#F9E6CF"/>
<path opacity="0.5" d="M99.5027 30.8011C97.3772 36.694 95.3428 42.1009 93.7943 45.989C93.0048 47.933 92.3672 49.5126 91.9421 50.6061C91.7524 51.1949 91.487 51.7565 91.1526 52.2768C91.2814 51.6809 91.4436 51.0927 91.6384 50.515C91.9724 49.3607 92.4886 47.7508 93.0959 45.746C94.3712 41.7364 96.1323 36.2384 97.9541 30.2847L103.177 13.9122C103.642 12.0174 104.325 10.1827 105.211 8.44458C105.727 8.50533 105.059 15.5525 99.5027 30.8011Z" fill="#7D7A7C"/>
<path d="M102.903 19.5315C102.29 22.2047 101.266 24.7665 99.8671 27.1255C100.163 24.4118 100.806 21.7473 101.78 19.1974C102.398 16.5462 103.325 13.977 104.543 11.5427C104.467 14.281 103.912 16.9847 102.903 19.5315Z" fill="#F9E6CF"/>
<path opacity="0.5" d="M116.081 94.8636C113.045 93.0107 110.464 91.4311 108.46 90.3072C107.341 89.7332 106.256 89.0942 105.211 88.3936C105.546 88.4406 105.873 88.5326 106.183 88.6669C106.82 88.8796 107.701 89.1833 108.764 89.639C111.563 90.7559 114.291 92.0443 116.932 93.4967C119.792 95.0082 122.379 96.99 124.583 99.3592C125.95 101.151 126.344 102.184 126.102 102.397C125.859 102.609 123.43 99.7541 116.081 94.8636Z" fill="#7D7A7C"/>
<path d="M121.395 98.3263C119.452 96.8075 117.934 95.5014 118.116 95.2888C118.298 95.0761 120.15 95.8659 122.124 97.4151C122.943 98.1117 123.705 98.8736 124.401 99.6932C124.887 100.422 125.1 100.908 124.978 100.999C124.857 101.091 124.401 100.817 123.824 100.301C123.247 99.7844 122.367 99.0857 121.395 98.3263Z" fill="#F9E6CF"/>
<path opacity="0.5" d="M136.122 68.4062C132.448 68.4062 129.047 68.8618 126.557 69.1049C125.219 69.2972 123.87 69.4088 122.519 69.439C122.841 69.2635 123.19 69.1404 123.551 69.0745L126.436 68.3758C129.602 67.6695 132.805 67.1421 136.031 66.7963C139.488 66.2841 143.011 66.4283 146.415 67.2216C148.753 67.9202 149.664 68.9226 149.451 69.0745C149.239 69.2264 148.358 69.0745 146.263 68.6796C142.895 68.3204 139.504 68.229 136.122 68.4062Z" fill="#7D7A7C"/>
<path d="M143.014 68.0722C141.391 68.171 139.764 67.9649 138.217 67.4647C139.749 66.8154 141.434 66.6153 143.075 66.8875C145.808 67.0394 147.933 67.9507 147.812 68.2848C146.21 68.3997 144.6 68.3284 143.014 68.0722Z" fill="#F9E6CF"/>
<path opacity="0.5" d="M131.84 61.3591L122.002 63.9714L118.966 64.7612C118.237 64.9434 117.843 65.0345 117.812 64.9738C118.149 64.7675 118.505 64.5946 118.875 64.4574L121.76 63.2728C124.219 62.3007 127.62 61.0553 131.355 59.8099C134.791 58.5954 138.341 57.7304 141.952 57.228C144.411 56.9546 145.717 57.228 145.686 57.5014C141.167 59.109 136.54 60.3981 131.84 61.3591Z" fill="#7D7A7C"/>
<path d="M138.854 59.2934C137.226 59.8986 135.486 60.1472 133.753 60.0224C135.179 59.0201 136.824 58.3743 138.551 58.1391C140.203 57.5399 141.988 57.4034 143.713 57.7442C142.192 58.5309 140.55 59.0547 138.854 59.2934Z" fill="#F9E6CF"/>
<path opacity="0.5" d="M122.093 42.6172C118.541 45.1688 115.322 47.5988 112.984 49.3302L110.191 51.4262C109.86 51.7075 109.492 51.9425 109.098 52.1248C109.357 51.7806 109.652 51.4649 109.978 51.1832L112.529 48.7835C114.685 46.7787 117.691 44.1056 121.122 41.3111C124.213 38.6817 127.583 36.4 131.172 34.5069C133.662 33.2919 135.211 33.2311 135.211 33.4437C135.211 33.6564 134.239 34.1728 132.174 35.6308C130.11 37.0888 126.709 39.3366 122.093 42.6172Z" fill="#7D7A7C"/>
<path d="M128.591 37.666C127.117 38.8954 125.429 39.8427 123.612 40.4606C123.43 40.1872 125.312 38.4254 127.923 36.6636C129.419 35.412 131.222 34.5835 133.146 34.2639C133.298 34.5677 131.172 35.9042 128.591 37.666Z" fill="#F9E6CF"/>
<path opacity="0.5" d="M130.899 88.3022C127.255 86.8442 123.794 85.781 121.243 85.0216L118.207 84.1407L117.114 83.7458C117.114 83.7458 117.539 83.7458 118.268 83.7458C118.996 83.7458 120.09 83.9889 121.304 84.2015C124.691 84.8157 128.038 85.6374 131.324 86.6619C134.929 87.6451 138.269 89.4195 141.101 91.8562C142.954 93.6787 143.288 95.076 143.045 95.1671C142.802 95.2583 142.164 94.4077 140.373 93.1016C137.424 91.1182 134.242 89.5062 130.899 88.3022Z" fill="#7D7A7C"/>
<path d="M137.64 91.0666C135.211 89.6693 133.146 88.6669 133.298 88.3328C135.068 88.4091 136.777 89.0003 138.217 90.0338C140.767 91.4615 142.286 93.4359 141.982 93.6485C140.479 92.8845 139.029 92.022 137.64 91.0666Z" fill="#F9E6CF"/>
<path opacity="0.5" d="M116.507 105.677C113.075 102.275 109.735 99.3288 107.397 97.2025L104.361 94.651C103.982 94.366 103.636 94.04 103.329 93.679C103.759 93.877 104.166 94.1214 104.543 94.408C105.302 94.9244 106.395 95.6534 107.58 96.6254C110.221 98.5391 113.652 101.243 117.478 104.493C120.962 107.398 124.027 110.771 126.587 114.517C128.106 117.159 128.561 118.678 128.318 118.8C128.075 118.921 127.286 117.828 125.585 115.549C123.885 113.271 120.97 110.051 116.507 105.677Z" fill="#7D7A7C"/>
<path d="M122.974 111.965C120.697 109.383 118.845 107.257 119.087 107.014C119.33 106.771 121.547 108.563 123.855 111.206C124.833 112.354 125.726 113.572 126.527 114.851C127.073 115.853 127.286 116.552 127.164 116.643C127.043 116.734 126.557 116.187 125.859 115.337C125.16 114.486 124.098 113.271 122.974 111.965Z" fill="#F9E6CF"/>
<path opacity="0.5" d="M108.217 113.028C106.092 109.414 104.027 106.133 102.539 103.733L100.808 100.878C100.573 100.538 100.379 100.171 100.231 99.7844C100.546 100.049 100.821 100.355 101.051 100.696C101.567 101.334 102.296 102.214 103.146 103.308C104.877 105.556 107.215 108.654 109.584 112.147C115.656 120.531 116.689 126.12 116.203 126.211C115.717 126.302 113.865 122.323 108.217 113.028Z" fill="#7D7A7C"/>
<path d="M112.468 119.62C111.401 118.118 110.629 116.428 110.191 114.638C110.464 114.456 111.982 116.4 113.501 119.043C114.579 120.569 115.248 122.347 115.444 124.206C115.11 124.328 113.956 122.202 112.468 119.62Z" fill="#F9E6CF"/>
<path opacity="0.5" d="M127.468 97.0203C124.432 95.2888 121.608 93.9827 119.543 92.798C118.384 92.2907 117.267 91.6914 116.203 91.0059C117.447 91.2778 118.666 91.6538 119.847 92.1298C122.7 93.1221 125.497 94.2679 128.227 95.5622C131.221 96.8642 133.948 98.7074 136.273 100.999C137.822 102.64 138.035 104.037 137.852 104.037C137.67 104.037 137.033 103.43 135.454 102.215C132.905 100.315 130.238 98.5796 127.468 97.0203Z" fill="#7D7A7C"/>
<path d="M133.176 100.118C131.142 98.7212 129.502 97.5365 129.684 97.0809C129.867 96.6253 131.749 97.5365 133.844 98.9946C135.939 100.453 137.184 102.184 136.881 102.397C136.577 102.609 135.18 101.485 133.176 100.118Z" fill="#F9E6CF"/>
<path opacity="0.5" d="M119.543 47.933L110.434 54.1601L107.64 56.0737C107.313 56.3278 106.956 56.542 106.578 56.7116C106.84 56.3886 107.135 56.0934 107.458 55.8307L109.978 53.5829C112.104 51.73 115.11 49.2392 118.48 46.5965C121.551 44.1251 124.868 41.9772 128.379 40.1872C130.747 39.0026 132.174 38.8203 132.235 39.033C128.18 42.2429 123.942 45.2146 119.543 47.933Z" fill="#7D7A7C"/>
<path d="M125.889 43.255C123.369 44.8953 121.243 46.2926 121.031 45.8674C120.818 45.4421 122.701 43.9233 125.251 42.2526C126.697 41.0493 128.437 40.2526 130.292 39.9441C129 41.2646 127.516 42.381 125.889 43.255Z" fill="#F9E6CF"/>
<path opacity="0.5" d="M65.9809 130.92L69.9889 118.253L71.2339 114.365C71.344 113.874 71.5283 113.403 71.7804 112.968C71.7343 113.469 71.6531 113.966 71.5375 114.456C71.325 115.398 71.0517 116.764 70.6873 118.435C69.9282 121.776 68.8655 126.394 67.6509 131.375C64.6145 143.526 61.5781 149.327 61.0619 149.084C60.5457 148.841 62.0639 143.586 65.9809 130.92Z" fill="#7D7A7C"/>
<path d="M63.4607 140.184C63.9561 137.99 64.7965 135.888 65.9505 133.957C65.8928 136.208 65.43 138.431 64.5841 140.518C64.0793 142.682 63.1952 144.739 61.9728 146.593C62.1006 144.388 62.6037 142.22 63.4607 140.184Z" fill="#F9E6CF"/>
<path opacity="0.5" d="M97.3469 25.455C95.859 30.1328 94.3105 34.3551 93.2174 37.423L91.8206 41.0681C91.6675 41.5198 91.4745 41.9569 91.2437 42.3743C91.2935 41.9312 91.385 41.4939 91.517 41.0681L92.519 37.3015C93.3692 34.2639 94.523 29.7987 95.7679 25.1512C97.2558 19.4709 98.3489 15.2183 99.1383 12.2415C99.3706 10.6688 99.7885 9.12909 100.383 7.65479C100.596 7.65479 100.93 9.05207 100.596 11.9681C99.913 16.5509 98.8258 21.0641 97.3469 25.455Z" fill="#7D7A7C"/>
<path d="M99.5027 16.5548C99.2113 18.7116 98.4662 20.7822 97.3165 22.6299C97.3197 20.502 97.6684 18.3886 98.3489 16.3725C98.6882 14.2765 99.3007 12.2341 100.171 10.2974C100.428 12.4068 100.199 14.5471 99.5027 16.5548Z" fill="#F9E6CF"/>
<path opacity="0.5" d="M112.286 43.8627C109.948 46.2624 107.792 48.4798 106.213 49.9378C105.385 50.8326 104.492 51.6651 103.541 52.4287C104.157 51.3541 104.868 50.3374 105.667 49.3911C107.033 47.5989 108.976 45.1992 111.102 42.5869C116.233 36.2688 119.543 33.4742 119.877 33.8995C120.211 34.3247 118.146 37.6053 112.286 43.8627Z" fill="#7D7A7C"/>
<path d="M116.142 39.0025C114.533 40.7947 113.106 42.0401 112.802 41.8882C112.498 41.7363 113.652 40.0353 115.262 38.2127C116.871 36.3902 118.298 35.1752 118.571 35.3574C118.845 35.5397 117.721 37.2103 116.142 39.0025Z" fill="#F9E6CF"/>
<path opacity="0.5" d="M108.49 35.8433L101.112 46.4141L98.8043 49.6339C98.5253 50.0363 98.2102 50.4125 97.863 50.7578C98.0434 50.302 98.2671 49.8647 98.531 49.4517L100.505 46.0192C102.235 43.1639 104.573 39.215 107.124 34.9624C113.409 24.6651 117.387 19.7746 117.782 20.048C118.177 20.3213 115.808 25.2422 108.49 35.8433Z" fill="#7D7A7C"/>
<path d="M113.379 27.9153C112.327 29.8555 110.927 31.5853 109.25 33.0185C109.91 30.9383 110.938 28.9938 112.286 27.2774C113.29 25.3397 114.649 23.6084 116.294 22.1743C115.665 24.2437 114.679 26.1868 113.379 27.9153Z" fill="#F9E6CF"/>
</g>
</g>
</g>
<defs>
<clipPath id="clip0_231_13318">
<rect width="151" height="154.005" fill="white"/>
</clipPath>
</defs>
</svg>
