<svg width="287" height="293" viewBox="0 0 287 293" fill="none" xmlns="http://www.w3.org/2000/svg">
<g opacity="0.8">
<g clip-path="url(#clip0_231_12714)">
<g style="mix-blend-mode:screen">
<path opacity="0.5" d="M156.399 143.7C158.168 143.17 160.054 143.17 161.823 143.7C160.48 144.815 159.007 145.765 157.437 146.529C154.609 148.261 152.532 147.741 152.186 146.991C151.839 146.24 152.705 144.277 156.399 143.7Z" fill="#7D7A7C"/>
<path d="M154.09 145.028C155.013 144.624 155.937 145.028 156.168 145.374C156.399 145.721 155.821 146.702 154.898 147.106C153.975 147.51 153.051 147.106 152.82 146.76C152.59 146.413 153.109 145.374 154.09 145.028Z" fill="#F9E6CF"/>
<path opacity="0.5" d="M160.15 157.787C160.719 156.136 160.858 154.368 160.554 152.649C160.554 151.263 159.573 150.57 159.746 150.455C159.919 150.339 160.9 150.455 161.823 152.014C162.904 153.862 163.388 155.999 163.209 158.133C162.862 163.907 160.15 166.043 159.457 165.754C158.765 165.466 158.534 162.81 160.15 157.787Z" fill="#7D7A7C"/>
<path d="M159.688 161.655C160.092 160.212 160.958 159.115 161.477 159.23C161.997 159.346 162.285 160.731 161.823 162.29C161.362 163.849 160.381 164.888 159.861 164.715C159.342 164.542 159.342 163.156 159.688 161.655Z" fill="#F9E6CF"/>
<path opacity="0.5" d="M148.319 129.093C149.712 130.35 150.647 132.037 150.974 133.885C151.262 135.155 151.262 136.021 150.974 136.021C150.685 136.021 149.011 132.961 146.414 131.691C143.817 130.421 141.509 132.095 140.99 131.172C140.47 130.248 140.99 130.017 141.74 129.093C142.451 128.544 143.281 128.168 144.164 127.996C144.894 127.838 145.651 127.855 146.373 128.046C147.095 128.236 147.762 128.595 148.319 129.093Z" fill="#7D7A7C"/>
<path d="M144.164 128.631C145.837 128.631 147.049 129.382 146.761 129.901C146.472 130.421 145.549 130.652 144.568 130.825C143.587 130.998 142.432 130.825 142.144 130.825C141.855 130.825 142.375 129.093 144.164 128.631Z" fill="#F9E6CF"/>
<path opacity="0.5" d="M134.064 137.176C135.453 136.867 136.891 136.856 138.284 137.145C139.677 137.433 140.992 138.015 142.144 138.85C139.716 138.988 137.314 139.415 134.988 140.12C131.352 142.141 129.216 143.873 128.582 143.354C127.947 142.834 128.062 142.257 128.582 140.986C129.15 139.979 129.938 139.114 130.887 138.454C131.836 137.794 132.922 137.357 134.064 137.176Z" fill="#7D7A7C"/>
<path d="M130.371 139.601C131.756 138.619 133.141 138.446 133.429 139.081C133.718 139.716 132.852 140.582 131.756 141.391C130.659 142.199 129.62 142.776 129.216 142.43C128.812 142.083 129.159 140.756 130.371 139.601Z" fill="#F9E6CF"/>
<path opacity="0.5" d="M125.581 156.286C128.864 154.301 132.482 152.932 136.257 152.245C136.257 152.245 131.929 155.189 127.312 158.884C121.541 163.33 119.463 165.754 118.713 165.523C117.963 165.293 118.078 164.253 119.001 162.464C120.537 159.8 122.826 157.651 125.581 156.286Z" fill="#7D7A7C"/>
<path d="M121.079 160.327C122.753 158.769 124.484 158.076 124.888 158.595C125.292 159.115 124.138 160.501 122.637 161.944C121.137 163.387 119.867 164.484 119.29 164.138C118.713 163.791 119.521 161.944 121.079 160.327Z" fill="#F9E6CF"/>
<path opacity="0.5" d="M167.248 131.691C165.68 133.5 163.701 134.906 161.477 135.79C162.363 133.776 163.426 131.844 164.651 130.017C165.632 128.169 165.979 127.072 166.267 127.072C166.556 127.072 166.267 126.668 166.267 126.322C166.168 126.082 166.168 125.812 166.267 125.571C166.267 125.571 167.017 124.359 168.691 125.571C169.048 126.032 169.278 126.578 169.359 127.155C169.44 127.733 169.369 128.321 169.153 128.862C168.725 129.929 168.076 130.893 167.248 131.691Z" fill="#7D7A7C"/>
<path d="M168.807 128.112C168.287 129.671 167.191 130.248 166.729 129.901C166.267 129.555 166.325 128.458 166.729 127.534C166.671 127.346 166.671 127.145 166.729 126.957C166.684 126.846 166.684 126.722 166.729 126.611C166.729 126.322 166.729 126.033 166.729 125.745C166.799 125.66 166.888 125.592 166.987 125.545C167.087 125.498 167.196 125.474 167.306 125.474C167.416 125.474 167.525 125.498 167.625 125.545C167.725 125.592 167.813 125.66 167.883 125.745C168.153 126.051 168.368 126.403 168.518 126.784C168.675 127.211 168.772 127.658 168.807 128.112Z" fill="#F9E6CF"/>
<path opacity="0.5" d="M154.263 118.874C153.971 122.086 152.945 125.188 151.262 127.939C150.916 127.939 151.262 123.551 151.262 118.817C151.228 116.838 150.837 114.883 150.108 113.043C149.795 112.66 149.542 112.232 149.358 111.773C149.069 111.484 148.954 111.253 149.011 111.022C149.069 110.792 149.993 110.041 151.839 111.022C152.929 111.98 153.732 113.22 154.16 114.606C154.588 115.992 154.624 117.469 154.263 118.874Z" fill="#7D7A7C"/>
<path d="M153.109 113.794C153.917 115.814 153.109 117.373 152.705 117.431C152.301 117.489 151.608 115.987 151.031 114.66C150.454 113.332 150.397 113.447 150.339 112.87C150.185 112.736 150.067 112.565 149.996 112.373C149.925 112.182 149.904 111.975 149.935 111.773C149.935 111.484 150.57 111.484 151.32 111.773C152.111 112.245 152.736 112.951 153.109 113.794Z" fill="#F9E6CF"/>
<path opacity="0.5" d="M156.803 116.623C157.668 111.831 158.476 107.443 159.053 104.152C159.258 102.39 159.625 100.651 160.15 98.9561C160.464 100.708 160.561 102.492 160.438 104.268C160.438 107.558 160.438 112.119 159.919 117.027C158.938 128.862 156.456 134.693 155.648 134.347C154.84 134.001 154.436 128.92 156.803 116.623Z" fill="#7D7A7C"/>
<path d="M155.706 125.687C156.225 122.223 157.149 119.509 157.726 119.567C158.303 119.625 158.476 122.512 157.726 126.033C156.976 129.555 156.168 132.211 155.591 131.807C155.013 131.403 155.706 129.093 155.706 125.687Z" fill="#F9E6CF"/>
<path opacity="0.5" d="M169.961 105.538C168.518 109.694 167.017 113.389 165.806 116.103C165.265 117.617 164.527 119.053 163.613 120.375C163.324 120.375 165.113 113.159 166.96 104.672C167.81 99.5463 169.104 94.5045 170.826 89.603C171.173 89.603 172.154 90.7 172.327 93.4712C172.246 97.6004 171.445 101.684 169.961 105.538Z" fill="#7D7A7C"/>
<path d="M171.461 97.3973C170.884 100.515 169.73 103.171 169.095 102.709C168.46 102.247 168.691 99.9953 169.095 96.9354C169.499 93.8755 170.249 91.5662 170.884 91.5662C171.519 91.5662 172.096 94.2797 171.461 97.3973Z" fill="#F9E6CF"/>
<path opacity="0.5" d="M124.599 148.434C128.067 147.082 131.8 146.548 135.507 146.875C135.507 147.222 130.775 148.55 125.811 151.263C120.04 154.554 117.212 156.459 116.462 155.939C115.712 155.42 116.174 154.554 117.385 153.111C119.262 150.857 121.777 149.227 124.599 148.434Z" fill="#7D7A7C"/>
<path d="M119.809 151.552C121.598 150.224 123.445 150.051 123.676 150.57C123.907 151.09 122.637 152.244 121.021 153.399C119.405 154.554 117.905 155.304 117.443 154.785C116.982 154.265 117.963 152.764 119.809 151.552Z" fill="#F9E6CF"/>
<path opacity="0.5" d="M99.2063 132.269C103.754 132.588 108.259 133.361 112.653 134.578C114.537 134.915 116.364 135.517 118.078 136.368C118.078 136.772 109.364 135.098 99.1486 135.329C94.5269 135.428 89.9178 135.853 85.3555 136.599C82.2968 137.061 80.6809 137.407 80.5077 137.003C80.3346 136.599 81.258 135.329 84.3167 134.116C89.0543 132.292 94.1668 131.658 99.2063 132.269Z" fill="#7D7A7C"/>
<path d="M89.2799 133.25C93.0889 132.615 96.2053 133.25 96.2053 133.712C96.2053 134.174 93.2043 134.867 89.6262 135.444C86.0481 136.021 83.1625 136.656 82.8739 135.964C82.5854 135.271 85.4132 133.712 89.2799 133.25Z" fill="#F9E6CF"/>
<path opacity="0.5" d="M190.333 120.318L179.195 126.553C177.701 127.547 176.116 128.397 174.462 129.093C175.64 127.726 176.977 126.505 178.444 125.456C180.984 123.32 184.562 120.491 188.602 117.662C192.316 114.935 196.448 112.829 200.837 111.427C203.953 110.503 205.857 111.427 205.742 111.427C205.627 111.427 201.298 114.082 190.333 120.318Z" fill="#7D7A7C"/>
<path d="M197.951 115.468C194.835 117.027 192.18 118.066 191.834 117.546C191.487 117.027 193.738 115.064 196.912 113.447C200.086 111.831 203.145 111.369 203.318 112.004C203.491 112.639 201.01 113.851 197.951 115.468Z" fill="#F9E6CF"/>
<path opacity="0.5" d="M190.852 137.06C185.081 137.06 180.118 137.869 180.06 137.522C183.341 135.676 186.946 134.48 190.679 134.001C192.195 133.588 193.789 133.556 195.319 133.908C196.85 134.261 198.269 134.987 199.451 136.021C201.067 137.984 200.317 139.37 199.971 139.37C199.625 139.37 198.99 138.677 197.835 138.157C195.602 137.34 193.229 136.967 190.852 137.06Z" fill="#7D7A7C"/>
<path d="M196.104 137.003C194.315 136.541 192.584 136.079 192.584 135.502C192.584 134.924 194.373 134.232 196.681 134.809C198.99 135.386 200.202 137.753 199.567 137.984C198.932 138.215 197.778 137.407 196.104 137.003Z" fill="#F9E6CF"/>
<path opacity="0.5" d="M183.177 100.688C180.407 104.845 177.406 108.54 175.732 111.196C174.733 112.704 173.572 114.098 172.269 115.353C172.834 113.638 173.589 111.992 174.52 110.445C176.078 107.443 178.214 103.459 180.291 98.8984C186.178 88.564 189.64 83.8298 190.333 83.8298C191.026 83.8298 190.333 90.0651 183.177 100.688Z" fill="#7D7A7C"/>
<path d="M187.447 92.4322C185.716 95.5499 183.812 97.8015 183.292 97.4551C182.773 97.1087 183.754 94.4529 185.485 91.3353C187.217 88.2176 188.832 85.966 189.41 86.1969C189.987 86.4279 189.179 89.6032 187.447 92.4322Z" fill="#F9E6CF"/>
<path opacity="0.5" d="M150.974 85.6196C151.724 91.393 152.07 97.1664 152.243 100.977C152.409 103.129 152.409 105.291 152.243 107.443C151.603 105.389 151.14 103.283 150.858 101.15C150.108 97.2241 149.185 91.9126 147.915 86.1969C146.414 79.2688 145.145 74.1305 144.164 70.7242C143.183 67.3179 142.49 65.7591 142.836 65.4704C143.183 65.1817 144.856 66.1055 146.53 69.3963C148.965 74.4962 150.47 79.9903 150.974 85.6196Z" fill="#7D7A7C"/>
<path d="M148.146 74.8233C149.3 78.9802 149.415 82.502 148.838 82.6174C148.261 82.7329 147.107 79.4421 146.01 75.4584C144.914 71.4748 144.164 68.2994 144.164 67.953C144.164 67.6066 147.049 70.6665 148.146 74.8233Z" fill="#F9E6CF"/>
<path opacity="0.5" d="M136.892 163.849C138.48 161.713 140.434 159.876 142.663 158.422C141.774 160.908 140.653 163.305 139.316 165.581C138.478 167.27 137.452 168.858 136.257 170.315C135.565 171.239 134.814 171.701 134.41 171.643C134.006 171.585 133.602 170.777 133.776 169.334C134.285 167.252 135.364 165.353 136.892 163.849Z" fill="#7D7A7C"/>
<path d="M135.103 167.544C135.853 166.158 136.95 165.35 137.469 165.696C137.989 166.043 137.758 167.313 137.065 168.641C136.373 169.969 135.449 170.777 134.93 170.604C134.41 170.431 134.295 168.93 135.103 167.544Z" fill="#F9E6CF"/>
<path opacity="0.5" d="M115.308 227.414L126.85 203.801L130.428 196.642C130.849 195.744 131.331 194.876 131.871 194.044C131.672 195.019 131.362 195.968 130.948 196.873C130.313 198.663 129.332 201.261 128.12 204.378C125.638 210.671 122.349 219.331 118.424 228.684C109.248 251.374 102.958 262.401 102.207 262.055C101.457 261.708 104.4 251.258 115.308 227.414Z" fill="#7D7A7C"/>
<path d="M108.325 244.908C109.744 240.726 111.872 236.82 114.615 233.361C113.884 237.723 112.441 241.936 110.345 245.831C108.931 250.004 106.824 253.908 104.112 257.378C104.808 253.015 106.232 248.799 108.325 244.908Z" fill="#F9E6CF"/>
<path opacity="0.5" d="M103.766 233.938L117.963 209.401C119.867 206.284 121.368 203.628 122.464 201.953C122.996 201.008 123.594 200.101 124.253 199.24C123.913 200.255 123.488 201.24 122.984 202.184C122.118 204.09 120.79 206.745 119.232 210.036L106.478 235.381C94.474 258.995 86.7406 270.484 85.9904 270.022C85.2401 269.56 89.7416 258.417 103.766 233.938Z" fill="#7D7A7C"/>
<path d="M94.474 252.067C96.3778 247.685 98.9906 243.647 102.207 240.116C100.965 244.736 99.0181 249.137 96.4362 253.164C94.4645 257.509 91.8583 261.536 88.7028 265.115C89.9146 260.484 91.8632 256.078 94.474 252.067Z" fill="#F9E6CF"/>
<path opacity="0.5" d="M91.7038 238.268C96.8979 230.532 101.688 223.431 105.324 218.35L109.652 212.577C110.691 211.191 111.268 210.383 111.383 210.44C111.041 211.307 110.616 212.138 110.114 212.923L106.478 219.331C103.304 224.758 99.0332 232.148 94.3008 240.173C82.7585 259.514 76.0062 269.04 75.0829 268.521C74.1595 268.001 78.1416 258.129 91.7038 238.268Z" fill="#7D7A7C"/>
<path d="M82.7585 253.221C84.6339 249.597 87.1348 246.333 90.1456 243.58C88.9205 247.528 86.9626 251.211 84.3744 254.434C82.6023 258.095 80.1771 261.401 77.2182 264.191C78.36 260.219 80.2395 256.497 82.7585 253.221Z" fill="#F9E6CF"/>
<path opacity="0.5" d="M97.9944 218.985L108.786 204.725C110.258 202.684 111.878 200.754 113.634 198.951C112.583 201.241 111.347 203.442 109.941 205.533C107.575 209.517 104.17 214.886 100.534 220.775C91.5884 234.92 85.6441 241.27 84.8938 240.809C84.1436 240.347 87.2023 233.303 97.9944 218.985Z" fill="#7D7A7C"/>
<path d="M90.8958 229.897C93.7237 225.798 96.3784 222.796 96.667 223.142C96.9556 223.488 95.3396 227.068 92.5118 231.167C89.6839 235.266 87.0292 238.268 86.7406 237.922C86.452 237.575 88.1257 233.938 90.8958 229.897Z" fill="#F9E6CF"/>
<path opacity="0.5" d="M100.361 187.751C106.132 183.074 111.268 178.975 115.192 176.204C117.245 174.518 119.426 172.993 121.714 171.643C121.714 171.643 121.252 172.278 120.271 173.26L116.116 177.243L102.438 190.233C89.5685 202.3 82.9893 208.246 82.2968 207.554C81.6043 206.861 85.7018 199.76 100.361 187.751Z" fill="#7D7A7C"/>
<path d="M90.5496 197.393C94.3585 193.813 97.8212 191.331 98.2829 191.619C98.7446 191.908 95.859 195.43 92.2232 199.298C88.5874 203.166 85.2978 205.649 84.8361 205.071C84.3744 204.494 86.7406 201.03 90.5496 197.393Z" fill="#F9E6CF"/>
<path opacity="0.5" d="M73.2938 219.736C81.2003 212.519 88.5874 206.053 94.0123 201.434L100.476 195.949C101.258 195.233 102.109 194.594 103.015 194.044C102.395 194.911 101.679 195.705 100.88 196.411L95.1088 202.473C90.0302 207.496 83.0471 214.424 75.5445 221.987C66.3876 231.109 59.3661 237.883 54.4798 242.31C49.6897 246.755 47.1504 248.949 46.8619 248.66C46.5733 248.372 52.8062 238.21 73.2938 219.736Z" fill="#7D7A7C"/>
<path d="M59.2122 233.938C62.2736 230.4 65.901 227.396 69.9465 225.047C67.4564 228.992 64.3596 232.518 60.7704 235.497C57.7328 239.012 54.2165 242.083 50.3246 244.619C52.6426 240.568 55.6503 236.953 59.2122 233.938Z" fill="#F9E6CF"/>
<path opacity="0.5" d="M82.2968 222.391L97.9944 205.995L102.842 201.145C103.423 200.511 104.06 199.931 104.747 199.413C104.347 200.177 103.863 200.894 103.304 201.549L99.0332 206.919L84.8361 224.239C71.3316 240.404 63.1943 247.621 62.5017 247.333C61.8092 247.044 66.9455 238.557 82.2968 222.391Z" fill="#7D7A7C"/>
<path d="M71.851 234.689C76.0062 230.012 79.6998 226.548 80.1615 227.01C78.5876 230.453 76.3521 233.552 73.5823 236.132C69.4271 240.809 65.7336 244.215 65.2719 243.811C66.8458 240.368 69.0812 237.268 71.851 234.689Z" fill="#F9E6CF"/>
<path opacity="0.5" d="M76.5833 199.298C84.663 192.947 92.2232 187.751 97.9944 183.652L104.631 179.149C105.407 178.521 106.26 177.998 107.171 177.59C106.496 178.322 105.763 178.998 104.977 179.611L98.86 184.749L78.7187 201.492C59.847 217.08 50.3245 225.105 49.8629 224.585C49.4012 224.066 55.5763 214.713 76.5833 199.298Z" fill="#7D7A7C"/>
<path d="M62.1554 211.364C65.3005 208.241 68.9739 205.7 73.0052 203.859C73.4092 204.378 69.1385 208.42 63.5982 213.096C60.4827 216.193 56.9468 218.837 53.0947 220.948C55.4857 217.212 58.5597 213.96 62.1554 211.364Z" fill="#F9E6CF"/>
<path opacity="0.5" d="M49.5743 180.707C59.5007 176.666 68.7923 173.491 75.5445 171.239L83.6242 168.699C84.6161 168.347 85.6408 168.096 86.6829 167.948C85.7703 168.452 84.8257 168.896 83.855 169.276L76.064 172.567C69.4848 175.338 60.4818 179.091 50.7862 183.536C39.2439 188.906 30.414 193.178 24.7583 196.296C22.0019 198.083 19.1292 199.684 16.1593 201.088C15.813 201.088 17.4866 198.143 22.7384 194.333C31.13 188.773 40.1349 184.201 49.5743 180.707Z" fill="#7D7A7C"/>
<path d="M31.626 189.541C35.5936 187.063 40.003 185.377 44.6111 184.576C40.9318 187.388 36.9193 189.734 32.6648 191.561C28.7475 194.002 24.5896 196.034 20.2568 197.624C23.4145 194.135 27.2943 191.377 31.626 189.541Z" fill="#F9E6CF"/>
<path opacity="0.5" d="M53.4987 190.465C61.4629 186.654 68.9654 183.479 74.3903 181.227L80.6809 178.629C81.4784 178.276 82.3099 178.005 83.1625 177.821C83.1625 177.821 82.4122 178.398 80.9694 179.206L74.9097 182.497L54.8838 193.524C45.5922 198.663 38.5514 202.531 33.9344 205.071C31.6897 206.655 29.2689 207.972 26.7205 208.997C25.9125 208.131 32.7225 200.106 53.4987 190.465Z" fill="#7D7A7C"/>
<path d="M39.1285 198.778C42.2896 196.521 45.8866 194.948 49.6897 194.159C50.036 194.737 45.7076 197.508 40.2827 200.683C37.1603 202.903 33.741 204.672 30.1255 205.937C29.7215 205.418 33.6459 201.954 39.1285 198.778Z" fill="#F9E6CF"/>
<path opacity="0.5" d="M63.3674 192.139C69.8311 188.79 75.8331 185.904 80.2192 183.883L85.4709 181.574C86.1159 181.253 86.793 181.001 87.4909 180.823C86.9776 181.327 86.3945 181.755 85.7595 182.093L80.854 185.153L64.8679 194.852C57.573 199.875 49.8479 204.241 41.7832 207.9C41.2061 207.207 46.7464 200.684 63.3674 192.139Z" fill="#7D7A7C"/>
<path d="M51.8251 199.298C56.2689 196.527 60.1355 194.91 60.4818 195.43C60.8281 195.949 57.3654 198.49 52.9793 201.203C50.4827 203.14 47.6439 204.589 44.6111 205.475C44.3803 205.071 47.5544 202.185 51.8251 199.298Z" fill="#F9E6CF"/>
<path opacity="0.5" d="M54.0181 139.601C62.9057 139.601 71.043 140.178 77.1028 140.756L84.0859 141.564C84.9443 141.642 85.794 141.797 86.6252 142.026C85.7616 142.111 84.8917 142.111 84.0282 142.026H76.8719C71.1007 142.026 62.848 142.026 54.0758 142.603C46.1412 142.963 38.2378 143.831 30.414 145.201C25.22 146.24 22.7384 147.395 22.4498 146.933C22.1613 146.471 24.008 144.624 29.1444 142.776C37.2056 140.361 45.6089 139.288 54.0181 139.601Z" fill="#7D7A7C"/>
<path d="M37.4549 141.564C41.2493 140.66 45.2027 140.66 48.9972 141.564C45.3797 142.865 41.5846 143.605 37.7434 143.758C34.0431 144.606 30.279 145.147 26.4897 145.374C26.2011 144.508 31.0489 142.314 37.4549 141.564Z" fill="#F9E6CF"/>
<path opacity="0.5" d="M69.1386 149.589C75.4868 148.954 81.3157 148.723 85.5287 148.723C87.8411 148.633 90.1571 148.729 92.4541 149.011C90.2216 149.581 87.9424 149.948 85.6441 150.108C81.4888 150.686 75.7177 151.494 69.6002 152.649C62.1554 154.092 56.6151 155.42 53.037 156.517C49.4589 157.614 47.7275 158.537 47.2658 158.191C46.8041 157.845 48.0161 156.113 51.4788 154.207C57.014 151.547 63.01 149.979 69.1386 149.589Z" fill="#7D7A7C"/>
<path d="M57.5962 152.418C62.04 151.205 65.7913 151.148 65.9067 151.725C66.0221 152.302 62.444 153.399 58.1733 154.612C55.6416 155.609 52.9781 156.231 50.2668 156.459C49.8629 155.824 53.0947 153.63 57.5962 152.418Z" fill="#F9E6CF"/>
<path opacity="0.5" d="M116.635 127.881C119.924 128.592 123.163 129.518 126.331 130.652C127.686 131.069 128.984 131.651 130.197 132.384C130.197 132.731 123.734 131.576 116.174 130.941C111.578 130.987 106.986 130.679 102.438 130.017C102.438 129.555 103.073 128.689 105.497 127.823C109.162 126.962 112.979 126.982 116.635 127.881Z" fill="#7D7A7C"/>
<path d="M109.537 127.765C112.365 127.765 114.558 128.574 114.5 129.151C114.442 129.728 112.191 129.959 109.537 130.017C106.882 130.075 104.747 130.017 104.573 129.382C104.4 128.747 106.363 127.765 109.537 127.765Z" fill="#F9E6CF"/>
<path opacity="0.5" d="M96.2053 109.868C100.578 111.33 104.824 113.145 108.902 115.295C110.64 116.116 112.285 117.122 113.807 118.297C111.936 117.894 110.102 117.334 108.325 116.623C104.107 115.087 99.8113 113.777 95.4551 112.697C89.3266 111.538 83.1084 110.92 76.8719 110.849C76.8719 110.849 76.8719 110.272 77.6799 109.694C78.7694 109.143 79.9097 108.698 81.0849 108.367C86.1693 107.529 91.3846 108.047 96.2053 109.868Z" fill="#7D7A7C"/>
<path d="M86.452 108.598C90.3187 108.944 93.262 110.041 93.1466 110.734C93.0312 111.427 89.9725 111.138 86.3366 110.734C84.5476 110.734 82.8739 110.734 81.662 110.734C80.45 110.734 79.6998 110.734 79.6421 110.272C79.5844 109.81 80.2769 109.579 81.4888 109.117C83.1148 108.736 84.7824 108.561 86.452 108.598Z" fill="#F9E6CF"/>
<path opacity="0.5" d="M79.9306 116.68C85.2332 118.045 90.4388 119.761 95.5128 121.819C97.6488 122.605 99.7145 123.571 101.688 124.706C99.433 124.388 97.2116 123.866 95.0511 123.147C91.0113 122.165 85.4132 120.664 79.2958 119.74C73.8063 118.767 68.2489 118.227 62.6748 118.124C60.7633 118.43 58.8152 118.43 56.9037 118.124C56.9037 117.604 58.1156 116.507 61.9823 115.41C67.986 114.517 74.1124 114.951 79.9306 116.68Z" fill="#7D7A7C"/>
<path d="M68.042 115.526C72.659 115.526 76.1794 116.969 76.0639 117.547C75.9485 118.124 72.3704 117.951 67.9843 117.547C65.7913 117.547 63.8291 117.547 62.2132 117.547C60.5972 117.547 59.9047 117.547 59.7893 117.2C59.6738 116.854 60.5972 116.392 62.04 115.93C64.0206 115.582 66.0327 115.447 68.042 115.526Z" fill="#F9E6CF"/>
<path opacity="0.5" d="M46.5733 123.608C56.4997 125.225 65.5604 127.188 72.0241 128.804C75.3137 129.555 77.7953 130.248 79.7575 130.767C80.7345 130.958 81.6842 131.268 82.5854 131.691C81.5962 131.66 80.6115 131.544 79.6421 131.345L71.7933 130.017C65.1564 129.035 56.0957 127.65 46.1693 126.611C37.1661 125.523 28.1123 124.906 19.0448 124.763C15.9691 124.93 12.8867 124.93 9.81098 124.763C9.81098 124.417 12.1772 122.742 18.2369 121.934C27.7141 121.163 37.2526 121.727 46.5733 123.608Z" fill="#7D7A7C"/>
<path d="M27.7593 122.338C32.154 122.068 36.5567 122.717 40.6867 124.244C36.3785 124.834 32.0099 124.834 27.7016 124.244C23.3987 124.572 19.0771 124.572 14.7742 124.244C18.8467 122.432 23.3382 121.773 27.7593 122.338Z" fill="#F9E6CF"/>
<path opacity="0.5" d="M135.449 120.029C137.32 121.197 138.899 122.777 140.066 124.648C140.99 126.033 141.336 127.015 141.22 127.073C138.984 125.443 136.609 124.013 134.122 122.8C132.476 122.217 130.723 122.001 128.986 122.165C127.658 122.165 126.85 122.165 126.619 121.877C126.388 121.588 126.619 120.491 127.947 119.683C129.098 119.012 130.418 118.689 131.749 118.75C133.08 118.811 134.364 119.256 135.449 120.029Z" fill="#7D7A7C"/>
<path d="M130.486 119.394C132.506 119.394 133.776 120.375 133.545 120.837C133.314 121.299 132.044 121.414 130.601 121.588C129.159 121.761 127.889 121.588 127.6 121.241C127.312 120.895 128.524 119.509 130.486 119.394Z" fill="#F9E6CF"/>
<path opacity="0.5" d="M136.315 100.688C138.492 104.747 140.289 108.999 141.682 113.39C142.421 115.237 142.888 117.181 143.067 119.163C142.721 119.163 139.431 111.08 133.66 102.536C131.238 98.6932 128.196 95.2791 124.657 92.4321C122.291 90.6423 120.675 90.2382 120.733 89.7763C120.79 89.3144 122.406 88.6793 125.638 89.7763C130.331 92.0973 134.096 95.945 136.315 100.688Z" fill="#7D7A7C"/>
<path d="M129.736 93.0094C132.564 95.7229 133.833 98.7828 133.372 98.7828C132.91 98.7828 130.775 96.8775 128.178 94.395C125.581 91.9124 123.099 90.5268 123.272 89.9495C123.445 89.3721 126.85 90.1804 129.736 93.0094Z" fill="#F9E6CF"/>
<path opacity="0.5" d="M192.18 158.133C184.389 153.515 176.771 151.321 176.886 150.917C178.601 150.937 180.307 151.17 181.965 151.61C185.941 152.449 189.812 153.727 193.507 155.42C197.755 157.152 201.279 160.291 203.491 164.311C203.948 165.381 204.259 166.507 204.415 167.66C204.415 168.526 204.415 168.93 203.953 168.987C203.491 169.045 202.914 167.948 201.298 165.928C198.735 162.819 195.649 160.181 192.18 158.133Z" fill="#7D7A7C"/>
<path d="M199.163 162.637C198.009 161.54 196.912 160.558 196.22 159.75C195.527 158.942 195.008 158.422 195.181 158.133C195.354 157.845 196.104 158.133 197.143 158.422C198.421 159.164 199.62 160.035 200.721 161.02C203.26 163.618 203.895 166.794 203.318 166.794C202.741 166.794 201.356 164.657 199.163 162.637Z" fill="#F9E6CF"/>
<path opacity="0.5" d="M174.347 165.293C174.012 162.684 173.252 160.149 172.096 157.787C173.415 158.494 174.57 159.471 175.485 160.655C176.4 161.839 177.054 163.203 177.406 164.657C179.137 170.431 176.655 173.375 175.963 173.144C175.27 172.913 174.578 170.431 174.347 165.293Z" fill="#7D7A7C"/>
<path d="M175.155 169.103C175.155 167.602 175.155 166.332 176.078 166.216C177.002 166.101 177.463 167.429 177.406 169.103C177.348 170.777 176.713 172.047 176.078 171.99C175.443 171.932 175.155 170.431 175.155 169.103Z" fill="#F9E6CF"/>
<path opacity="0.5" d="M163.439 187.058C163.226 181.912 162.569 176.793 161.477 171.759C162.434 173.004 163.158 174.412 163.613 175.916C165.062 179.442 166.014 183.154 166.44 186.943C166.919 191.008 166.404 195.129 164.94 198.952C163.901 201.55 162.747 202.531 162.401 202.416C162.054 202.3 162.92 197.624 163.439 187.058Z" fill="#7D7A7C"/>
<path d="M163.439 194.794C163.843 191.85 164.42 189.483 164.998 189.483C165.575 189.483 166.094 192.023 165.632 195.256C165.171 198.489 163.901 200.741 163.266 200.51C162.631 200.279 162.805 197.681 163.439 194.794Z" fill="#F9E6CF"/>
<path opacity="0.5" d="M126.158 218.177L134.526 199.644C135.68 197.335 136.603 195.372 137.238 193.871C137.873 192.37 138.277 191.792 138.393 191.85C138.257 192.614 138.064 193.367 137.815 194.102L135.853 199.875C134.064 204.898 131.64 211.422 129.043 219.043C122.522 236.94 117.501 245.543 116.808 245.196C116.116 244.85 117.905 236.709 126.158 218.177Z" fill="#7D7A7C"/>
<path d="M121.079 231.917C122.046 228.609 123.698 225.54 125.927 222.911C125.743 226.366 124.797 229.737 123.157 232.783C122.216 236.103 120.562 239.177 118.309 241.79C118.532 238.342 119.476 234.978 121.079 231.917Z" fill="#F9E6CF"/>
<path opacity="0.5" d="M142.779 221.468C143.933 214.944 144.914 208.882 145.664 204.436C145.987 202.035 146.488 199.661 147.165 197.335C147.325 199.757 147.325 202.187 147.165 204.609C146.876 209.055 146.588 215.175 145.953 221.929C144.625 238.095 141.336 246.178 140.47 245.889C139.604 245.6 140.008 238.384 142.779 221.468Z" fill="#7D7A7C"/>
<path d="M141.509 233.938C142.317 229.262 143.183 225.451 143.817 225.509C144.6 228.382 144.6 231.412 143.817 234.285C143.067 238.961 141.971 242.714 141.278 242.598C140.709 239.73 140.788 236.772 141.509 233.938Z" fill="#F9E6CF"/>
<path opacity="0.5" d="M149.358 247.159C150.05 236.248 150.743 226.26 151.204 218.927C151.493 215.29 151.724 212.288 151.839 210.21C151.848 209.139 151.983 208.073 152.243 207.034C152.302 208.111 152.302 209.19 152.243 210.267C152.243 212.346 152.243 215.29 152.243 218.927C152.243 226.26 152.243 236.248 152.243 247.275C151.839 273.832 148.377 287.689 147.453 287.284C146.53 286.88 147.511 275.334 149.358 247.159Z" fill="#7D7A7C"/>
<path d="M148.607 267.597C148.573 262.831 149.234 258.085 150.57 253.51C151.453 258.195 151.551 262.995 150.858 267.713C150.883 272.509 150.083 277.275 148.492 281.8C147.881 277.083 147.919 272.304 148.607 267.597Z" fill="#F9E6CF"/>
<path opacity="0.5" d="M155.302 216.618C156.168 210.21 156.803 204.263 157.033 199.875C157.107 197.498 157.319 195.127 157.668 192.774C157.848 193.395 157.964 194.034 158.014 194.679C158.014 195.892 158.303 197.681 158.418 199.875C158.804 205.642 158.804 211.428 158.418 217.195C158.125 223.345 156.717 229.39 154.263 235.035C153.476 236.413 152.609 237.743 151.666 239.019C150.974 239.827 150.397 240.058 150.223 239.943C150.05 239.827 152.705 233.303 155.302 216.618Z" fill="#7D7A7C"/>
<path d="M153.628 228.742C153.988 225.921 154.889 223.196 156.283 220.717C156.976 220.717 156.86 224.643 155.764 229.319C155.193 231.301 154.459 233.232 153.571 235.093C152.705 236.478 152.012 237.229 151.782 237.056C151.551 236.883 151.782 235.959 152.07 234.515C152.359 233.072 152.878 230.936 153.628 228.742Z" fill="#F9E6CF"/>
<path opacity="0.5" d="M174.693 187.116C173.654 181.978 172.5 177.301 171.634 173.895L170.48 169.911C170.41 169.394 170.41 168.87 170.48 168.352C171.6 169.931 172.53 171.636 173.25 173.433C175.076 177.649 176.656 181.967 177.983 186.365C181.619 198.72 181.157 205.591 180.407 205.706C179.656 205.822 177.175 200.395 174.693 187.116Z" fill="#7D7A7C"/>
<path d="M177.232 196.584C176.424 192.889 176.309 189.829 176.886 189.656C177.463 189.483 178.618 192.427 179.425 196.122C180.233 199.817 180.176 202.993 179.425 203.05C178.675 203.108 178.04 200.279 177.232 196.584Z" fill="#F9E6CF"/>
<path opacity="0.5" d="M164.709 251.258C164.305 242.945 163.901 235.208 163.613 229.55C163.613 226.779 163.613 224.47 163.324 222.911C163.248 222.085 163.248 221.254 163.324 220.428C163.642 221.181 163.837 221.981 163.901 222.796C163.901 224.412 164.536 226.664 164.998 229.435C165.863 235.208 166.96 242.656 167.825 251.027C170.134 271.408 167.825 282.204 166.729 282.031C165.632 281.857 165.748 272.793 164.709 251.258Z" fill="#7D7A7C"/>
<path d="M165.979 266.789C165.494 263.144 165.709 259.441 166.614 255.877C167.951 259.33 168.503 263.038 168.229 266.731C168.82 270.393 168.483 274.145 167.248 277.643C166.245 274.116 165.816 270.451 165.979 266.789Z" fill="#F9E6CF"/>
<path opacity="0.5" d="M127.254 43.4159C130.255 53.5771 132.621 62.9878 134.237 69.8581C135.045 73.2644 135.68 76.0934 136.084 78.0564C136.383 79.0508 136.558 80.0787 136.603 81.1163C136.158 80.1268 135.791 79.1036 135.507 78.0564L132.91 70.1468C130.717 63.3919 127.774 54.2122 124.311 44.2242C120.098 32.2156 116.808 23.1513 114.384 17.2624C112.96 14.3434 111.726 11.3349 110.691 8.25593C110.979 7.90953 113.461 9.87249 116.462 15.5304C121.062 24.4057 124.68 33.7561 127.254 43.4159Z" fill="#7D7A7C"/>
<path d="M120.271 24.6523C122.296 28.8145 123.529 33.3175 123.907 37.9312C121.426 34.0557 119.485 29.8603 118.136 25.4606C116.201 21.3216 114.655 17.0114 113.519 12.5859C116.674 16.0301 118.986 20.161 120.271 24.6523Z" fill="#F9E6CF"/>
<path opacity="0.5" d="M115.77 102.131C118.689 104.783 121.355 107.702 123.734 110.849C124.809 112.115 125.72 113.512 126.446 115.006C126.158 115.006 120.964 109.694 113.865 104.556C110.812 102.229 107.401 100.416 103.766 99.1869C101.399 98.5518 100.014 98.7828 99.8411 98.3209C99.668 97.859 100.649 96.5889 103.766 96.4734C108.332 96.7955 112.614 98.8136 115.77 102.131Z" fill="#7D7A7C"/>
<path d="M108.152 97.859C111.326 99.1869 113.115 101.323 112.769 101.785C112.422 102.247 110.056 101.092 107.286 99.9374C104.516 98.7828 102.207 98.4364 102.092 97.8013C101.976 97.1662 104.977 96.4157 108.152 97.859Z" fill="#F9E6CF"/>
<path opacity="0.5" d="M53.9604 105.769C65.5027 109.868 76.1794 114.082 83.855 117.315L92.858 121.184C93.9857 121.657 95.0842 122.196 96.1476 122.8C94.9479 122.55 93.7705 122.202 92.6272 121.761L83.3356 118.47C75.5445 115.814 64.7525 112.177 52.9793 108.598C38.6668 104.287 27.8363 101.265 20.4876 99.5333C16.7295 98.9247 13.0103 98.0958 9.34929 97.0507C9.34929 96.6466 12.812 95.8383 20.2568 97.0507C31.7586 98.8017 43.0517 101.723 53.9604 105.769Z" fill="#7D7A7C"/>
<path d="M31.5683 99.5334C36.8917 100.612 42.0006 102.563 46.6887 105.307C41.3521 104.705 36.1035 103.485 31.0489 101.67C25.7983 100.64 20.6292 99.2317 15.5821 97.455C20.9975 97.0217 26.4435 97.7298 31.5683 99.5334Z" fill="#F9E6CF"/>
<path opacity="0.5" d="M53.7295 117.546C64.3485 120.26 73.9286 123.32 80.854 125.514L89.1068 128.285C90.1165 128.592 91.1006 128.979 92.0501 129.44C90.9955 129.346 89.952 129.152 88.9337 128.862L80.6809 126.842C73.5824 125.167 63.8291 122.8 53.2101 120.549C40.3404 117.835 30.5872 115.93 24.008 114.775C20.6463 114.533 17.3082 114.032 14.0239 113.274C14.0239 112.87 16.9672 111.831 23.6041 112.004C33.8148 112.771 43.9141 114.629 53.7295 117.546Z" fill="#7D7A7C"/>
<path d="M33.5882 113.794C38.3519 114.201 42.9942 115.514 47.2658 117.662C42.5423 117.706 37.8316 117.163 33.2419 116.045C28.5489 115.585 23.9108 114.677 19.3911 113.332C24.101 112.455 28.9451 112.613 33.5882 113.794Z" fill="#F9E6CF"/>
<path opacity="0.5" d="M75.9485 96.993C83.6242 100.746 90.4919 104.614 95.3397 107.558C97.7635 109.002 99.7257 110.214 101.111 111.138C101.825 111.559 102.501 112.042 103.131 112.581C102.333 112.35 101.559 112.041 100.822 111.657L94.7048 108.771C89.5685 106.346 82.4699 102.997 74.6789 99.822C67.6077 96.843 60.3836 94.2414 53.037 92.0279C50.4482 91.6152 47.9128 90.9181 45.4768 89.9495C45.4768 89.6031 47.843 88.6793 53.037 89.3144C61.0322 90.645 68.7656 93.2367 75.9485 96.993Z" fill="#7D7A7C"/>
<path d="M60.8281 91.5662C64.5062 92.3634 67.9338 94.0481 70.8122 96.4736C67.1313 96.1084 63.5295 95.1735 60.1355 93.7024C56.5552 92.8829 53.0727 91.6829 49.7474 90.1229C53.5031 89.5457 57.3454 90.0462 60.8281 91.5662Z" fill="#F9E6CF"/>
<path opacity="0.5" d="M204.992 149.185C196.335 146.991 188.659 146.125 188.717 145.778C190.346 145.424 192.018 145.308 193.68 145.432C197.655 145.359 201.629 145.591 205.569 146.125C209.942 146.54 214.126 148.114 217.688 150.686C220.055 152.706 220.343 154.496 219.939 154.669C215.136 152.384 210.133 150.548 204.992 149.185Z" fill="#7D7A7C"/>
<path d="M213.014 151.032C210.128 149.877 207.647 148.838 207.82 148.203C207.993 147.568 210.705 147.684 213.591 148.954C216.476 150.224 218.727 152.475 218.208 152.937C217.688 153.399 215.899 152.129 213.014 151.032Z" fill="#F9E6CF"/>
<path opacity="0.5" d="M173.02 84.2915C171 92.0279 168.864 99.0137 167.248 104.037L165.171 109.81C164.938 110.552 164.628 111.268 164.247 111.946C164.28 111.166 164.396 110.392 164.594 109.637C164.882 108.136 165.344 106.057 165.863 103.459C167.017 98.2632 168.576 91.1619 170.076 83.3678C171.865 73.9571 173.135 66.9136 173.885 62.1794C174.066 59.733 174.511 57.3133 175.213 54.9626C175.674 54.9626 176.655 57.0411 176.713 61.9485C176.43 69.5223 175.189 77.0298 173.02 84.2915Z" fill="#7D7A7C"/>
<path d="M175.617 69.5694C175.431 73.0651 174.422 76.4676 172.673 79.4996C172.266 76.0575 172.521 72.5694 173.423 69.223C173.623 65.791 174.323 62.4067 175.501 59.1772C176.517 62.5613 176.557 66.1636 175.617 69.5694Z" fill="#F9E6CF"/>
<path opacity="0.5" d="M222.421 80.4813C215.611 86.7166 209.378 92.49 204.819 96.7623C202.568 98.783 200.663 100.457 199.394 101.67C198.733 102.29 198.019 102.85 197.258 103.344C197.723 102.546 198.285 101.809 198.932 101.15L203.838 95.7231C208.108 91.1621 213.879 84.9268 220.228 78.4029C235.637 62.1219 244.755 54.9051 245.332 55.3093C245.909 55.7134 239.792 64.0848 222.421 80.4813Z" fill="#7D7A7C"/>
<path d="M234.367 67.9528C231.721 71.06 228.534 73.6616 224.96 75.6314C224.498 75.1695 227.961 71.0704 232.636 66.394C235.335 63.249 238.605 60.6436 242.273 58.7153C240.231 62.2568 237.55 65.3888 234.367 67.9528Z" fill="#F9E6CF"/>
<path opacity="0.5" d="M233.328 100.053L210.59 111.6L203.607 115.237C202.77 115.739 201.879 116.146 200.952 116.45C201.69 115.806 202.482 115.227 203.318 114.718L209.897 110.445C215.668 106.866 223.229 102.074 231.885 97.1087C239.702 92.4256 247.908 88.427 256.413 85.1577C262.184 83.0216 265.531 82.8483 265.589 83.2525C265.647 83.6566 263.223 84.7536 258.029 87.3516L233.328 100.053Z" fill="#7D7A7C"/>
<path d="M249.545 91.2198C245.831 93.4318 241.803 95.067 237.599 96.0694C240.774 93.0901 244.498 90.7567 248.564 89.1991C252.295 86.9479 256.469 85.5299 260.799 85.0422C257.335 87.5862 253.551 89.6632 249.545 91.2198Z" fill="#F9E6CF"/>
<path opacity="0.5" d="M111.903 91.1619C115.85 95.5117 119.549 100.08 122.984 104.845C124.446 106.77 125.74 108.817 126.85 110.965C124.986 109.35 123.25 107.593 121.656 105.711C118.597 102.478 114.327 97.9745 109.479 93.3557C105.16 89.1236 100.592 85.1521 95.8013 81.4625C92.6272 79.0377 90.7227 78.2294 90.8381 77.7676C90.9536 77.3057 93.0312 77.0748 96.6093 78.9222C102.437 81.995 107.627 86.1487 111.903 91.1619Z" fill="#7D7A7C"/>
<path d="M102.265 82.8484C106.074 85.9083 108.498 89.0836 108.036 89.4878C107.575 89.8919 104.516 87.5825 100.822 84.5804C97.1287 81.5782 93.9546 79.4421 94.1854 78.807C94.4163 78.1719 98.4561 79.673 102.265 82.8484Z" fill="#F9E6CF"/>
<path opacity="0.5" d="M58.4619 75.1118C68.1575 80.8852 76.6411 86.6586 82.7008 90.9887C85.7595 93.1248 88.472 94.9146 89.857 96.2425C90.7673 96.8533 91.6176 97.5492 92.3964 98.3209C91.3861 97.8735 90.42 97.3323 89.5108 96.7043L81.9505 92.1434C75.5445 88.2752 66.7724 83.0214 56.9614 78.0563C48.1214 73.0945 38.9859 68.6792 29.6061 64.8352C26.2809 63.864 23.0388 62.6284 19.9105 61.1402C19.9105 60.7361 23.1424 60.3896 29.7792 62.0639C39.8976 65.0646 49.5506 69.4558 58.4619 75.1118Z" fill="#7D7A7C"/>
<path d="M39.5325 65.9899C44.1667 67.6112 48.4403 70.1214 52.1136 73.3799C47.4425 72.1312 42.9306 70.349 38.6668 68.0683C34.129 66.4628 29.7123 64.5334 25.4508 62.2949C30.369 62.408 35.192 63.6735 39.5325 65.9899Z" fill="#F9E6CF"/>
<path opacity="0.5" d="M126.85 79.9615C129.799 84.9237 132.42 90.073 134.699 95.3765C135.801 97.5833 136.709 99.8821 137.411 102.247C135.954 100.267 134.642 98.1826 133.487 96.0116C131.121 92.1434 127.716 86.8319 124.022 81.4049C120.697 76.445 116.825 71.8746 112.48 67.7797C109.479 65.2394 107.517 64.6043 107.574 64.1424C107.632 63.6805 109.825 63.2764 113.692 65.3548C119.226 69.0511 123.749 74.072 126.85 79.9615Z" fill="#7D7A7C"/>
<path d="M118.424 70.0313C121.829 73.6686 123.676 77.2481 123.157 77.5945C122.637 77.9409 120.04 75.0542 116.808 71.8211C113.577 68.588 110.575 66.0477 110.749 65.7013C110.922 65.3549 115.308 66.5095 118.424 70.0313Z" fill="#F9E6CF"/>
<path opacity="0.5" d="M74.9097 71.5325C84.0282 78.6338 92.2232 85.6773 97.5327 90.8734C100.361 93.4714 102.611 95.6653 104.112 97.1664C104.974 97.9029 105.748 98.7359 106.42 99.6489C105.488 99.0403 104.601 98.365 103.766 97.6282L96.6093 91.8548C90.8381 87.1207 82.4122 80.5967 73.1207 73.8996C64.7462 67.7925 55.9951 62.2197 46.9196 57.2144C40.7444 53.9813 37.2817 53.2885 37.3394 52.7689C37.3971 52.2493 40.8021 52.0184 47.3813 54.5009C57.3287 58.8236 66.6005 64.5599 74.9097 71.5325Z" fill="#7D7A7C"/>
<path d="M56.9037 59.7546C61.2855 62.0496 65.2001 65.1433 68.446 68.8766C63.9647 66.9389 59.7074 64.5191 55.7495 61.6598C48.7663 57.3875 42.7643 54.9627 42.9375 54.2122C47.9867 54.8475 52.7921 56.7545 56.9037 59.7546Z" fill="#F9E6CF"/>
<path opacity="0.5" d="M96.2053 65.0084C102.554 72.2829 107.748 79.2109 111.845 84.2915L116.404 90.4113C117.002 91.134 117.506 91.9294 117.905 92.7784C117.184 92.175 116.509 91.5189 115.885 90.8155L110.806 85.0421C106.478 80.3656 100.591 73.8417 93.8968 66.9713C85.8749 58.8308 79.6421 52.7688 75.3137 49.1893C72.9607 47.4105 70.7245 45.482 68.6191 43.4159C68.6191 42.954 71.5624 43.4159 76.4679 46.649C83.8046 51.8994 90.4379 58.0696 96.2053 65.0084Z" fill="#7D7A7C"/>
<path d="M83.2779 52.4801C86.5993 55.0712 89.3334 58.3377 91.2998 62.0639C87.7367 59.9106 84.509 57.2457 81.7197 54.1544C78.4877 51.5793 75.5114 48.6985 72.8321 45.552C76.8562 46.915 80.4562 49.3027 83.2779 52.4801Z" fill="#F9E6CF"/>
<path opacity="0.5" d="M147.107 40.9911C148.781 51.7296 149.877 61.6021 150.512 68.8189C150.858 72.3984 151.089 75.3428 151.262 77.4212C151.351 78.4778 151.351 79.54 151.262 80.5966C150.968 79.5725 150.737 78.5313 150.57 77.479C150.223 75.4583 149.704 72.5716 149.069 69.0498C147.915 61.8908 146.184 52.1337 144.164 41.5684C141.567 28.7515 139.316 19.1676 137.527 12.7014C135.738 6.23519 134.18 3.46396 134.526 3.17529C134.872 2.88662 137.296 5.08051 139.835 11.2003C143.407 20.8146 145.847 30.8122 147.107 40.9911Z" fill="#7D7A7C"/>
<path d="M142.432 21.1884C143.96 25.6813 144.645 30.4181 144.452 35.16C142.474 30.9013 141.077 26.3964 140.297 21.7657C138.853 17.3346 137.754 12.7986 137.007 8.19824C139.86 12.0141 141.723 16.4768 142.432 21.1884Z" fill="#F9E6CF"/>
<path opacity="0.5" d="M115.943 58.6578C119.521 65.9322 122.349 72.7449 124.311 78.0564C125.292 80.5967 126.042 82.6174 126.562 83.8298C126.886 84.5684 127.119 85.3439 127.254 86.1391C126.724 85.4423 126.315 84.6618 126.042 83.8298L123.041 78.0564C120.56 73.3222 117.27 66.5096 113.173 59.8124C109.667 53.4655 105.814 47.3171 101.63 41.3953C98.86 37.4694 96.9556 35.9683 97.1287 35.6219C97.3018 35.2755 99.8411 35.6219 103.362 39.3169C108.585 45.0313 112.836 51.5652 115.943 58.6578Z" fill="#7D7A7C"/>
<path d="M107.863 45.7829C110.121 48.5416 111.667 51.8128 112.365 55.309C111.787 55.6554 109.19 51.7873 105.959 47.0531C103.726 44.3642 101.791 41.4412 100.187 38.3352C100.765 37.6424 104.631 40.8755 107.863 45.7829Z" fill="#F9E6CF"/>
<path opacity="0.5" d="M116.462 47.5151C121.483 59.6393 125.465 70.9551 128.004 79.2111L131.179 89.0836C131.58 90.2943 131.907 91.5283 132.16 92.7786C131.546 91.6687 131.025 90.5101 130.601 89.3145L126.85 79.7307C123.561 71.6479 119.001 60.6207 113.577 48.7853C108.764 37.9917 103.19 27.554 96.8978 17.5512C92.5695 10.9695 89.3953 8.48692 89.6262 8.14052C89.857 7.79411 93.5506 9.12199 98.6292 15.2995C106.032 25.1627 112.034 36.0042 116.462 47.5151Z" fill="#7D7A7C"/>
<path d="M105.208 26.0958C108.348 30.8597 110.633 36.1348 111.961 41.684C108.63 37.1228 105.714 32.2731 103.246 27.1928C98.7446 19.11 94.2431 13.1634 94.5894 12.7593C99.1432 16.2924 102.784 20.8655 105.208 26.0958Z" fill="#F9E6CF"/>
<path opacity="0.5" d="M105.035 62.1796C110.806 72.283 115.943 81.7514 119.521 88.6795C121.194 92.1435 122.637 95.0302 123.618 96.9932C124.139 98.0052 124.601 99.0461 125.003 100.111C124.287 99.2258 123.649 98.2791 123.099 97.2819L118.251 89.6032C114.211 82.9638 108.671 73.7841 102.38 64.0271C94.7625 51.9607 88.8182 43.416 84.6053 37.6426C80.3923 31.8692 77.7953 29.3289 78.0261 28.9248C78.257 28.5206 81.3734 29.964 86.2212 35.2178C93.4124 43.5263 99.7178 52.5625 105.035 62.1796Z" fill="#7D7A7C"/>
<path d="M92.6849 44.0511C95.9111 48.0047 98.4476 52.4745 100.187 57.2722C96.6257 53.694 93.5062 49.701 90.8958 45.379C87.754 41.4448 84.9179 37.2758 82.4122 32.9084C86.5876 35.8518 90.0894 39.6501 92.6849 44.0511Z" fill="#F9E6CF"/>
<path opacity="0.5" d="M93.666 153.11C98.7755 152.058 103.939 151.287 109.133 150.801C111.303 150.621 113.484 150.621 115.654 150.801C113.649 151.347 111.603 151.733 109.537 151.956C105.67 152.88 100.303 154.15 94.6471 155.882C87.7794 157.96 82.7585 159.808 79.4689 161.136C76.1794 162.463 74.448 163.272 74.2172 163.041C73.9863 162.81 74.852 161.193 77.853 158.942C82.736 156.074 88.0907 154.099 93.666 153.11Z" fill="#7D7A7C"/>
<path d="M82.9893 156.748C87.0869 155.131 90.6073 154.727 90.7804 155.305C90.9535 155.882 87.7217 157.267 83.855 158.826C81.8351 159.577 80.1615 160.385 78.7764 160.732C77.3913 161.078 76.6988 161.54 76.4679 161.251C76.2371 160.962 76.8719 160.27 78.0261 159.346C79.5887 158.315 81.2516 157.444 82.9893 156.748Z" fill="#F9E6CF"/>
<path opacity="0.5" d="M53.0947 161.886C61.9413 159.663 70.8991 157.91 79.9306 156.632C83.451 156.113 86.2789 155.766 88.2411 155.593C89.2778 155.5 90.3208 155.5 91.3575 155.593L88.3565 156.402L80.2192 158.249C73.3515 159.808 63.9445 162.002 53.9027 165.062C44.7859 167.714 35.9368 171.212 27.4707 175.511C21.6996 178.629 19.7374 180.996 19.3334 180.708C18.9294 180.419 20.2568 177.532 25.5086 173.606C33.8928 168.013 43.2492 164.038 53.0947 161.886Z" fill="#7D7A7C"/>
<path d="M34.5116 168.814C38.629 166.658 43.1488 165.38 47.7852 165.062C43.8923 167.433 39.7507 169.369 35.4349 170.835C28.7404 173.895 23.4886 177.128 22.9692 176.724C22.4498 176.32 27.413 171.932 34.5116 168.814Z" fill="#F9E6CF"/>
<path opacity="0.5" d="M50.3823 157.267C62.2709 155.362 73.1784 154.15 81.1426 153.399L90.6073 152.533H94.1277C93.0249 152.912 91.8825 153.164 90.7227 153.284L81.3734 154.9C73.4669 156.228 62.6171 158.076 50.9017 160.674C36.7623 163.56 26.1434 166.043 19.1603 168.121C12.1772 170.2 8.8876 171.759 8.65675 171.412C8.4259 171.066 10.9075 168.583 17.6021 165.639C28.1819 161.632 39.1773 158.824 50.3823 157.267Z" fill="#7D7A7C"/>
<path d="M28.7404 162.406C33.7089 160.768 38.9194 159.987 44.1494 160.096C39.3198 162.189 34.2657 163.72 29.0867 164.657C24.1574 166.237 19.1243 167.471 14.0239 168.352C18.4527 165.349 23.469 163.322 28.7404 162.406Z" fill="#F9E6CF"/>
<path opacity="0.5" d="M46.8619 131.98C58.4042 133.25 68.5037 134.636 75.7177 135.79L84.6053 137.234C85.7206 137.364 86.8216 137.596 87.8948 137.927C86.7814 138.028 85.661 138.028 84.5476 137.927L75.5445 137.291L46.2847 135.213C32.6071 134.347 22.2767 133.712 15.3513 133.481C11.8384 133.571 8.32425 133.359 4.84778 132.846C4.84778 132.442 7.84878 131.229 14.6588 130.768C25.4082 130.278 36.1796 130.684 46.8619 131.98Z" fill="#7D7A7C"/>
<path d="M25.624 131.056C30.5867 130.862 35.5457 131.526 40.2827 133.019C35.3918 133.761 30.4247 133.858 25.5085 133.308C20.5963 133.404 15.6865 133.017 10.8498 132.153C15.6527 130.809 20.6753 130.436 25.624 131.056Z" fill="#F9E6CF"/>
<path opacity="0.5" d="M166.729 88.3908C165.228 94.9724 163.67 100.977 162.516 105.307C161.953 107.704 161.22 110.057 160.323 112.35C160.392 109.907 160.662 107.474 161.131 105.076C161.766 100.573 162.689 94.4528 163.67 87.7557C164.357 79.5242 165.944 71.3929 168.403 63.5074C169.384 63.4497 170.653 71.3592 166.729 88.3908Z" fill="#7D7A7C"/>
<path d="M168.403 75.8047C167.71 80.6544 166.498 84.4071 165.863 84.2916C165.201 81.4039 165.201 78.4038 165.863 75.5161C166.006 72.555 166.732 69.6513 167.999 66.9714C168.922 67.0292 169.153 71.0128 168.403 75.8047Z" fill="#F9E6CF"/>
<path opacity="0.5" d="M159.169 59.3504C158.476 70.2621 157.61 80.2501 156.86 87.5246C156.456 91.1619 156.168 94.1063 155.937 96.127C155.907 97.204 155.732 98.272 155.417 99.3024C155.32 98.2461 155.32 97.1832 155.417 96.127C155.417 94.0486 155.417 91.1041 155.417 87.4669C155.417 80.1347 155.764 70.1467 155.995 59.235C156.341 46.0716 156.514 36.1413 156.687 29.3865C156.516 26.0055 156.729 22.616 157.322 19.283C158.361 19.0521 161.131 31.1762 159.169 59.3504Z" fill="#7D7A7C"/>
<path d="M159.284 38.9127C159.625 43.6756 159.136 48.4615 157.841 53.0575C156.928 48.4016 156.656 43.6424 157.033 38.9127C156.763 34.1801 157.053 29.4321 157.899 24.7678C159.264 29.3501 159.734 34.1525 159.284 38.9127Z" fill="#F9E6CF"/>
<path opacity="0.5" d="M167.248 56.2907C165.69 67.1447 164.074 77.075 162.747 84.234C162.227 87.8135 161.477 90.7579 161.477 92.7786C161.287 93.8315 161.037 94.8724 160.727 95.8963C160.588 94.8424 160.588 93.7748 160.727 92.7209C160.727 90.6425 161.189 87.698 161.535 84.0608C162.285 76.7863 163.266 66.7406 164.363 55.9443C165.632 42.781 166.614 32.8507 167.306 26.1536C167.374 22.7434 167.839 19.3527 168.691 16.0501C169.672 15.9346 171.519 28.2897 167.248 56.2907Z" fill="#7D7A7C"/>
<path d="M169.037 35.8528C168.998 40.635 168.159 45.3768 166.556 49.8822C165.95 45.1598 166.047 40.3735 166.844 35.6796C166.924 30.9254 167.563 26.1972 168.749 21.5925C169.733 26.2864 169.831 31.123 169.037 35.8528Z" fill="#F9E6CF"/>
<path opacity="0.5" d="M183.119 87.467C180.291 93.76 177.348 99.4757 175.443 103.575C174.388 105.833 173.173 108.013 171.808 110.099C172.386 107.667 173.177 105.29 174.174 102.997C175.732 98.6097 177.867 92.7208 180.233 86.3123C182.727 78.3212 185.715 70.4927 189.179 62.8723C190.333 62.8723 190.333 71.2437 183.119 87.467Z" fill="#7D7A7C"/>
<path d="M187.217 75.2274C185.601 79.9039 183.696 83.4834 183.119 83.2524C183.116 80.2366 183.787 77.2583 185.081 74.5346C186.697 69.9159 188.025 66.2209 188.659 66.3364C189.03 69.3769 188.53 72.4603 187.217 75.2274Z" fill="#F9E6CF"/>
<path opacity="0.5" d="M171.115 202.3C169.903 196.18 168.518 190.753 167.364 186.481C166.639 184.289 166.06 182.052 165.632 179.784C165.632 179.784 166.036 180.361 166.614 181.458C167.191 182.555 167.825 184.056 168.691 186.019C170.824 191.096 172.636 196.302 174.116 201.607C178.387 216.733 175.27 225.394 174.116 224.989C172.962 224.585 173.77 224.47 173.712 223.604C173.505 222.246 173.37 220.877 173.308 219.505C172.929 213.73 172.196 207.985 171.115 202.3Z" fill="#7D7A7C"/>
<path d="M173.481 213.731C172.867 211.033 172.867 208.231 173.481 205.533C174.116 205.533 175.328 208.939 175.79 213.5C176.251 218.061 175.386 221.872 174.751 221.814C173.872 219.211 173.443 216.478 173.481 213.731Z" fill="#F9E6CF"/>
<path opacity="0.5" d="M174.751 235.67L167.883 208.362C167.017 204.84 166.325 201.954 165.863 199.933C165.577 198.91 165.365 197.868 165.228 196.815C165.728 197.755 166.134 198.741 166.44 199.76C167.075 201.723 168.056 204.552 169.268 207.958C171.577 214.886 174.635 224.412 177.694 234.862C185.428 260.207 186.12 274.352 185.024 274.352C183.663 271.477 182.711 268.426 182.196 265.288C180.58 258.822 178.156 249.295 174.751 235.67Z" fill="#7D7A7C"/>
<path d="M180.176 255.3C178.742 250.775 177.946 246.073 177.81 241.328C180.088 245.518 181.631 250.068 182.369 254.78C183.863 259.318 184.49 264.097 184.216 268.867C182.325 264.525 180.968 259.969 180.176 255.3Z" fill="#F9E6CF"/>
<path opacity="0.5" d="M185.254 216.618C181.907 208.131 178.56 200.452 176.136 194.794L173.308 187.751C172.937 186.948 172.629 186.118 172.385 185.268C172.385 185.268 173.02 186.019 173.885 187.52L177.406 193.871C180.349 199.24 184.216 206.688 188.082 215.059C191.832 222.632 194.754 230.588 196.797 238.788C198.066 244.561 197.662 247.448 197.258 247.448C196.854 247.448 194.2 238.153 185.254 216.618Z" fill="#7D7A7C"/>
<path d="M191.949 231.975C190.255 228.326 189.164 224.427 188.717 220.428C191.24 223.569 193.07 227.21 194.084 231.109C195.79 234.712 196.602 238.673 196.45 242.656C194.524 239.291 193.013 235.704 191.949 231.975Z" fill="#F9E6CF"/>
<path opacity="0.5" d="M205.453 198.894C201.587 193.12 197.605 188.328 194.719 184.691C193.073 182.855 191.532 180.927 190.102 178.918C190.102 178.918 190.737 179.264 191.718 180.13C192.699 180.996 194.084 182.266 195.758 183.883C200.094 188.046 204.161 192.482 207.935 197.162C212.184 202.092 215.402 207.825 217.4 214.02C218.496 218.35 217.919 220.717 217.4 220.717C214.062 213.108 210.065 205.805 205.453 198.894Z" fill="#7D7A7C"/>
<path d="M212.667 209.343C210.417 205.071 208.454 201.549 208.974 201.203C209.493 200.857 212.263 203.859 214.745 208.304C217.227 212.75 217.688 217.022 217.053 217.138C216.419 217.253 214.976 213.616 212.667 209.343Z" fill="#F9E6CF"/>
<path opacity="0.5" d="M199.047 171.47C195.238 168.179 191.487 165.35 188.775 163.33C187.199 162.327 185.729 161.166 184.389 159.865C186.179 160.424 187.901 161.179 189.525 162.117C193.54 164.135 197.398 166.451 201.067 169.045C205.147 171.705 208.546 175.284 210.994 179.495C212.494 182.555 212.263 184.46 211.859 184.518C211.455 184.576 208.916 179.957 199.047 171.47Z" fill="#7D7A7C"/>
<path d="M206.146 177.474C203.78 174.819 201.818 172.625 202.222 172.105C202.626 171.586 205.28 173.144 207.993 175.973C210.705 178.802 211.571 181.747 210.994 182.093C210.417 182.44 208.57 180.072 206.146 177.474Z" fill="#F9E6CF"/>
<path opacity="0.5" d="M224.96 142.372C218.208 141.564 211.917 141.275 207.3 140.986C204.81 140.977 202.323 140.804 199.855 140.467C202.305 139.951 204.797 139.661 207.3 139.601C211.917 139.312 218.208 139.023 225.191 139.254C231.671 139.209 238.092 140.486 244.063 143.007C248.16 144.912 249.257 147.453 248.91 147.626C248.564 147.799 247.179 146.702 243.139 145.663C237.185 144.046 231.103 142.945 224.96 142.372Z" fill="#7D7A7C"/>
<path d="M237.426 143.642C232.751 142.603 228.827 141.795 228.884 141.16C231.865 140.345 235.022 140.445 237.945 141.448C242.908 142.43 246.429 144.97 246.082 145.49C243.148 145.128 240.252 144.51 237.426 143.642Z" fill="#F9E6CF"/>
<path opacity="0.5" d="M188.198 99.9375C184.908 104.498 181.849 108.655 179.541 111.484C178.392 113.172 177.099 114.756 175.674 116.218C176.357 114.198 177.267 112.261 178.387 110.445C180.176 107.154 182.715 102.651 185.601 97.8013C192.468 86.2545 197.143 80.943 198.124 81.4049C199.105 81.8668 196.681 88.1598 188.198 99.9375Z" fill="#7D7A7C"/>
<path d="M193.565 90.9309C191.372 94.2795 189.179 96.7043 188.659 96.4156C188.14 96.127 189.467 93.0671 191.66 89.7185C193.853 86.3699 196.046 83.9451 196.566 84.2338C197.085 84.5224 195.758 87.5823 193.565 90.9309Z" fill="#F9E6CF"/>
<path opacity="0.5" d="M234.771 106.346L212.148 116.161L205.165 119.163C204.333 119.588 203.463 119.936 202.568 120.202C202.568 120.202 203.376 119.567 204.876 118.643L211.513 114.891C217.284 111.831 224.845 107.674 233.501 103.344C241.37 99.3378 249.602 96.0901 258.086 93.6446C263.858 92.1435 267.089 92.4322 267.089 92.8941C267.089 93.356 264.666 93.991 259.414 96.0695C254.162 98.1479 246.14 101.554 234.771 106.346Z" fill="#7D7A7C"/>
<path d="M250.988 99.0138C247.343 100.807 243.454 102.052 239.446 102.709C242.706 100.08 246.451 98.1178 250.469 96.9354C254.243 95.0245 258.416 94.0353 262.646 94.0487C258.972 96.1643 255.058 97.8313 250.988 99.0138Z" fill="#F9E6CF"/>
<path opacity="0.5" d="M224.152 212.057C217.169 203.917 210.474 196.7 205.627 191.446L199.855 185.153C199.125 184.414 198.45 183.623 197.836 182.786C198.724 183.359 199.555 184.016 200.317 184.749L206.608 190.522C211.917 195.43 219.073 202.069 226.46 210.036C233.444 217.019 239.619 224.765 244.871 233.13C248.333 238.903 248.91 242.483 248.506 242.598C248.102 242.714 246.717 240.173 242.735 235.151C238.753 230.128 233.213 222.391 224.152 212.057Z" fill="#7D7A7C"/>
<path d="M237.368 227.01C234.234 223.515 231.558 219.635 229.404 215.463C233.263 218.163 236.572 221.572 239.157 225.509C242.376 228.967 244.765 233.113 246.14 237.633C242.93 234.338 239.997 230.785 237.368 227.01Z" fill="#F9E6CF"/>
<path opacity="0.5" d="M205.223 226.029C201.01 217.542 196.739 209.979 193.68 204.494L189.871 197.97C189.341 197.193 188.896 196.36 188.544 195.487C189.224 196.124 189.825 196.842 190.333 197.623C191.43 199.067 193.045 201.088 194.834 203.743C199.609 210.461 204.04 217.417 208.108 224.585C212.591 232.197 215.936 240.425 218.035 249.007C219.016 254.78 218.843 258.013 218.035 258.013C216.787 255.553 215.893 252.929 215.38 250.219C212.476 241.961 209.085 233.884 205.223 226.029Z" fill="#7D7A7C"/>
<path d="M212.956 241.848C211.167 238.179 209.849 234.3 209.032 230.301C211.735 233.447 213.707 237.154 214.803 241.155C215.795 243.928 216.604 246.763 217.227 249.642C217.227 251.951 217.227 253.337 217.227 253.395C217.227 253.452 216.419 252.124 215.726 250.046C215.034 247.968 214.168 245.023 212.956 241.848Z" fill="#F9E6CF"/>
<path opacity="0.5" d="M202.279 128.92C194.488 130.075 187.967 131.922 187.851 131.576C189.059 130.74 190.356 130.043 191.718 129.497C195.01 128.037 198.405 126.821 201.875 125.86C205.599 124.611 209.597 124.431 213.418 125.34C216.13 126.322 216.88 127.881 216.592 128.169C216.303 128.458 215.207 128.169 213.129 128.169C209.498 128.103 205.867 128.355 202.279 128.92Z" fill="#7D7A7C"/>
<path d="M209.378 127.592C206.665 127.592 204.299 127.592 204.184 126.957C204.068 126.322 206.319 125.398 209.32 125.341C212.321 125.283 215.091 126.553 214.456 127.13C213.822 127.708 212.09 127.419 209.378 127.592Z" fill="#F9E6CF"/>
<path opacity="0.5" d="M209.262 78.6915L195.181 96.0117L190.795 101.15C190.264 101.826 189.664 102.445 189.006 102.998C189.379 102.335 189.824 101.715 190.333 101.15L194.142 95.3767L206.839 76.9018C218.9 59.5816 226.403 51.8452 227.095 52.3648C227.788 52.8844 223.229 61.1981 209.262 78.6915Z" fill="#7D7A7C"/>
<path d="M218.612 65.4703C214.918 70.4355 211.513 74.1304 210.994 73.784C212.297 70.2197 214.254 66.9302 216.765 64.0847C220.516 59.1196 223.921 55.4246 224.441 55.771C223.156 59.3572 221.175 62.6537 218.612 65.4703Z" fill="#F9E6CF"/>
<path opacity="0.5" d="M193.103 65.9322C188.255 75.6315 183.754 84.5226 180.522 91.0465C178.848 94.2219 177.463 96.8199 176.54 98.6674C176.059 99.6238 175.52 100.549 174.924 101.439C175.203 100.408 175.57 99.4038 176.021 98.4365C176.771 96.5312 177.867 93.76 179.252 90.4692C182.138 83.8298 186.005 74.5923 190.333 64.6043C200.779 40.5293 207.646 28.8092 208.512 29.1557C209.378 29.5021 205.511 40.8179 193.103 65.9322Z" fill="#7D7A7C"/>
<path d="M201.24 47.3997C199.601 51.8238 197.263 55.9562 194.315 59.6393C195.232 54.9979 196.888 50.5339 199.221 46.4182C200.86 41.9763 203.198 37.8249 206.146 34.1208C205.244 38.7847 203.587 43.2699 201.24 47.3997Z" fill="#F9E6CF"/>
<path opacity="0.5" d="M218.208 160.5C213.718 158.283 209.092 156.354 204.357 154.727C202.383 154.137 200.454 153.403 198.586 152.533C199.161 152.469 199.742 152.469 200.317 152.533C201.867 152.685 203.408 152.916 204.934 153.226C209.956 154.186 214.882 155.596 219.651 157.441C224.901 159.335 229.559 162.581 233.155 166.851C233.911 168.076 234.586 169.349 235.175 170.662C235.175 171.643 235.175 172.163 235.175 172.278C230.139 167.526 224.42 163.556 218.208 160.5Z" fill="#7D7A7C"/>
<path d="M227.557 165.408C226.104 164.463 224.715 163.422 223.402 162.29C222.248 161.482 221.67 160.847 221.786 160.558C221.901 160.27 222.825 160.558 224.152 160.905C225.82 161.677 227.422 162.585 228.942 163.618C230.364 164.795 231.625 166.154 232.693 167.66C233.386 168.93 233.674 169.796 233.444 169.969C233.213 170.142 232.463 169.623 231.539 168.699C230.616 167.775 229 166.794 227.557 165.408Z" fill="#F9E6CF"/>
<path opacity="0.5" d="M245.621 157.094C235.81 154.9 226.691 153.342 220.112 152.245L212.206 150.917C211.229 150.778 210.265 150.565 209.32 150.282C210.3 150.206 211.284 150.206 212.263 150.282L220.228 150.859C226.98 151.436 236.214 152.302 246.198 154.034C255.466 155.329 264.491 157.994 272.976 161.944C278.747 164.831 280.594 167.717 280.305 168.122C280.017 168.526 277.882 166.678 272.399 164.657C263.673 161.474 254.722 158.946 245.621 157.094Z" fill="#7D7A7C"/>
<path d="M263.8 161.193C259.55 160.236 255.439 158.742 251.565 156.748C255.983 156.605 260.383 157.371 264.492 159C268.817 159.972 272.803 162.085 276.035 165.119C271.889 164.033 267.804 162.722 263.8 161.193Z" fill="#F9E6CF"/>
<path opacity="0.5" d="M189.121 58.5423C185.081 69.7427 181.215 80.0193 178.271 87.4093C176.771 91.1043 175.559 94.1064 174.751 96.1849C174.39 97.3039 173.886 98.3713 173.25 99.3602C173.495 98.2276 173.803 97.1096 174.174 96.0117C174.809 93.8178 175.79 90.7579 176.944 86.9474C179.368 79.3265 182.715 68.8767 186.178 57.5608L196.104 26.4422C196.989 22.8407 198.286 19.3536 199.971 16.05C200.952 16.1655 199.682 29.5598 189.121 58.5423Z" fill="#7D7A7C"/>
<path d="M195.585 37.123C194.419 42.2038 192.472 47.0729 189.814 51.5565C190.376 46.3987 191.598 41.3344 193.449 36.4879C194.623 31.4489 196.386 26.5657 198.701 21.939C198.556 27.1434 197.501 32.2823 195.585 37.123Z" fill="#F9E6CF"/>
<path opacity="0.5" d="M220.632 180.303C214.86 176.781 209.955 173.779 206.146 171.643C204.019 170.552 201.957 169.338 199.971 168.006C200.607 168.095 201.228 168.27 201.818 168.525C203.03 168.93 204.703 169.507 206.723 170.373C212.043 172.496 217.228 174.945 222.248 177.705C227.685 180.578 232.601 184.345 236.791 188.848C239.388 192.254 240.138 194.217 239.676 194.621C239.215 195.025 234.598 189.598 220.632 180.303Z" fill="#7D7A7C"/>
<path d="M230.731 186.885C227.038 183.998 224.152 181.516 224.498 181.111C224.845 180.707 228.365 182.208 232.116 185.153C233.674 186.477 235.121 187.925 236.445 189.483C237.368 190.869 237.772 191.792 237.541 191.965C237.31 192.139 236.445 191.619 235.348 190.638C234.252 189.656 232.578 188.328 230.731 186.885Z" fill="#F9E6CF"/>
<path opacity="0.5" d="M258.721 130.017C251.738 130.017 245.274 130.883 240.542 131.345C237.999 131.71 235.435 131.923 232.866 131.98C233.48 131.646 234.142 131.412 234.829 131.287L240.311 129.959C246.329 128.617 252.418 127.614 258.548 126.957C265.12 125.983 271.816 126.258 278.286 127.765C282.729 129.093 284.461 130.998 284.057 131.287C283.653 131.576 281.979 131.287 277.997 130.537C271.596 129.854 265.15 129.68 258.721 130.017Z" fill="#7D7A7C"/>
<path d="M271.822 129.382C268.737 129.57 265.644 129.178 262.703 128.227C265.615 126.993 268.818 126.613 271.937 127.13C277.131 127.419 281.171 129.151 280.94 129.786C277.895 130.004 274.835 129.869 271.822 129.382Z" fill="#F9E6CF"/>
<path opacity="0.5" d="M250.584 116.623L231.885 121.588L226.114 123.089C224.729 123.435 223.979 123.609 223.921 123.493C224.561 123.101 225.238 122.772 225.941 122.512L231.424 120.26C236.098 118.412 242.562 116.045 249.661 113.678C256.193 111.37 262.94 109.726 269.802 108.771C274.477 108.251 276.958 108.771 276.9 109.29C268.31 112.346 259.516 114.796 250.584 116.623Z" fill="#7D7A7C"/>
<path d="M263.915 112.697C260.82 113.847 257.514 114.32 254.22 114.082C256.93 112.177 260.056 110.95 263.338 110.503C266.479 109.364 269.872 109.104 273.149 109.752C270.259 111.248 267.137 112.243 263.915 112.697Z" fill="#F9E6CF"/>
<path opacity="0.5" d="M232.059 81.0007C225.306 85.8504 219.189 90.4691 214.745 93.7599L209.436 97.7436C208.806 98.2783 208.107 98.725 207.358 99.0715C207.851 98.4172 208.412 97.8172 209.032 97.2817L213.879 92.7207C217.977 88.9103 223.69 83.8297 230.212 78.5181C236.087 73.5207 242.493 69.1839 249.314 65.5857C254.047 63.2764 256.99 63.1609 256.99 63.565C256.99 63.9692 255.143 64.9507 251.219 67.7219C247.294 70.4931 240.831 74.7654 232.059 81.0007Z" fill="#7D7A7C"/>
<path d="M244.409 71.5902C241.606 73.9268 238.398 75.7273 234.944 76.9018C234.598 76.3822 238.176 73.0336 243.139 69.685C245.982 67.3062 249.409 65.7314 253.066 65.124C253.354 65.7014 249.314 68.2417 244.409 71.5902Z" fill="#F9E6CF"/>
<path opacity="0.5" d="M248.795 167.833C241.87 165.061 235.29 163.041 230.443 161.597L224.671 159.923L222.594 159.173C222.594 159.173 223.402 159.173 224.787 159.173C226.172 159.173 228.25 159.634 230.558 160.039C236.996 161.206 243.356 162.768 249.603 164.715C256.454 166.584 262.802 169.956 268.186 174.588C271.706 178.052 272.341 180.707 271.88 180.881C271.418 181.054 270.206 179.437 266.801 176.955C261.197 173.185 255.149 170.121 248.795 167.833Z" fill="#7D7A7C"/>
<path d="M261.607 173.086C256.99 170.431 253.066 168.525 253.354 167.89C256.718 168.036 259.968 169.159 262.703 171.123C267.551 173.837 270.437 177.59 269.86 177.994C267.004 176.542 264.247 174.902 261.607 173.086Z" fill="#F9E6CF"/>
<path opacity="0.5" d="M221.44 200.857C214.918 194.39 208.57 188.79 204.126 184.749L198.355 179.899C197.635 179.358 196.977 178.738 196.393 178.052C197.21 178.428 197.984 178.893 198.701 179.437C200.144 180.419 202.222 181.804 204.472 183.652C209.493 187.289 216.015 192.428 223.286 198.605C229.907 204.127 235.734 210.539 240.6 217.657C243.485 222.68 244.351 225.567 243.889 225.798C243.428 226.029 241.927 223.95 238.695 219.62C235.463 215.29 229.923 209.17 221.44 200.857Z" fill="#7D7A7C"/>
<path d="M233.732 212.807C229.404 207.9 225.883 203.859 226.345 203.397C226.807 202.935 231.02 206.341 235.406 211.364C237.266 213.546 238.963 215.862 240.484 218.292C241.523 220.197 241.927 221.525 241.696 221.699C241.466 221.872 240.542 220.833 239.215 219.216C237.887 217.599 235.867 215.29 233.732 212.807Z" fill="#F9E6CF"/>
<path opacity="0.5" d="M205.684 214.828C201.644 207.958 197.72 201.723 194.892 197.162L191.603 191.735C191.155 191.089 190.787 190.391 190.506 189.656C191.103 190.159 191.628 190.742 192.064 191.388C193.045 192.601 194.431 194.275 196.046 196.353C199.336 200.626 203.78 206.515 208.281 213.154C219.824 229.089 221.786 239.712 220.862 239.885C219.939 240.058 216.419 232.495 205.684 214.828Z" fill="#7D7A7C"/>
<path d="M213.764 227.357C211.736 224.502 210.267 221.29 209.436 217.888C209.955 217.542 212.841 221.237 215.726 226.26C217.776 229.162 219.047 232.541 219.42 236.074C218.785 236.305 216.592 232.264 213.764 227.357Z" fill="#F9E6CF"/>
<path opacity="0.5" d="M242.274 184.403C236.502 181.112 231.135 178.629 227.211 176.377C225.007 175.413 222.884 174.274 220.862 172.971C223.227 173.488 225.543 174.203 227.788 175.107C233.211 176.993 238.528 179.171 243.716 181.631C249.406 184.106 254.591 187.609 259.01 191.966C261.953 195.083 262.357 197.739 262.011 197.739C261.665 197.739 260.453 196.584 257.452 194.275C252.608 190.664 247.538 187.366 242.274 184.403Z" fill="#7D7A7C"/>
<path d="M253.123 190.291C249.257 187.635 246.14 185.384 246.486 184.518C246.833 183.652 250.411 185.384 254.393 188.155C258.375 190.926 260.741 194.217 260.164 194.621C259.587 195.025 256.932 192.889 253.123 190.291Z" fill="#F9E6CF"/>
<path opacity="0.5" d="M227.211 91.1042L209.897 102.94L204.588 106.577C203.965 107.06 203.287 107.467 202.568 107.789C203.067 107.175 203.628 106.614 204.241 106.115L209.032 101.843C213.071 98.321 218.785 93.5868 225.191 88.5639C231.026 83.8665 237.331 79.7843 244.005 76.3821C248.506 74.1304 251.219 73.784 251.334 74.1882C243.627 80.2891 235.572 85.9373 227.211 91.1042Z" fill="#7D7A7C"/>
<path d="M239.272 82.2132C234.482 85.3308 230.443 87.9866 230.039 87.1783C229.635 86.37 233.213 83.4833 238.061 80.308C240.808 78.0209 244.115 76.5065 247.641 75.9202C245.186 78.43 242.365 80.5519 239.272 82.2132Z" fill="#F9E6CF"/>
<path opacity="0.5" d="M125.407 248.833L133.025 224.758L135.392 217.368C135.601 216.435 135.951 215.54 136.43 214.713C136.343 215.665 136.188 216.611 135.969 217.542C135.565 219.331 135.045 221.929 134.353 225.105C132.91 231.456 130.89 240.231 128.582 249.699C122.81 272.793 117.039 283.82 116.058 283.358C115.077 282.897 117.963 272.909 125.407 248.833Z" fill="#7D7A7C"/>
<path d="M120.617 266.442C121.559 262.272 123.156 258.277 125.35 254.607C125.24 258.886 124.36 263.11 122.753 267.077C121.793 271.19 120.113 275.099 117.789 278.624C118.032 274.432 118.989 270.312 120.617 266.442Z" fill="#F9E6CF"/>
<path opacity="0.5" d="M185.024 48.381C182.196 57.272 179.252 65.297 177.175 71.1282L174.52 78.0562C174.229 78.9147 173.862 79.7455 173.423 80.5388C173.518 79.6968 173.692 78.8655 173.943 78.0562L175.847 70.8972C177.463 65.1238 179.656 56.6369 182.023 47.8036C184.85 37.0074 186.928 28.9246 188.429 23.2667C188.87 20.2774 189.664 17.351 190.795 14.5488C191.199 14.5488 191.834 17.2046 191.199 22.7471C189.901 31.4573 187.834 40.0355 185.024 48.381Z" fill="#7D7A7C"/>
<path d="M189.121 31.465C188.567 35.5644 187.151 39.4998 184.966 43.0118C184.972 38.9673 185.635 34.9506 186.928 31.1186C187.573 27.1348 188.737 23.2528 190.391 19.5718C190.879 23.5812 190.445 27.6492 189.121 31.465Z" fill="#F9E6CF"/>
<path opacity="0.5" d="M213.418 83.368C208.974 87.929 204.876 92.1435 201.875 94.9148C200.301 96.6154 198.603 98.1977 196.797 99.649C197.967 97.6066 199.319 95.6742 200.837 93.8756C203.434 90.4693 207.127 85.9083 211.167 80.9431C220.92 68.9345 227.211 63.6229 227.846 64.4312C228.48 65.2395 224.556 71.4748 213.418 83.368Z" fill="#7D7A7C"/>
<path d="M220.747 74.1304C217.688 77.5367 214.976 79.9038 214.399 79.6151C213.822 79.3264 216.015 76.0933 219.073 72.6293C222.132 69.1652 224.845 66.8559 225.364 67.2023C225.883 67.5487 223.748 70.7241 220.747 74.1304Z" fill="#F9E6CF"/>
<path opacity="0.5" d="M206.204 68.1261L192.18 88.2175L187.794 94.3373C187.263 95.1021 186.664 95.8171 186.005 96.4735C186.347 95.6072 186.773 94.7758 187.274 93.9909L191.026 87.467C194.315 82.04 198.759 74.5345 203.607 66.4518C215.553 46.8799 223.113 37.5848 223.863 38.1044C224.614 38.624 220.112 47.9769 206.204 68.1261Z" fill="#7D7A7C"/>
<path d="M215.495 53.0575C213.496 56.745 210.836 60.0329 207.646 62.7568C208.902 58.8032 210.856 55.1073 213.418 51.8451C215.325 48.162 217.91 44.8715 221.036 42.1458C219.841 46.079 217.965 49.7722 215.495 53.0575Z" fill="#F9E6CF"/>
</g>
</g>
</g>
<defs>
<clipPath id="clip0_231_12714">
<rect width="287" height="292.711" fill="white"/>
</clipPath>
</defs>
</svg>
